<?xml version="1.0" standalone="no"?>
<!DOCTYPE svg PUBLIC "-//W3C//DTD SVG 1.1//EN" "http://www.w3.org/Graphics/SVG/1.1/DTD/svg11.dtd" >
<svg xmlns="http://www.w3.org/2000/svg" xmlns:xlink="http://www.w3.org/1999/xlink" version="1.1">
<metadata>
Created by FontForge 20200427 at Fri Sep 14 03:39:32 2018
 By www
Copyright (c) 2014-2018 by Hannes von Doehren, Livius Dietzel. All rights reserved.
</metadata>
<defs>
<font id="BrixSans-Regular" horiz-adv-x="560" >
  <font-face 
    font-family="Brix Sans"
    font-weight="400"
    font-stretch="normal"
    units-per-em="1000"
    panose-1="2 11 5 0 0 0 0 0 0 0"
    ascent="720"
    descent="-280"
    x-height="456"
    cap-height="676"
    bbox="-459 -226 1095 990"
    underline-thickness="58"
    underline-position="-71"
    unicode-range="U+0020-FB02"
  />
<missing-glyph horiz-adv-x="513" 
d="M463 656v-656h-413v656h413zM425 617h-337v-578h337v578z" />
    <glyph glyph-name="fi" unicode="fi" horiz-adv-x="564" 
d="M180 386v-386h-80v386h-78v60l78 10v73q0 77 35.5 119t110.5 42h52v-70h-49q-38 0 -53.5 -23t-15.5 -68v-73h316v-456h-80v386h-236zM414 580q-15 13 -15 41t15.5 42t40.5 14q23 0 39.5 -14.5t16.5 -41.5t-16.5 -40.5t-39.5 -13.5q-26 0 -41 13z" />
    <glyph glyph-name="fl" unicode="fl" horiz-adv-x="563" 
d="M249 620q-38 0 -53.5 -23t-15.5 -68v-73h133v-70h-133v-386h-80v386h-78v60l78 10v73q0 77 35.5 119t110.5 42h52v-70h-49zM473 129q0 -30 10 -43.5t36 -13.5h25v-74h-47q-57 0 -80.5 31t-23.5 91v570h80v-561z" />
    <glyph glyph-name="f_f" unicode="ff" horiz-adv-x="630" 
d="M550 620q-38 0 -53.5 -23t-15.5 -68v-73h133v-70h-133v-386h-80v386h-221v-386h-80v386h-78v60l78 10v73q0 77 35.5 119t110.5 42h52v-70h-49q-38 0 -53.5 -23t-15.5 -68v-73h221v73q0 77 35.5 119t110.5 42h52v-70h-49z" />
    <glyph glyph-name=".notdef" horiz-adv-x="513" 
d="M463 656v-656h-413v656h413zM425 617h-337v-578h337v578z" />
    <glyph glyph-name=".null" horiz-adv-x="0" 
 />
    <glyph glyph-name="nonmarkingreturn" horiz-adv-x="333" 
 />
    <glyph glyph-name="space" unicode=" " horiz-adv-x="214" 
 />
    <glyph glyph-name="exclam" unicode="!" horiz-adv-x="232" 
d="M67 676h98l-17 -464h-66zM72.5 10q-17.5 17 -17.5 42t17.5 42t43.5 17t43.5 -17t17.5 -42t-17.5 -42t-43.5 -17t-43.5 17z" />
    <glyph glyph-name="quotedbl" unicode="&#x22;" horiz-adv-x="357" 
d="M142 676l-12 -244h-61l-11 244h84zM299 676l-11 -244h-61l-9 244h81z" />
    <glyph glyph-name="numbersign" unicode="#" horiz-adv-x="622" 
d="M49 271h104l22 154h-99l8 71h102l28 180h77l-28 -180h135l27 180h78l-28 -180h106l-8 -71h-109l-23 -154h105l-8 -72h-109l-30 -199h-79l32 199h-134l-31 -199h-78l32 199h-100zM363 271l23 154h-134l-23 -154h134z" />
    <glyph glyph-name="dollar" unicode="$" horiz-adv-x="549" 
d="M449.5 52q-52.5 -53 -144.5 -61v-94h-56v93q-90 4 -137 39.5t-72 87.5l64 45q19 -42 51 -67.5t94 -29.5v240l-29 9q-155 48 -155 176q0 75 47 130t137 64v75h56v-74q68 -4 115.5 -31.5t72.5 -66.5l-64 -47q-39 63 -124 70v-236l35 -10q80 -24 121 -66.5t41 -110.5
q0 -82 -52.5 -135zM249 391v217q-47 -9 -72 -40t-25 -74q0 -41 23 -64.5t73 -38.5h1zM386.5 103.5q27.5 30.5 27.5 77.5q0 42 -26 66.5t-76 39.5l-7 2v-223q54 7 81.5 37.5z" />
    <glyph glyph-name="percent" unicode="%" horiz-adv-x="804" 
d="M136 0l405 676h71l-407 -676h-69zM683.5 308.5q34.5 -47.5 34.5 -133.5q0 -85 -35 -132.5t-108 -47.5t-108 47.5t-35 132.5q0 86 35 133.5t108 47.5q74 0 108.5 -47.5zM635.5 78q18.5 32 18.5 97q0 66 -18.5 98t-60.5 32t-60.5 -32.5t-18.5 -97.5t18.5 -97t60.5 -32
t60.5 32zM281.5 636.5q34.5 -47.5 34.5 -133.5q0 -85 -35 -132.5t-108 -47.5t-108 47.5t-35 132.5q0 86 35 133.5t108 47.5q74 0 108.5 -47.5zM233.5 406q18.5 32 18.5 97q0 66 -18.5 98t-60.5 32t-60.5 -32.5t-18.5 -97.5t18.5 -97t60.5 -32t60.5 32z" />
    <glyph glyph-name="ampersand" unicode="&#x26;" horiz-adv-x="649" 
d="M620 7v-7h-95l-89 93q-43 -49 -94 -76.5t-118 -27.5q-56 0 -97 20.5t-62.5 55t-21.5 76.5q0 61 36.5 104t100.5 89l15 11l-25 26q-40 41 -63 75.5t-23 80.5q0 44 23 80.5t66.5 57.5t101.5 21q54 0 96 -21t65 -57.5t23 -80.5q0 -48 -29.5 -85t-91.5 -82l-34 -25l125 -130
l15 20l94 133l59 -46l-96 -135l-19 -27zM253 387l38 28q50 37 70.5 59t20.5 53q0 36 -29 62.5t-78 26.5q-51 0 -81.5 -26.5t-30.5 -62.5q0 -31 16 -56t48 -57zM310 82.5q38 22.5 74 64.5l-139 145l-19 -14q-40 -30 -58.5 -46.5t-32.5 -38.5t-14 -50q0 -34 30 -58.5t73 -24.5
q48 0 86 22.5z" />
    <glyph glyph-name="quotesingle" unicode="'" horiz-adv-x="198" 
d="M140 676l-11 -244h-61l-9 244h81z" />
    <glyph glyph-name="parenleft" unicode="(" horiz-adv-x="271" 
d="M82 -6q-35 108 -35 246q0 144 35.5 248.5t103.5 214.5l63 -22q-57 -111 -87 -213.5t-30 -227.5q0 -122 28 -223t87 -216l-61 -23q-69 108 -104 216z" />
    <glyph glyph-name="parenright" unicode=")" horiz-adv-x="271" 
d="M111 17q28 101 28 223q0 125 -30 227.5t-87 213.5l63 22q68 -111 103 -215.5t35 -247.5q0 -138 -34.5 -245.5t-103.5 -216.5l-61 23q59 115 87 216z" />
    <glyph glyph-name="asterisk" unicode="*" horiz-adv-x="468" 
d="M183 488l-138 32l22 72l138 -48l-6 152h77l-7 -151l138 43l17 -74l-136 -28l91 -117l-63 -43l-84 126l-96 -126l-51 47z" />
    <glyph glyph-name="plus" unicode="+" 
d="M240 304v200h77v-200h195v-69h-195v-199h-77v199h-192v69h192z" />
    <glyph glyph-name="comma" unicode="," horiz-adv-x="220" 
d="M45 -112l25 224h91l-54 -224h-62z" />
    <glyph glyph-name="hyphen" unicode="-" horiz-adv-x="386" 
d="M323 235h-260v70h260v-70z" />
    <glyph glyph-name="period" unicode="." horiz-adv-x="233" 
d="M71 11q-18 18 -18 44q0 27 18 44.5t46 17.5q27 0 45 -17.5t18 -44.5q0 -26 -18 -44t-45 -18q-28 0 -46 18z" />
    <glyph glyph-name="slash" unicode="/" horiz-adv-x="352" 
d="M31 0l206 676h85l-210 -676h-81z" />
    <glyph glyph-name="zero" unicode="0" horiz-adv-x="596" 
d="M482 594.5q60 -91.5 60 -256.5t-60 -256.5t-184 -91.5t-184 91.5t-60 256.5t60 256.5t184 91.5t184 -91.5zM417.5 133q37.5 70 37.5 205t-37.5 205t-119.5 70q-81 0 -119 -70t-38 -205t38 -205t119 -70q82 0 119.5 70z" />
    <glyph glyph-name="one" unicode="1" horiz-adv-x="389" 
d="M222 595l-186 -77l-22 68l217 90h75v-676h-84v595z" />
    <glyph glyph-name="two" unicode="2" horiz-adv-x="520" 
d="M361.5 661q46.5 -25 71.5 -69.5t25 -101.5q0 -66 -33 -120.5t-99 -125.5l-161 -172h307v-72h-420v63l216 232q53 57 78.5 102t25.5 93q0 55 -31.5 89t-87.5 34q-57 0 -87.5 -35.5t-30.5 -94.5h-85q0 92 53 147.5t150 55.5q62 0 108.5 -25z" />
    <glyph glyph-name="three" unicode="3" horiz-adv-x="549" 
d="M454 292.5q40 -44.5 40 -112.5q0 -56 -28 -99t-79 -67.5t-118 -24.5q-108 0 -164 50t-56 127h85q0 -46 36 -74.5t99 -28.5q65 0 102 32.5t37 87.5q0 59 -42.5 93.5t-114.5 34.5h-61v72h61q66 0 106 30t40 86q0 51 -34 82.5t-94 31.5t-93 -29.5t-33 -74.5h-85
q0 48 23 88.5t70.5 64.5t117.5 24q65 0 114 -24t75 -65.5t26 -94.5q0 -61 -36 -101.5t-89 -52.5q55 -11 95 -55.5z" />
    <glyph glyph-name="four" unicode="4" horiz-adv-x="576" 
d="M441 147v-147h-84v147h-324v64l320 465h88v-457h96v-72h-96zM357 558l-234 -339h234v339z" />
    <glyph glyph-name="five" unicode="5" horiz-adv-x="530" 
d="M457.5 101.5q-25.5 -51.5 -76.5 -82t-123 -30.5q-109 0 -163 54t-54 137h85q0 -52 33.5 -84.5t98.5 -32.5q68 0 103 42.5t35 111.5q0 65 -35 102t-99 37t-121 -41l-69 8l42 353h346v-72h-277l-26 -209q62 35 120 35q92 0 149 -55t57 -158q0 -64 -25.5 -115.5z" />
    <glyph glyph-name="six" unicode="6" horiz-adv-x="566" 
d="M384.5 585q-32.5 28 -89.5 28q-76 0 -115 -70.5t-39 -192.5q22 30 67 54.5t99 24.5q98 0 154 -58.5t56 -155.5q0 -62 -25.5 -113.5t-77 -82t-125.5 -30.5q-118 0 -176.5 88.5t-58.5 239.5q0 172 60.5 270.5t180.5 98.5q100 0 153 -50t53 -127h-84q0 48 -32.5 76z
M180.5 121q36.5 -58 108.5 -58q68 0 104.5 41t36.5 110q0 67 -36 105t-105 38q-47 0 -86.5 -27t-58.5 -65q0 -86 36.5 -144z" />
    <glyph glyph-name="seven" unicode="7" horiz-adv-x="474" 
d="M32 604v72h416v-63l-249 -613h-92l247 604h-322z" />
    <glyph glyph-name="eight" unicode="8" horiz-adv-x="574" 
d="M117.5 40q-63.5 51 -63.5 142q0 68 38.5 111t93.5 56q-53 15 -86 53t-33 98q0 86 59.5 136t161.5 50q101 0 160 -50.5t59 -135.5q0 -60 -33 -98t-86 -53q56 -13 94.5 -55.5t38.5 -111.5q0 -91 -63.5 -142t-169.5 -51q-107 0 -170.5 51zM190 582.5q-36 -30.5 -36 -85.5
q0 -53 37 -83t96 -30q58 0 95.5 30t37.5 83q0 55 -35.5 85.5t-97.5 30.5q-61 0 -97 -30.5zM394.5 96q39.5 33 39.5 93q0 58 -41.5 91t-105.5 33t-105.5 -33t-41.5 -91q0 -60 40 -93t107 -33q68 0 107.5 33z" />
    <glyph glyph-name="nine" unicode="9" horiz-adv-x="566" 
d="M182 91q32 -28 88 -28q76 0 115.5 71t39.5 193q-23 -29 -68 -54.5t-98 -25.5q-98 0 -154 58.5t-56 155.5q0 62 25.5 113.5t77 82t125.5 30.5q118 0 176.5 -88.5t58.5 -239.5q0 -172 -61 -270.5t-181 -98.5q-100 0 -152.5 50t-52.5 127h85q0 -48 32 -76zM385.5 555
q-36.5 58 -108.5 58q-68 0 -104.5 -41t-36.5 -110q0 -67 36.5 -105t104.5 -38q47 0 86 26.5t59 64.5q0 87 -36.5 145z" />
    <glyph glyph-name="colon" unicode=":" horiz-adv-x="245" 
d="M79 364q-17 17 -17 43t17 42.5t43 16.5t43.5 -17t17.5 -42q0 -26 -17.5 -43t-43.5 -17t-43 17zM79 10q-17 17 -17 42q0 26 17 42.5t43 16.5t43.5 -17t17.5 -42t-17.5 -42t-43.5 -17t-43 17z" />
    <glyph glyph-name="semicolon" unicode=";" horiz-adv-x="240" 
d="M78.5 364q-17.5 17 -17.5 43q0 25 17.5 42t43.5 17t43.5 -17t17.5 -42q0 -26 -17.5 -43t-43.5 -17t-43.5 17zM55 -112l25 224h91l-53 -224h-63z" />
    <glyph glyph-name="less" unicode="&#x3c;" 
d="M469 476v-76l-323 -130l323 -129v-77l-395 166v80z" />
    <glyph glyph-name="equal" unicode="=" 
d="M477 352h-394v69h394v-69zM477 119h-394v70h394v-70z" />
    <glyph glyph-name="greater" unicode="&#x3e;" 
d="M91 64v77l323 129l-323 130v76l394 -166v-80z" />
    <glyph glyph-name="question" unicode="?" horiz-adv-x="449" 
d="M319.5 663.5q44.5 -22.5 67.5 -61t23 -86.5q0 -47 -19.5 -79.5t-59.5 -76.5q-38 -40 -57.5 -72t-19.5 -76h-82q0 56 23 95t66 87q33 36 49.5 62t16.5 57q0 40 -28 68.5t-79 28.5q-47 0 -75 -24t-28 -64l-80 6q0 69 45.5 113.5t132.5 44.5q60 0 104.5 -22.5zM168.5 10
q-17.5 17 -17.5 42t17.5 42t43.5 17q27 0 44.5 -16.5t17.5 -42.5q0 -25 -17.5 -42t-44.5 -17q-26 0 -43.5 17z" />
    <glyph glyph-name="at" unicode="@" horiz-adv-x="899" 
d="M466.5 34q-36.5 -17 -80.5 -17q-70 0 -106.5 42t-36.5 124q0 69 25.5 130t73 97.5t109.5 36.5q42 0 69 -13t46 -37l7 41h69l-50 -282q-4 -30 -4 -39q0 -22 8.5 -33t28.5 -11q38 0 73 30.5t57.5 93t22.5 153.5q0 106 -67 173.5t-211 67.5q-121 0 -207.5 -55.5t-131 -149
t-44.5 -205.5q0 -140 68 -217t211 -77q107 0 194 42l16 -60q-99 -46 -210 -46q-175 0 -261 95.5t-86 263.5q0 131 54.5 239t156.5 171t240 63q118 0 195.5 -41.5t114 -110.5t36.5 -153q0 -105 -32 -182t-84.5 -117t-112.5 -40q-43 0 -63 17t-25 49q-26 -26 -62.5 -43z
M515.5 370q-21.5 13 -55.5 13q-42 0 -75 -27t-51.5 -72t-18.5 -96q0 -53 23 -79t62 -26q36 0 67 15.5t51 37.5l38 200q-19 21 -40.5 34z" />
    <glyph glyph-name="A" unicode="A" horiz-adv-x="610" 
d="M165 178l-61 -178h-92l242 676h102l244 -676h-94l-61 178h-280zM422 250l-116 338l-118 -338h234z" />
    <glyph glyph-name="B" unicode="B" horiz-adv-x="583" 
d="M294 676q104 0 156 -45t52 -126q0 -61 -28 -99.5t-77 -50.5q60 -11 99.5 -53t39.5 -115q0 -98 -60.5 -142.5t-174.5 -44.5h-219v676h212zM413 499q0 104 -132 104h-113v-217h113q132 0 132 113zM410 101.5q37 28.5 37 90.5q0 57 -37.5 89t-116.5 32h-125v-240h124
q81 0 118 28.5z" />
    <glyph glyph-name="C" unicode="C" horiz-adv-x="585" 
d="M187.5 138q46.5 -73 145.5 -73q49 0 89.5 23t60.5 63l67 -43q-29 -54 -86 -86t-133 -32q-139 0 -208.5 91t-69.5 256q0 166 69.5 257.5t208.5 91.5q76 0 133 -32t86 -86l-67 -43q-20 40 -60.5 63t-89.5 23q-100 0 -146 -73t-46 -201q0 -126 46.5 -199z" />
    <glyph glyph-name="D" unicode="D" horiz-adv-x="649" 
d="M273 676q117 0 187.5 -35t103 -108.5t32.5 -194.5q0 -120 -32.5 -194t-103 -109t-187.5 -35h-191v676h191zM413 99q51 26 72.5 82.5t21.5 156.5q0 98 -21.5 155t-73 83.5t-143.5 26.5h-101v-530h101q93 0 144 26z" />
    <glyph glyph-name="E" unicode="E" horiz-adv-x="538" 
d="M492 0h-410v676h406v-73h-320v-221h284v-73h-284v-236h324v-73z" />
    <glyph glyph-name="F" unicode="F" horiz-adv-x="519" 
d="M481 676v-73h-313v-240h267v-73h-267v-290h-86v676h399z" />
    <glyph glyph-name="G" unicode="G" horiz-adv-x="640" 
d="M593 361q4 -30 4 -49q0 -145 -62.5 -233.5t-198.5 -88.5q-141 0 -212 88.5t-71 259.5q0 348 295 348q76 0 130 -30t84 -84l-65 -44q-27 42 -62.5 62.5t-89.5 20.5q-110 0 -157 -71t-47 -202q0 -137 46 -205.5t148 -68.5q92 0 133.5 60.5t41.5 162.5h-168v74h251z" />
    <glyph glyph-name="H" unicode="H" horiz-adv-x="675" 
d="M593 676v-676h-86v318h-339v-318h-86v676h86v-285h339v285h86z" />
    <glyph glyph-name="I" unicode="I" horiz-adv-x="249" 
d="M168 676v-676h-86v676h86z" />
    <glyph glyph-name="J" unicode="J" horiz-adv-x="487" 
d="M131.5 81.5q26.5 -16.5 67.5 -16.5q64 0 96 40t32 132v439h83v-441q0 -125 -55.5 -185t-155.5 -60q-63 0 -108 27.5t-69 75.5l64 41q19 -36 45.5 -52.5z" />
    <glyph glyph-name="K" unicode="K" horiz-adv-x="605" 
d="M168 0h-86v676h86v-336l313 336h107l-257 -280l256 -396h-103l-214 335l-102 -106v-229z" />
    <glyph glyph-name="L" unicode="L" horiz-adv-x="476" 
d="M456 0h-374v676h86v-603h288v-73z" />
    <glyph glyph-name="M" unicode="M" horiz-adv-x="859" 
d="M725 676l87 -676h-83l-71 574l-183 -574h-93l-180 574l-73 -574h-84l91 676h118l176 -567l181 567h114z" />
    <glyph glyph-name="N" unicode="N" horiz-adv-x="680" 
d="M598 676v-676h-90l-340 540v-540h-87l1 676h92l338 -537l1 537h85z" />
    <glyph glyph-name="O" unicode="O" horiz-adv-x="656" 
d="M536.5 83.5q-67.5 -93.5 -209.5 -93.5t-208 93t-66 254q0 162 66 255.5t209 93.5t209.5 -94t66.5 -255q0 -160 -67.5 -253.5zM183 135.5q42 -70.5 144 -70.5q104 0 146.5 70.5t42.5 201.5t-42.5 202.5t-145.5 71.5q-101 0 -144 -72t-43 -202q0 -131 42 -201.5z" />
    <glyph glyph-name="P" unicode="P" horiz-adv-x="563" 
d="M168 0h-86v676h215q114 0 170.5 -53.5t56.5 -151.5q0 -97 -57 -151t-170 -54h-129v-266zM292 339q77 0 110.5 34.5t33.5 97.5q0 132 -144 132h-124v-264h124z" />
    <glyph glyph-name="Q" unicode="Q" horiz-adv-x="656" 
d="M119 592.5q66 93.5 209 93.5t209.5 -94t66.5 -255q0 -132 -43 -214l82 -80l-48 -54l-77 75q-68 -74 -191 -74q-142 0 -208 93t-66 254q0 162 66 255.5zM183 135.5q42 -70.5 144 -70.5q87 0 133 55l-165 161l47 51l151 -147q23 60 23 152q0 131 -42.5 202.5t-145.5 71.5
q-101 0 -144 -72t-43 -202q0 -131 42 -201.5z" />
    <glyph glyph-name="R" unicode="R" horiz-adv-x="595" 
d="M316 676q115 0 173.5 -49t58.5 -139q0 -76 -45.5 -124t-128.5 -60l192 -304h-99l-182 297h-117l-1 -297h-85v676h234zM425 574q-35 29 -116 29h-141v-233h141q81 0 116 30t35 88q0 57 -35 86z" />
    <glyph glyph-name="S" unicode="S" horiz-adv-x="545" 
d="M280 611q-62 0 -96 -33t-34 -84q0 -41 23 -64.5t73 -38.5l90 -27q80 -25 121.5 -66.5t41.5 -110.5q0 -58 -28 -103t-80 -69.5t-123 -24.5q-102 0 -154 37t-78 91l65 44q21 -46 57 -71.5t110 -25.5q69 0 105.5 31.5t36.5 85.5q0 42 -26.5 66t-76.5 39l-90 27
q-155 48 -155 176q0 53 24 97.5t73 71.5t121 27q77 0 130 -28t79 -71l-63 -47q-44 71 -146 71z" />
    <glyph glyph-name="T" unicode="T" horiz-adv-x="538" 
d="M507 603h-195v-603h-86v603h-194v73h475v-73z" />
    <glyph glyph-name="U" unicode="U" horiz-adv-x="651" 
d="M142.5 53.5q-66.5 63.5 -66.5 198.5v424h86v-425q0 -98 40.5 -142t122.5 -44q81 0 122 44.5t41 141.5v425h86v-424q0 -136 -66.5 -199t-182.5 -63t-182.5 63.5z" />
    <glyph glyph-name="V" unicode="V" horiz-adv-x="596" 
d="M353 0h-110l-227 676h91l191 -586l191 586h92z" />
    <glyph glyph-name="W" unicode="W" horiz-adv-x="968" 
d="M697 100l159 576h91l-194 -676h-107l-162 558l-162 -558h-107l-194 676h91l159 -576l163 576h100z" />
    <glyph glyph-name="X" unicode="X" horiz-adv-x="574" 
d="M287 408l162 268h99l-204 -327l214 -349h-99l-172 285l-171 -285h-100l214 349l-203 327h98z" />
    <glyph glyph-name="Y" unicode="Y" horiz-adv-x="574" 
d="M244 270l-231 406h96l179 -326l177 326h97l-232 -406v-270h-86v270z" />
    <glyph glyph-name="Z" unicode="Z" horiz-adv-x="515" 
d="M138 73h337v-73h-440v64l332 539h-313v73h414v-65z" />
    <glyph glyph-name="bracketleft" unicode="[" horiz-adv-x="300" 
d="M272 621h-121v-768h121v-69h-204v906h204v-69z" />
    <glyph glyph-name="backslash" unicode="\" horiz-adv-x="352" 
d="M114 676l207 -676h-81l-210 676h84z" />
    <glyph glyph-name="bracketright" unicode="]" horiz-adv-x="300" 
d="M232 -216h-204v69h121v768h-121v69h204v-906z" />
    <glyph glyph-name="asciicircum" unicode="^" 
d="M520 459l-55 -55l-185 186l-185 -185l-55 54l240 240z" />
    <glyph glyph-name="underscore" unicode="_" horiz-adv-x="500" 
d="M450 -89h-400v58h400v-58z" />
    <glyph glyph-name="grave" unicode="`" horiz-adv-x="600" 
d="M387 540h-75l-87 156h86z" />
    <glyph glyph-name="a" unicode="a" horiz-adv-x="470" 
d="M330 56q-23 -28 -62 -47t-91 -19q-65 0 -101.5 34t-36.5 95q0 67 54.5 102t154.5 45l78 8v45q0 41 -21 61t-74 20q-46 0 -70 -15t-24 -41v-26h-71q-3 17 -3 33q0 52 45 83.5t127 31.5q84 0 127.5 -36.5t43.5 -109.5v-320h-76v56zM140.5 72q20.5 -18 59.5 -18
q37 0 70 15.5t56 40.5v109l-75 -9q-64 -9 -97.5 -29.5t-33.5 -57.5q0 -33 20.5 -51z" />
    <glyph glyph-name="b" unicode="b" horiz-adv-x="515" 
d="M274 466q99 0 147.5 -62.5t48.5 -174.5t-49 -175.5t-147 -63.5q-90 0 -138 54l-23 -44h-45v690h80v-277q45 53 126 53zM359.5 349q-29.5 43 -99.5 43q-41 0 -69.5 -16.5t-42.5 -38.5v-215q15 -24 44 -41t68 -17q70 0 99.5 44t29.5 121t-29.5 120z" />
    <glyph glyph-name="c" unicode="c" horiz-adv-x="447" 
d="M95 400q50 66 152 66q59 0 102.5 -23.5t67.5 -69.5l-58 -40q-36 61 -107 61q-65 0 -95.5 -45t-30.5 -122t30.5 -121.5t95.5 -44.5q72 0 107 62l58 -41q-24 -45 -67.5 -68.5t-102.5 -23.5q-102 0 -152 65t-50 172t50 173z" />
    <glyph glyph-name="d" unicode="d" horiz-adv-x="516" 
d="M448 690v-690h-77v43q-21 -24 -55.5 -38.5t-78.5 -14.5q-95 0 -143.5 63t-48.5 176q0 112 48.5 174.5t144.5 62.5q44 0 77.5 -15t53.5 -38v277h79zM255 64q40 0 69.5 15.5t44.5 39.5v218q-17 23 -45.5 39t-68.5 16q-69 0 -98.5 -42.5t-29.5 -120.5q0 -165 128 -165z" />
    <glyph glyph-name="e" unicode="e" horiz-adv-x="471" 
d="M319.5 71.5q34.5 12.5 58.5 36.5l40 -54q-24 -26 -69 -45t-95 -19q-108 0 -158.5 64t-50.5 175q0 104 51 170.5t149 66.5q61 0 102 -26.5t61 -70.5t20 -95q0 -33 -6 -71h-297q2 -68 33 -106t96 -38q31 0 65.5 12.5zM352 284q0 52 -28.5 83.5t-78.5 31.5
q-58 0 -86.5 -36.5t-32.5 -98.5h224z" />
    <glyph glyph-name="f" unicode="f" horiz-adv-x="329" 
d="M249 620q-38 0 -53.5 -23t-15.5 -68v-73h133v-70h-133v-386h-80v386h-78v60l78 10v73q0 77 35.5 119t110.5 42h52v-70h-49z" />
    <glyph glyph-name="g" unicode="g" horiz-adv-x="512" 
d="M445 -35q0 -48 -23 -86.5t-66.5 -60.5t-101.5 -22q-57 0 -97.5 19t-61 50t-20.5 69h72q0 -28 29.5 -50t77.5 -22q52 0 81.5 28t29.5 72v85q-21 -26 -54 -41.5t-71 -15.5q-98 0 -146.5 63t-48.5 175t49 175t145 63q82 0 129 -54v44h77v-491zM156 108q29 -44 98 -44
q35 0 64.5 15.5t46.5 39.5v218q-16 22 -43.5 38.5t-67.5 16.5q-69 0 -98 -43t-29 -121q0 -76 29 -120z" />
    <glyph glyph-name="h" unicode="h" horiz-adv-x="519" 
d="M148 690v-284q21 26 60.5 43t86.5 17q83 0 121.5 -44t38.5 -131v-291h-79v284q0 55 -24 81.5t-81 26.5q-38 0 -71 -15t-52 -38v-339h-80v690h80z" />
    <glyph glyph-name="i" unicode="i" horiz-adv-x="216" 
d="M66 580q-15 13 -15 41t15.5 42t40.5 14q24 0 40 -14t16 -42q0 -27 -16 -40.5t-40 -13.5q-26 0 -41 13zM148 456v-456h-80v456h80z" />
    <glyph glyph-name="j" unicode="j" horiz-adv-x="217" 
d="M66.5 580q-15.5 13 -15.5 41t16 42t41 14q23 0 39 -14.5t16 -41.5t-16 -40.5t-39 -13.5q-26 0 -41.5 13zM50 -116q18 32 18 89v483h80v-471q0 -84 -29 -134t-92 -77l-42 56q47 22 65 54z" />
    <glyph glyph-name="k" unicode="k" horiz-adv-x="473" 
d="M221 225l-73 -70v-155h-80v690h80v-439l211 205h102l-184 -176l179 -280h-92z" />
    <glyph glyph-name="l" unicode="l" horiz-adv-x="234" 
d="M144 129q0 -30 10 -43.5t36 -13.5h25v-74h-47q-57 0 -80.5 31t-23.5 91v570h80v-561z" />
    <glyph glyph-name="m" unicode="m" horiz-adv-x="808" 
d="M145 456v-53q57 63 135 63q53 0 87 -17.5t58 -52.5q26 31 67 50.5t91 19.5q84 0 123 -42.5t39 -127.5v-296h-80v291q0 52 -23 76.5t-76 24.5q-72 0 -118 -53v-339h-79v334q-30 58 -106 58q-62 0 -116 -52v-340h-80v456h78z" />
    <glyph glyph-name="n" unicode="n" horiz-adv-x="518" 
d="M145 456v-55q21 29 61 47t89 18q83 0 121.5 -44t38.5 -131v-291h-80v284q0 55 -23.5 81.5t-80.5 26.5q-39 0 -71.5 -14.5t-52.5 -38.5v-339h-80v456h78z" />
    <glyph glyph-name="o" unicode="o" horiz-adv-x="500" 
d="M405 401.5q51 -64.5 51 -172.5q0 -110 -51 -174.5t-157 -64.5q-100 0 -151.5 65t-51.5 173t51 173t155 65q103 0 154 -64.5zM374 228q0 165 -125 165q-63 0 -93 -43t-30 -121q0 -80 30 -123t93 -43q125 0 125 165z" />
    <glyph glyph-name="p" unicode="p" horiz-adv-x="517" 
d="M67 -216v672h77v-44q21 24 56 39t79 15q95 0 144 -63.5t49 -176.5q0 -111 -49 -173.5t-145 -62.5q-44 0 -77.5 14.5t-53.5 37.5v-258h-80zM262 392q-41 0 -70 -15.5t-45 -40.5v-218q17 -22 45 -38t69 -16q70 0 99.5 42t29.5 120q0 166 -128 166z" />
    <glyph glyph-name="q" unicode="q" horiz-adv-x="512" 
d="M240 -10q-98 0 -146.5 62t-48.5 174t49 176t146 64q88 0 137 -55l23 45h45v-672h-80v258q-45 -52 -125 -52zM156 106.5q29 -42.5 99 -42.5q41 0 68.5 16.5t41.5 37.5v215q-15 24 -43.5 41.5t-66.5 17.5q-70 0 -99 -44t-29 -122q0 -77 29 -119.5z" />
    <glyph glyph-name="r" unicode="r" horiz-adv-x="342" 
d="M273 466q34 0 55 -7l-9 -84q-32 9 -61 9q-72 0 -111 -86v-298h-80v456h78v-75h1q43 85 127 85z" />
    <glyph glyph-name="s" unicode="s" horiz-adv-x="430" 
d="M218 402q-44 0 -66 -19.5t-22 -49.5q0 -46 56 -60l78 -18q127 -30 127 -128q0 -60 -47 -98.5t-136 -38.5q-115 0 -174 76l49 49q24 -29 52 -45.5t76 -16.5q45 0 71.5 17.5t26.5 50.5q0 25 -17 39.5t-51 23.5l-80 19q-55 13 -83 45t-28 79q0 35 18 66.5t56 52t97 20.5
q56 0 96.5 -18.5t63.5 -45.5l-47 -49q-45 49 -116 49z" />
    <glyph glyph-name="t" unicode="t" horiz-adv-x="339" 
d="M247 64q29 0 62 14l8 -69q-40 -19 -93 -19q-60 0 -89 35t-29 98v264h-87v59l87 10v114l79 15v-129h122v-69h-122v-255q0 -68 62 -68z" />
    <glyph glyph-name="u" unicode="u" horiz-adv-x="518" 
d="M373 0v55q-21 -29 -61 -47t-89 -18q-83 0 -121.5 44t-38.5 131v291h80v-284q0 -55 23.5 -81.5t80.5 -26.5q39 0 71.5 14.5t52.5 38.5v339h80v-456h-78z" />
    <glyph glyph-name="v" unicode="v" horiz-adv-x="477" 
d="M287 0h-97l-171 456h87l133 -379l131 379h86z" />
    <glyph glyph-name="w" unicode="w" horiz-adv-x="757" 
d="M536 87l114 369h85l-149 -456h-89l-118 354l-119 -354h-89l-148 456h84l114 -369l118 369h79z" />
    <glyph glyph-name="x" unicode="x" horiz-adv-x="453" 
d="M337 0l-110 172l-112 -172h-92l153 229l-153 227h93l110 -172l112 172h92l-153 -228l153 -228h-93z" />
    <glyph glyph-name="y" unicode="y" horiz-adv-x="480" 
d="M376 456h88l-277 -672h-84l104 245l-192 427h90l143 -333z" />
    <glyph glyph-name="z" unicode="z" horiz-adv-x="411" 
d="M138 70h231v-70h-331v56l229 330h-218v70h317v-56z" />
    <glyph glyph-name="braceleft" unicode="{" horiz-adv-x="294" 
d="M118 237q30 -4 50.5 -28.5t20.5 -79.5v-207q0 -42 16 -58t54 -16v-64q-81 0 -116.5 29.5t-35.5 107.5v202q0 46 -21 64t-69 18v64q49 0 69.5 18t20.5 64v202q0 75 36 106t116 31v-64q-38 0 -54 -16t-16 -57v-209q0 -96 -71 -107z" />
    <glyph glyph-name="bar" unicode="|" horiz-adv-x="195" 
d="M68 690h58v-906h-58v906z" />
    <glyph glyph-name="braceright" unicode="}" horiz-adv-x="294" 
d="M35 -152q38 0 54 16t16 58v207q0 55 20.5 79.5t50.5 28.5q-71 11 -71 107v209q0 41 -16 57t-54 16v64q80 0 116 -31t36 -106v-202q0 -46 20.5 -64t69.5 -18v-64q-48 0 -69 -18t-21 -64v-202q0 -78 -35.5 -107.5t-116.5 -29.5v64z" />
    <glyph glyph-name="asciitilde" unicode="~" 
d="M367 268q-18 0 -36.5 -8.5t-43.5 -25.5q-30 -19 -52 -29t-47 -10q-24 0 -47.5 10.5t-38.5 23.5l6 77q21 -17 38 -26t39 -9q20 0 37.5 8.5t42.5 25.5q29 19 51.5 29t49.5 10q45 0 91 -35l-9 -76q-45 35 -81 35z" />
    <glyph glyph-name="uni00A0" unicode="&#xa0;" horiz-adv-x="214" 
 />
    <glyph glyph-name="exclamdown" unicode="&#xa1;" horiz-adv-x="222" 
d="M154.5 449q17.5 -17 17.5 -42t-17.5 -42t-43.5 -17q-27 0 -44 16.5t-17 42.5t17 42.5t44 16.5q26 0 43.5 -17zM159 -217h-97l17 464h66z" />
    <glyph glyph-name="cent" unicode="&#xa2;" horiz-adv-x="477" 
d="M367 123l58 -41q-24 -45 -68 -68.5t-103 -23.5q-12 0 -32 2l-15 -61l-48 11l15 62q-61 23 -91.5 82t-30.5 141q0 107 50.5 173t151.5 66q11 0 31 -2l18 76l49 -11l-18 -76q60 -23 91 -80l-59 -40q-19 34 -50 49l-77 -320q6 -1 20 -1q73 0 108 62zM192 79l76 315h-9
q-65 0 -95 -45t-30 -122q0 -111 58 -148z" />
    <glyph glyph-name="sterling" unicode="&#xa3;" 
d="M105 445q0 107 51 174t159 67q69 0 119.5 -24.5t88.5 -69.5l-55 -54q-32 38 -67.5 54.5t-82.5 16.5q-69 0 -99.5 -45t-30.5 -121v-115h191v-59h-191v-199h295v-70h-378v269h-67v59h67v117z" />
    <glyph glyph-name="currency" unicode="&#xa4;" horiz-adv-x="539" 
d="M420 275q0 -45 -15 -80l80 -83l-55 -55l-80 77q-31 -21 -83 -21t-84 21l-73 -74l-54 54l76 77q-16 35 -16 83q0 46 14 78l-77 80l56 56l74 -75q35 23 86 23q53 0 87 -24l75 74l52 -53l-77 -80q14 -33 14 -78zM348 274q0 89 -80 89t-80 -88q0 -90 80 -90t80 89z" />
    <glyph glyph-name="yen" unicode="&#xa5;" horiz-adv-x="588" 
d="M196 374h-121v59h89l-134 243h94l169 -322l171 322h95l-138 -243h90v-59h-123l-44 -78h167v-58h-178v-238h-84v238h-174v58h163z" />
    <glyph glyph-name="brokenbar" unicode="&#xa6;" horiz-adv-x="202" 
d="M72 690h58v-384h-58v384zM130 -216h-58v386h58v-386z" />
    <glyph glyph-name="section" unicode="&#xa7;" horiz-adv-x="556" 
d="M481 200.5q-20 -32.5 -54 -55.5q71 -42 71 -109q0 -42 -25.5 -76.5t-76 -54.5t-122.5 -20q-80 0 -139 26.5t-90 71.5l50 52q64 -82 183 -82q60 0 96.5 18t36.5 55q0 28 -26.5 45.5t-76.5 36.5l-106 41q-66 24 -102 59.5t-36 88.5q0 35 19 68.5t52 55.5q-68 44 -68 112
q0 37 24.5 72.5t73 58t117.5 22.5q147 0 215 -94l-53 -50q-63 75 -168 75q-53 0 -88 -21t-35 -54q0 -30 27.5 -48.5t86.5 -40.5l80 -28q77 -28 115.5 -64t38.5 -93q0 -35 -20 -67.5zM163 356q-15 -23 -15 -47q0 -31 25 -52.5t78 -40.5l109 -42q23 15 39.5 36.5t16.5 46.5
q0 35 -27 56.5t-80 40.5l-107 38q-24 -13 -39 -36z" />
    <glyph glyph-name="dieresis" unicode="&#xa8;" horiz-adv-x="600" 
d="M167 570q-15 13 -15 41t15.5 42t40.5 14q24 0 40 -14t16 -42q0 -27 -16 -40.5t-40 -13.5q-26 0 -41 13zM336 611q0 28 15 42t40 14q24 0 40 -14t16 -42q0 -27 -16 -40.5t-40 -13.5q-55 0 -55 54z" />
    <glyph glyph-name="copyright" unicode="&#xa9;" horiz-adv-x="814" 
d="M97.5 523.5q46.5 81.5 128 126.5t182.5 45t182 -45t127 -126.5t46 -186.5t-46 -187t-127 -127.5t-182 -45.5t-182.5 45.5t-128 127.5t-46.5 187t46.5 186.5zM154 180.5q37 -67.5 103 -104t151 -36.5q84 0 150 36.5t103 104t37 156.5t-37 156.5t-103 103.5t-150 36
q-85 0 -151 -36t-103 -103.5t-37 -156.5t37 -156.5zM320.5 231q27.5 -37 84.5 -37q64 0 102 53l50 -45q-30 -37 -66 -55t-88 -18q-83 0 -133 55.5t-50 150.5q0 62 23.5 108t65.5 71t95 25q49 0 84.5 -18t64.5 -49l-48 -44q-23 23 -45 34.5t-54 11.5q-56 0 -84.5 -37
t-28.5 -102q0 -67 27.5 -104z" />
    <glyph glyph-name="ordfeminine" unicode="&#xaa;" horiz-adv-x="357" 
d="M235 383q-38 -40 -95 -40q-44 0 -67.5 21t-23.5 59q0 82 139 95l44 5v24q0 22 -12.5 33t-41.5 11q-56 0 -56 -28v-16h-56q-1 8 -1 20q0 32 30 52t85 20q54 0 83.5 -23.5t29.5 -67.5v-198h-58v33zM123 399q12 -9 32 -9q45 0 77 37v55l-41 -5q-40 -5 -60 -17.5t-20 -33.5
q0 -18 12 -27z" />
    <glyph glyph-name="guillemotleft" unicode="&#xab;" horiz-adv-x="498" 
d="M261 447l-135 -177l135 -178l-53 -38l-179 216l179 215zM452 447l-135 -177l135 -178l-53 -38l-179 216l179 215z" />
    <glyph glyph-name="logicalnot" unicode="&#xac;" 
d="M506 381v-261h-77v192h-386v69h463z" />
    <glyph glyph-name="uni00AD" unicode="&#xad;" horiz-adv-x="386" 
d="M323 235h-260v70h260v-70z" />
    <glyph glyph-name="registered" unicode="&#xae;" horiz-adv-x="814" 
d="M97.5 523.5q46.5 81.5 128 126.5t182.5 45t182 -45t127 -126.5t46 -186.5t-46 -187t-127 -127.5t-182 -45.5t-182.5 45.5t-128 127.5t-46.5 187t46.5 186.5zM154 180.5q37 -67.5 103 -104t151 -36.5q84 0 150 36.5t103 104t37 156.5t-37 156.5t-103 103.5t-150 36
q-85 0 -151 -36t-103 -103.5t-37 -156.5t37 -156.5zM408 535q150 0 150 -114q0 -44 -29 -74t-80 -38l120 -176h-73l-112 170h-59v-170h-63v402h146zM475 465.5q-20 18.5 -64 18.5h-86v-131h82q45 0 66.5 20t21.5 46q0 28 -20 46.5z" />
    <glyph glyph-name="macron" unicode="&#xaf;" horiz-adv-x="600" 
d="M440 575h-281v66h281v-66z" />
    <glyph glyph-name="degree" unicode="&#xb0;" horiz-adv-x="359" 
d="M80 646q37 40 98 40q63 0 100.5 -40t37.5 -100q0 -58 -37.5 -98t-100.5 -40q-61 0 -98 40t-37 98q0 60 37 100zM118.5 483.5q22.5 -24.5 59.5 -24.5q39 0 62 24.5t23 62.5t-23 63.5t-62 25.5q-37 0 -59.5 -25.5t-22.5 -63.5t22.5 -62.5z" />
    <glyph glyph-name="plusminus" unicode="&#xb1;" 
d="M240 439v198h76v-198h195v-70h-195v-173h-76v173h-192v70h192zM511 103v-70h-463v70h463z" />
    <glyph glyph-name="uni00B2" unicode="&#xb2;" horiz-adv-x="310" 
d="M239.5 763.5q33.5 -29.5 33.5 -75.5q0 -34 -20 -63.5t-58 -65.5l-77 -72h160v-50h-244v43l120 115q27 26 40.5 47.5t13.5 45.5t-15 39t-42 15q-29 0 -43.5 -16t-14.5 -45h-62q0 51 30.5 81.5t89.5 30.5q55 0 88.5 -29.5z" />
    <glyph glyph-name="uni00B3" unicode="&#xb3;" horiz-adv-x="323" 
d="M267.5 586.5q21.5 -22.5 21.5 -56.5q0 -45 -36 -72.5t-96 -27.5q-63 0 -95.5 27t-32.5 70h63q0 -21 17.5 -33t47.5 -12q31 0 49.5 13.5t18.5 37.5q0 26 -21 41.5t-59 15.5h-35v50h35q34 0 54 13.5t20 37.5q0 23 -17 36.5t-45 13.5t-44 -12.5t-16 -32.5h-63q0 42 31 69
t92 27q58 0 92 -27.5t34 -70.5q0 -30 -19 -51t-48 -28q30 -6 51.5 -28.5z" />
    <glyph glyph-name="acute" unicode="&#xb4;" horiz-adv-x="600" 
d="M292 540h-75l76 156h86z" />
    <glyph glyph-name="uni00B5" unicode="&#xb5;" horiz-adv-x="522" 
d="M503 74v-72q-19 -4 -43 -4q-68 0 -86 57q-21 -30 -60 -47.5t-84 -17.5q-48 0 -83 15v-221h-80v672h80v-284q0 -55 22.5 -81.5t76.5 -26.5q36 0 68 15t51 38v3v336h80v-327q0 -29 7.5 -43t28.5 -14q8 0 22 2z" />
    <glyph glyph-name="paragraph" unicode="&#xb6;" horiz-adv-x="501" 
d="M306 -42h-74v204q-105 0 -152 34.5t-47 112.5q0 68 41.5 107.5t124.5 39.5h107v-498zM347 -120q18 30 18 87v489h73v-477q0 -77 -23.5 -127.5t-90.5 -77.5l-40 54q45 22 63 52z" />
    <glyph glyph-name="periodcentered" unicode="&#xb7;" horiz-adv-x="244" 
d="M76 227q-18 18 -18 44q0 27 18 44.5t46 17.5q27 0 45 -17.5t18 -44.5q0 -26 -18 -44t-45 -18q-28 0 -46 18z" />
    <glyph glyph-name="cedilla" unicode="&#xb8;" horiz-adv-x="600" 
d="M312 -54q41 0 66.5 -19.5t25.5 -61.5q0 -34 -27.5 -57.5t-75.5 -23.5q-43 0 -87 22v58q18 -13 39.5 -20.5t42.5 -7.5q19 0 30 8t11 21q0 19 -13.5 26.5t-40.5 7.5h-36l-4 6l35 101l55 -6z" />
    <glyph glyph-name="uni00B9" unicode="&#xb9;" horiz-adv-x="236" 
d="M122 729l-101 -37l-15 48l124 46h55v-350h-63v293z" />
    <glyph glyph-name="ordmasculine" unicode="&#xba;" horiz-adv-x="366" 
d="M285 598q34 -41 34 -106q0 -68 -34 -108.5t-103 -40.5q-67 0 -101 40.5t-34 107.5t34 107.5t103 40.5q67 0 101 -41zM239 420.5q18 25.5 18 70.5t-18 70.5t-56 25.5t-56 -25t-18 -70t18 -71t56 -26t56 25.5z" />
    <glyph glyph-name="guillemotright" unicode="&#xbb;" horiz-adv-x="498" 
d="M46 92l135 178l-135 177l53 38l179 -215l-179 -216zM237 92l135 178l-135 177l53 38l179 -215l-179 -216z" />
    <glyph glyph-name="onequarter" unicode="&#xbc;" horiz-adv-x="709" 
d="M619 70v-70h-62v70h-180v45l177 235h65v-230h49v-50h-49zM557 270l-114 -150h114v150zM116 0l405 676h71l-407 -676h-69zM148 617l-101 -37l-15 48l124 46h55v-350h-63v293z" />
    <glyph glyph-name="onehalf" unicode="&#xbd;" horiz-adv-x="738" 
d="M116 0l405 676h71l-407 -676h-69zM653.5 326.5q33.5 -29.5 33.5 -75.5q0 -34 -20 -63.5t-58 -65.5l-77 -72h160v-50h-244v43l120 115q27 26 40.5 47.5t13.5 45.5t-15 39t-42 15q-29 0 -43.5 -16t-14.5 -45h-62q0 51 30.5 81.5t89.5 30.5q55 0 88.5 -29.5zM148 617
l-101 -37l-15 48l124 46h55v-350h-63v293z" />
    <glyph glyph-name="threequarters" unicode="&#xbe;" horiz-adv-x="748" 
d="M282.5 474.5q21.5 -22.5 21.5 -56.5q0 -45 -36 -72.5t-96 -27.5q-63 0 -95.5 27t-32.5 70h63q0 -21 17.5 -33t47.5 -12q31 0 49.5 13.5t18.5 37.5q0 26 -21 41.5t-59 15.5h-35v50h35q34 0 54 13.5t20 37.5q0 23 -17 36.5t-45 13.5t-44 -12.5t-16 -32.5h-63q0 42 31 69
t92 27q58 0 92 -27.5t34 -70.5q0 -30 -19 -51t-48 -28q30 -6 51.5 -28.5zM156 0l405 676h71l-407 -676h-69zM660 70v-70h-62v70h-180v45l177 235h65v-230h49v-50h-49zM598 270l-114 -150h114v150z" />
    <glyph glyph-name="questiondown" unicode="&#xbf;" horiz-adv-x="441" 
d="M276.5 450q17.5 -17 17.5 -42t-17.5 -42t-43.5 -17t-43.5 17t-17.5 42t17.5 42t43.5 17t43.5 -17zM126 -203.5q-44 22.5 -67 61t-23 86.5q0 47 19.5 79.5t59.5 76.5q38 41 57 72.5t19 75.5h82q0 -56 -23 -95t-66 -87q-33 -36 -49.5 -62t-16.5 -57q0 -40 28.5 -68.5
t78.5 -28.5q47 0 75.5 24t28.5 64l79 -6q0 -69 -45 -113.5t-132 -44.5q-61 0 -105 22.5z" />
    <glyph glyph-name="Agrave" unicode="&#xc0;" horiz-adv-x="610" 
d="M165 178l-61 -178h-92l242 676h102l244 -676h-94l-61 178h-280zM422 250l-116 338l-118 -338h234zM347 744h-75l-87 156h86z" />
    <glyph glyph-name="Aacute" unicode="&#xc1;" horiz-adv-x="610" 
d="M165 178l-61 -178h-92l242 676h102l244 -676h-94l-61 178h-280zM422 250l-116 338l-118 -338h234zM337 744h-75l76 156h86z" />
    <glyph glyph-name="Acircumflex" unicode="&#xc2;" horiz-adv-x="610" 
d="M165 178l-61 -178h-92l242 676h102l244 -676h-94l-61 178h-280zM422 250l-116 338l-118 -338h234zM447 744h-74l-69 101l-67 -101h-74l101 156h81z" />
    <glyph glyph-name="Atilde" unicode="&#xc3;" horiz-adv-x="610" 
d="M165 178l-61 -178h-92l242 676h102l244 -676h-94l-61 178h-280zM422 250l-116 338l-118 -338h234zM375 802q-15 0 -28 -4t-37 -14q-24 -11 -40.5 -16t-36.5 -5t-39 7.5t-29 17.5l6 61q26 -24 62 -24q16 0 29.5 4t32.5 13q24 11 41 16t39 5t37.5 -6.5t32.5 -17.5l-6 -63
q-33 26 -64 26z" />
    <glyph glyph-name="Adieresis" unicode="&#xc4;" horiz-adv-x="610" 
d="M165 178l-61 -178h-92l242 676h102l244 -676h-94l-61 178h-280zM422 250l-116 338l-118 -338h234zM173 774q-15 13 -15 41t15.5 42t40.5 14q24 0 40 -14t16 -42q0 -27 -16 -40.5t-40 -13.5q-26 0 -41 13zM342 815q0 28 15 42t40 14q24 0 40 -14t16 -42q0 -27 -16 -40.5
t-40 -13.5q-55 0 -55 54z" />
    <glyph glyph-name="Aring" unicode="&#xc5;" horiz-adv-x="610" 
d="M165 178l-61 -178h-92l242 676h102l244 -676h-94l-61 178h-280zM422 250l-116 338l-118 -338h234zM230 878q28 27 75 27q49 0 77.5 -27t28.5 -68q0 -40 -28.5 -67.5t-77.5 -27.5q-47 0 -75 27.5t-28 67.5q0 41 28 68zM268.5 775.5q13.5 -13.5 36.5 -13.5q25 0 39 13.5
t14 34.5q0 22 -14 35.5t-39 13.5q-23 0 -36.5 -13.5t-13.5 -35.5q0 -21 13.5 -34.5z" />
    <glyph glyph-name="AE" unicode="&#xc6;" horiz-adv-x="940" 
d="M453 676h437v-73h-320v-221h285v-73h-285v-239h324v-70h-410v178h-271l-120 -178h-94zM484 594l-227 -345h227v345z" />
    <glyph glyph-name="Ccedilla" unicode="&#xc7;" horiz-adv-x="585" 
d="M422.5 88q40.5 23 60.5 63l67 -43q-27 -50 -78.5 -81.5t-120.5 -35.5l-17 -45q41 0 66.5 -19.5t25.5 -61.5q0 -34 -27.5 -57.5t-75.5 -23.5q-43 0 -87 22v58q18 -13 39 -20.5t42 -7.5q20 0 31 8t11 21q0 19 -14 26.5t-41 7.5h-35l-4 6l29 87q-120 12 -180.5 101.5
t-60.5 243.5q0 166 69.5 257.5t208.5 91.5q76 0 133 -32t86 -86l-67 -43q-20 40 -60.5 63t-89.5 23q-100 0 -146 -73t-46 -201q0 -126 46.5 -199t145.5 -73q49 0 89.5 23z" />
    <glyph glyph-name="Egrave" unicode="&#xc8;" horiz-adv-x="538" 
d="M492 0h-410v676h406v-73h-320v-221h284v-73h-284v-236h324v-73zM328 744h-75l-87 156h86z" />
    <glyph glyph-name="Eacute" unicode="&#xc9;" horiz-adv-x="538" 
d="M492 0h-410v676h406v-73h-320v-221h284v-73h-284v-236h324v-73zM318 744h-75l76 156h86z" />
    <glyph glyph-name="Ecircumflex" unicode="&#xca;" horiz-adv-x="538" 
d="M492 0h-410v676h406v-73h-320v-221h284v-73h-284v-236h324v-73zM428 744h-74l-69 101l-67 -101h-74l101 156h81z" />
    <glyph glyph-name="Edieresis" unicode="&#xcb;" horiz-adv-x="538" 
d="M492 0h-410v676h406v-73h-320v-221h284v-73h-284v-236h324v-73zM154 774q-15 13 -15 41t15.5 42t40.5 14q24 0 40 -14t16 -42q0 -27 -16 -40.5t-40 -13.5q-26 0 -41 13zM323 815q0 28 15 42t40 14q24 0 40 -14t16 -42q0 -27 -16 -40.5t-40 -13.5q-55 0 -55 54z" />
    <glyph glyph-name="Igrave" unicode="&#xcc;" horiz-adv-x="249" 
d="M168 676v-676h-86v676h86zM167 744h-75l-87 156h86z" />
    <glyph glyph-name="Iacute" unicode="&#xcd;" horiz-adv-x="249" 
d="M168 676v-676h-86v676h86zM157 744h-75l76 156h86z" />
    <glyph glyph-name="Icircumflex" unicode="&#xce;" horiz-adv-x="249" 
d="M168 676v-676h-86v676h86zM267 744h-74l-69 101l-67 -101h-74l101 156h81z" />
    <glyph glyph-name="Idieresis" unicode="&#xcf;" horiz-adv-x="249" 
d="M168 676v-676h-86v676h86zM-8 774q-15 13 -15 41t15.5 42t40.5 14q24 0 40 -14t16 -42q0 -27 -16 -40.5t-40 -13.5q-26 0 -41 13zM161 815q0 28 15 42t40 14q24 0 40 -14t16 -42q0 -27 -16 -40.5t-40 -13.5q-55 0 -55 54z" />
    <glyph glyph-name="Eth" unicode="&#xd0;" horiz-adv-x="656" 
d="M89 676h191q117 0 187.5 -35t103 -108.5t32.5 -194.5q0 -120 -32.5 -194t-103 -109t-187.5 -35h-191v316h-67v58h67v302zM420.5 99q51.5 26 73 82.5t21.5 156.5q0 98 -22 155t-73.5 83.5t-143.5 26.5h-101v-229h116v-58h-116v-243h101q93 0 144.5 26z" />
    <glyph glyph-name="Ntilde" unicode="&#xd1;" horiz-adv-x="680" 
d="M598 676v-676h-90l-340 540v-540h-87l1 676h92l338 -537l1 537h85zM410 802q-15 0 -28 -4t-37 -14q-24 -11 -40.5 -16t-36.5 -5t-39 7.5t-29 17.5l6 61q26 -24 62 -24q16 0 29.5 4t32.5 13q24 11 41 16t39 5t37.5 -6.5t32.5 -17.5l-6 -63q-33 26 -64 26z" />
    <glyph glyph-name="Ograve" unicode="&#xd2;" horiz-adv-x="656" 
d="M536.5 83.5q-67.5 -93.5 -209.5 -93.5t-208 93t-66 254q0 162 66 255.5t209 93.5t209.5 -94t66.5 -255q0 -160 -67.5 -253.5zM183 135.5q42 -70.5 144 -70.5q104 0 146.5 70.5t42.5 201.5t-42.5 202.5t-145.5 71.5q-101 0 -144 -72t-43 -202q0 -131 42 -201.5zM370 744
h-75l-87 156h86z" />
    <glyph glyph-name="Oacute" unicode="&#xd3;" horiz-adv-x="656" 
d="M536.5 83.5q-67.5 -93.5 -209.5 -93.5t-208 93t-66 254q0 162 66 255.5t209 93.5t209.5 -94t66.5 -255q0 -160 -67.5 -253.5zM183 135.5q42 -70.5 144 -70.5q104 0 146.5 70.5t42.5 201.5t-42.5 202.5t-145.5 71.5q-101 0 -144 -72t-43 -202q0 -131 42 -201.5zM360 744
h-75l76 156h86z" />
    <glyph glyph-name="Ocircumflex" unicode="&#xd4;" horiz-adv-x="656" 
d="M536.5 83.5q-67.5 -93.5 -209.5 -93.5t-208 93t-66 254q0 162 66 255.5t209 93.5t209.5 -94t66.5 -255q0 -160 -67.5 -253.5zM183 135.5q42 -70.5 144 -70.5q104 0 146.5 70.5t42.5 201.5t-42.5 202.5t-145.5 71.5q-101 0 -144 -72t-43 -202q0 -131 42 -201.5zM470 744
h-74l-69 101l-67 -101h-74l101 156h81z" />
    <glyph glyph-name="Otilde" unicode="&#xd5;" horiz-adv-x="656" 
d="M536.5 83.5q-67.5 -93.5 -209.5 -93.5t-208 93t-66 254q0 162 66 255.5t209 93.5t209.5 -94t66.5 -255q0 -160 -67.5 -253.5zM183 135.5q42 -70.5 144 -70.5q104 0 146.5 70.5t42.5 201.5t-42.5 202.5t-145.5 71.5q-101 0 -144 -72t-43 -202q0 -131 42 -201.5zM398 802
q-15 0 -28 -4t-37 -14q-24 -11 -40.5 -16t-36.5 -5t-39 7.5t-29 17.5l6 61q26 -24 62 -24q16 0 29.5 4t32.5 13q24 11 41 16t39 5t37.5 -6.5t32.5 -17.5l-6 -63q-33 26 -64 26z" />
    <glyph glyph-name="Odieresis" unicode="&#xd6;" horiz-adv-x="656" 
d="M536.5 83.5q-67.5 -93.5 -209.5 -93.5t-208 93t-66 254q0 162 66 255.5t209 93.5t209.5 -94t66.5 -255q0 -160 -67.5 -253.5zM183 135.5q42 -70.5 144 -70.5q104 0 146.5 70.5t42.5 201.5t-42.5 202.5t-145.5 71.5q-101 0 -144 -72t-43 -202q0 -131 42 -201.5zM196 774
q-15 13 -15 41t15.5 42t40.5 14q24 0 40 -14t16 -42q0 -27 -16 -40.5t-40 -13.5q-26 0 -41 13zM365 815q0 28 15 42t40 14q24 0 40 -14t16 -42q0 -27 -16 -40.5t-40 -13.5q-55 0 -55 54z" />
    <glyph glyph-name="multiply" unicode="&#xd7;" 
d="M226 268l-160 160l54 55l161 -161l159 159l51 -52l-159 -159l161 -160l-55 -55l-160 161l-157 -157l-51 52z" />
    <glyph glyph-name="Oslash" unicode="&#xd8;" horiz-adv-x="659" 
d="M537.5 83.5q-67.5 -93.5 -209.5 -93.5q-111 0 -177 60l-38 -50h-76l73 96q-56 88 -56 241q0 162 66 255.5t209 93.5q111 0 180 -64l40 54h79l-78 -102q55 -88 55 -237q0 -160 -67.5 -253.5zM169 174l291 384q-47 53 -131 53q-101 0 -144 -72t-43 -202q0 -102 27 -163z
M490 496l-290 -381q45 -50 128 -50q104 0 146.5 70.5t42.5 201.5q0 99 -27 159z" />
    <glyph glyph-name="Ugrave" unicode="&#xd9;" horiz-adv-x="651" 
d="M142.5 53.5q-66.5 63.5 -66.5 198.5v424h86v-425q0 -98 40.5 -142t122.5 -44q81 0 122 44.5t41 141.5v425h86v-424q0 -136 -66.5 -199t-182.5 -63t-182.5 63.5zM368 744h-75l-87 156h86z" />
    <glyph glyph-name="Uacute" unicode="&#xda;" horiz-adv-x="651" 
d="M142.5 53.5q-66.5 63.5 -66.5 198.5v424h86v-425q0 -98 40.5 -142t122.5 -44q81 0 122 44.5t41 141.5v425h86v-424q0 -136 -66.5 -199t-182.5 -63t-182.5 63.5zM358 744h-75l76 156h86z" />
    <glyph glyph-name="Ucircumflex" unicode="&#xdb;" horiz-adv-x="651" 
d="M142.5 53.5q-66.5 63.5 -66.5 198.5v424h86v-425q0 -98 40.5 -142t122.5 -44q81 0 122 44.5t41 141.5v425h86v-424q0 -136 -66.5 -199t-182.5 -63t-182.5 63.5zM468 744h-74l-69 101l-67 -101h-74l101 156h81z" />
    <glyph glyph-name="Udieresis" unicode="&#xdc;" horiz-adv-x="651" 
d="M142.5 53.5q-66.5 63.5 -66.5 198.5v424h86v-425q0 -98 40.5 -142t122.5 -44q81 0 122 44.5t41 141.5v425h86v-424q0 -136 -66.5 -199t-182.5 -63t-182.5 63.5zM193 774q-15 13 -15 41t15.5 42t40.5 14q24 0 40 -14t16 -42q0 -27 -16 -40.5t-40 -13.5q-26 0 -41 13z
M362 815q0 28 15 42t40 14q24 0 40 -14t16 -42q0 -27 -16 -40.5t-40 -13.5q-55 0 -55 54z" />
    <glyph glyph-name="Yacute" unicode="&#xdd;" horiz-adv-x="574" 
d="M244 270l-231 406h96l179 -326l177 326h97l-232 -406v-270h-86v270zM319 744h-75l76 156h86z" />
    <glyph glyph-name="Thorn" unicode="&#xde;" horiz-adv-x="562" 
d="M168 0h-86v677h85v-131h130q114 0 170.5 -53.5t56.5 -151.5q0 -97 -57 -151t-170 -54h-129v-136zM292 209q77 0 110.5 34.5t33.5 97.5q0 132 -144 132h-124v-264h124z" />
    <glyph glyph-name="germandbls" unicode="&#xdf;" horiz-adv-x="548" 
d="M110.5 643.5q43.5 56.5 136.5 56.5t138 -47t45 -117q0 -34 -15 -62t-42 -61q-16 -20 -23.5 -32t-7.5 -23q0 -17 13.5 -31.5t37.5 -28.5l38 -25q46 -30 66.5 -63.5t20.5 -77.5q0 -62 -44.5 -102.5t-120.5 -40.5q-60 0 -116 29l26 65q44 -26 83 -26q42 0 66.5 21t24.5 54
q0 26 -13 46.5t-44 40.5l-43 29q-41 27 -59 48t-18 54q0 20 10.5 39t30.5 45q23 28 34.5 49.5t11.5 46.5q0 48 -26.5 73.5t-75.5 25.5q-58 0 -78.5 -34.5t-20.5 -100.5v-494h-79v492q0 95 43.5 151.5z" />
    <glyph glyph-name="agrave" unicode="&#xe0;" horiz-adv-x="470" 
d="M330 56q-23 -28 -62 -47t-91 -19q-65 0 -101.5 34t-36.5 95q0 67 54.5 102t154.5 45l78 8v45q0 41 -21 61t-74 20q-46 0 -70 -15t-24 -41v-26h-71q-3 17 -3 33q0 52 45 83.5t127 31.5q84 0 127.5 -36.5t43.5 -109.5v-320h-76v56zM140.5 72q20.5 -18 59.5 -18
q37 0 70 15.5t56 40.5v109l-75 -9q-64 -9 -97.5 -29.5t-33.5 -57.5q0 -33 20.5 -51zM283 540h-75l-87 156h86z" />
    <glyph glyph-name="aacute" unicode="&#xe1;" horiz-adv-x="470" 
d="M330 56q-23 -28 -62 -47t-91 -19q-65 0 -101.5 34t-36.5 95q0 67 54.5 102t154.5 45l78 8v45q0 41 -21 61t-74 20q-46 0 -70 -15t-24 -41v-26h-71q-3 17 -3 33q0 52 45 83.5t127 31.5q84 0 127.5 -36.5t43.5 -109.5v-320h-76v56zM140.5 72q20.5 -18 59.5 -18
q37 0 70 15.5t56 40.5v109l-75 -9q-64 -9 -97.5 -29.5t-33.5 -57.5q0 -33 20.5 -51zM273 540h-75l76 156h86z" />
    <glyph glyph-name="acircumflex" unicode="&#xe2;" horiz-adv-x="470" 
d="M330 56q-23 -28 -62 -47t-91 -19q-65 0 -101.5 34t-36.5 95q0 67 54.5 102t154.5 45l78 8v45q0 41 -21 61t-74 20q-46 0 -70 -15t-24 -41v-26h-71q-3 17 -3 33q0 52 45 83.5t127 31.5q84 0 127.5 -36.5t43.5 -109.5v-320h-76v56zM140.5 72q20.5 -18 59.5 -18
q37 0 70 15.5t56 40.5v109l-75 -9q-64 -9 -97.5 -29.5t-33.5 -57.5q0 -33 20.5 -51zM383 540h-74l-69 101l-67 -101h-74l101 156h81z" />
    <glyph glyph-name="atilde" unicode="&#xe3;" horiz-adv-x="470" 
d="M330 56q-23 -28 -62 -47t-91 -19q-65 0 -101.5 34t-36.5 95q0 67 54.5 102t154.5 45l78 8v45q0 41 -21 61t-74 20q-46 0 -70 -15t-24 -41v-26h-71q-3 17 -3 33q0 52 45 83.5t127 31.5q84 0 127.5 -36.5t43.5 -109.5v-320h-76v56zM140.5 72q20.5 -18 59.5 -18
q37 0 70 15.5t56 40.5v109l-75 -9q-64 -9 -97.5 -29.5t-33.5 -57.5q0 -33 20.5 -51zM311 598q-15 0 -28 -4t-37 -14q-24 -11 -40.5 -16t-36.5 -5t-39 7.5t-29 17.5l6 61q26 -24 62 -24q16 0 29.5 4t32.5 13q24 11 41 16t39 5t37.5 -6.5t32.5 -17.5l-6 -63q-33 26 -64 26z
" />
    <glyph glyph-name="adieresis" unicode="&#xe4;" horiz-adv-x="470" 
d="M330 56q-23 -28 -62 -47t-91 -19q-65 0 -101.5 34t-36.5 95q0 67 54.5 102t154.5 45l78 8v45q0 41 -21 61t-74 20q-46 0 -70 -15t-24 -41v-26h-71q-3 17 -3 33q0 52 45 83.5t127 31.5q84 0 127.5 -36.5t43.5 -109.5v-320h-76v56zM140.5 72q20.5 -18 59.5 -18
q37 0 70 15.5t56 40.5v109l-75 -9q-64 -9 -97.5 -29.5t-33.5 -57.5q0 -33 20.5 -51zM108 570q-15 13 -15 41t15.5 42t40.5 14q24 0 40 -14t16 -42q0 -27 -16 -40.5t-40 -13.5q-26 0 -41 13zM277 611q0 28 15 42t40 14q24 0 40 -14t16 -42q0 -27 -16 -40.5t-40 -13.5
q-55 0 -55 54z" />
    <glyph glyph-name="aring" unicode="&#xe5;" horiz-adv-x="470" 
d="M330 56q-23 -28 -62 -47t-91 -19q-65 0 -101.5 34t-36.5 95q0 67 54.5 102t154.5 45l78 8v45q0 41 -21 61t-74 20q-46 0 -70 -15t-24 -41v-26h-71q-3 17 -3 33q0 52 45 83.5t127 31.5q84 0 127.5 -36.5t43.5 -109.5v-320h-76v56zM140.5 72q20.5 -18 59.5 -18
q37 0 70 15.5t56 40.5v109l-75 -9q-64 -9 -97.5 -29.5t-33.5 -57.5q0 -33 20.5 -51zM165 690q28 27 75 27q49 0 77.5 -27t28.5 -68q0 -40 -28.5 -67.5t-77.5 -27.5q-47 0 -75 27.5t-28 67.5q0 41 28 68zM203.5 587.5q13.5 -13.5 36.5 -13.5q25 0 39 13.5t14 34.5
q0 22 -14 35.5t-39 13.5q-23 0 -36.5 -13.5t-13.5 -35.5q0 -21 13.5 -34.5z" />
    <glyph glyph-name="ae" unicode="&#xe6;" horiz-adv-x="753" 
d="M601 71.5q34 12.5 59 36.5l40 -54q-24 -27 -69 -45.5t-96 -18.5q-118 0 -167 81q-31 -36 -77.5 -58.5t-104.5 -22.5q-71 0 -109.5 34t-38.5 95q0 67 55 102t155 45l78 8v45q0 41 -21.5 61t-73.5 20q-47 0 -71 -15t-24 -41v-26h-71q-2 22 -2 33q0 52 44.5 83.5t127.5 31.5
q111 0 147 -70q49 70 145 70q61 0 102 -26.5t61 -70.5t20 -95q0 -38 -7 -71h-296q2 -68 33 -106t95 -38q32 0 66 12.5zM634 284q0 52 -28.5 83.5t-78.5 31.5q-59 0 -87.5 -36.5t-31.5 -98.5h224zM140 72q20 -18 60 -18q37 0 70 15.5t56 40.5v109l-76 -9q-64 -9 -97 -29.5
t-33 -57.5q0 -33 20 -51z" />
    <glyph glyph-name="ccedilla" unicode="&#xe7;" horiz-adv-x="448" 
d="M359 123l58 -41q-22 -41 -60.5 -64t-89.5 -27l-17 -45q41 0 66.5 -19.5t25.5 -61.5q0 -34 -27.5 -57.5t-75.5 -23.5q-44 0 -86 22v58q17 -13 38.5 -20.5t42.5 -7.5q20 0 30.5 8t10.5 21q0 19 -13.5 26.5t-40.5 7.5h-35l-4 6l29 87q-83 12 -124.5 75t-41.5 160
q0 107 50 173t152 66q59 0 102.5 -23.5t67.5 -69.5l-58 -40q-36 61 -107 61q-65 0 -95.5 -45t-30.5 -122t30.5 -121.5t95.5 -44.5q72 0 107 62z" />
    <glyph glyph-name="egrave" unicode="&#xe8;" horiz-adv-x="471" 
d="M319.5 71.5q34.5 12.5 58.5 36.5l40 -54q-24 -26 -69 -45t-95 -19q-108 0 -158.5 64t-50.5 175q0 104 51 170.5t149 66.5q61 0 102 -26.5t61 -70.5t20 -95q0 -33 -6 -71h-297q2 -68 33 -106t96 -38q31 0 65.5 12.5zM352 284q0 52 -28.5 83.5t-78.5 31.5
q-58 0 -86.5 -36.5t-32.5 -98.5h224zM291 540h-75l-87 156h86z" />
    <glyph glyph-name="eacute" unicode="&#xe9;" horiz-adv-x="471" 
d="M319.5 71.5q34.5 12.5 58.5 36.5l40 -54q-24 -26 -69 -45t-95 -19q-108 0 -158.5 64t-50.5 175q0 104 51 170.5t149 66.5q61 0 102 -26.5t61 -70.5t20 -95q0 -33 -6 -71h-297q2 -68 33 -106t96 -38q31 0 65.5 12.5zM352 284q0 52 -28.5 83.5t-78.5 31.5
q-58 0 -86.5 -36.5t-32.5 -98.5h224zM280 540h-75l76 156h86z" />
    <glyph glyph-name="ecircumflex" unicode="&#xea;" horiz-adv-x="471" 
d="M319.5 71.5q34.5 12.5 58.5 36.5l40 -54q-24 -26 -69 -45t-95 -19q-108 0 -158.5 64t-50.5 175q0 104 51 170.5t149 66.5q61 0 102 -26.5t61 -70.5t20 -95q0 -33 -6 -71h-297q2 -68 33 -106t96 -38q31 0 65.5 12.5zM352 284q0 52 -28.5 83.5t-78.5 31.5
q-58 0 -86.5 -36.5t-32.5 -98.5h224zM391 540h-74l-69 101l-67 -101h-74l101 156h81z" />
    <glyph glyph-name="edieresis" unicode="&#xeb;" horiz-adv-x="471" 
d="M319.5 71.5q34.5 12.5 58.5 36.5l40 -54q-24 -26 -69 -45t-95 -19q-108 0 -158.5 64t-50.5 175q0 104 51 170.5t149 66.5q61 0 102 -26.5t61 -70.5t20 -95q0 -33 -6 -71h-297q2 -68 33 -106t96 -38q31 0 65.5 12.5zM352 284q0 52 -28.5 83.5t-78.5 31.5
q-58 0 -86.5 -36.5t-32.5 -98.5h224zM116 570q-15 13 -15 41t15.5 42t40.5 14q24 0 40 -14t16 -42q0 -27 -16 -40.5t-40 -13.5q-26 0 -41 13zM285 611q0 28 15 42t40 14q24 0 40 -14t16 -42q0 -27 -16 -40.5t-40 -13.5q-55 0 -55 54z" />
    <glyph glyph-name="igrave" unicode="&#xec;" horiz-adv-x="216" 
d="M148 456v-456h-80v456h80zM150 540h-75l-87 156h86z" />
    <glyph glyph-name="iacute" unicode="&#xed;" horiz-adv-x="216" 
d="M148 456v-456h-80v456h80zM140 540h-75l76 156h86z" />
    <glyph glyph-name="icircumflex" unicode="&#xee;" horiz-adv-x="216" 
d="M148 456v-456h-80v456h80zM250 540h-74l-69 101l-67 -101h-74l101 156h81z" />
    <glyph glyph-name="idieresis" unicode="&#xef;" horiz-adv-x="216" 
d="M148 456v-456h-80v456h80zM-25 570q-15 13 -15 41t15.5 42t40.5 14q24 0 40 -14t16 -42q0 -27 -16 -40.5t-40 -13.5q-26 0 -41 13zM144 611q0 28 15 42t40 14q24 0 40 -14t16 -42q0 -27 -16 -40.5t-40 -13.5q-55 0 -55 54z" />
    <glyph glyph-name="eth" unicode="&#xf0;" horiz-adv-x="525" 
d="M474 314q0 -144 -52 -234t-168 -90q-103 0 -156 62.5t-53 166.5q0 103 51 165.5t142 62.5q58 0 97.5 -27.5t59.5 -69.5q0 93 -48 184l-81 -38l-23 54l74 33q-39 57 -98 107h102q38 -32 67 -75l61 28l23 -52l-55 -25q57 -112 57 -252zM390 261q-20 48 -55 79.5t-85 31.5
q-63 0 -94.5 -42t-31.5 -113q0 -69 31.5 -112.5t98.5 -43.5q128 0 136 200z" />
    <glyph glyph-name="ntilde" unicode="&#xf1;" horiz-adv-x="518" 
d="M145 456v-55q21 29 61 47t89 18q83 0 121.5 -44t38.5 -131v-291h-80v284q0 55 -23.5 81.5t-80.5 26.5q-39 0 -71.5 -14.5t-52.5 -38.5v-339h-80v456h78zM330 598q-15 0 -28 -4t-37 -14q-24 -11 -40.5 -16t-36.5 -5t-39 7.5t-29 17.5l6 61q26 -24 62 -24q16 0 29.5 4
t32.5 13q24 11 41 16t39 5t37.5 -6.5t32.5 -17.5l-6 -63q-33 26 -64 26z" />
    <glyph glyph-name="ograve" unicode="&#xf2;" horiz-adv-x="500" 
d="M405 401.5q51 -64.5 51 -172.5q0 -110 -51 -174.5t-157 -64.5q-100 0 -151.5 65t-51.5 173t51 173t155 65q103 0 154 -64.5zM374 228q0 165 -125 165q-63 0 -93 -43t-30 -121q0 -80 30 -123t93 -43q125 0 125 165zM292 540h-75l-87 156h86z" />
    <glyph glyph-name="oacute" unicode="&#xf3;" horiz-adv-x="500" 
d="M405 401.5q51 -64.5 51 -172.5q0 -110 -51 -174.5t-157 -64.5q-100 0 -151.5 65t-51.5 173t51 173t155 65q103 0 154 -64.5zM374 228q0 165 -125 165q-63 0 -93 -43t-30 -121q0 -80 30 -123t93 -43q125 0 125 165zM282 540h-75l76 156h86z" />
    <glyph glyph-name="ocircumflex" unicode="&#xf4;" horiz-adv-x="500" 
d="M405 401.5q51 -64.5 51 -172.5q0 -110 -51 -174.5t-157 -64.5q-100 0 -151.5 65t-51.5 173t51 173t155 65q103 0 154 -64.5zM374 228q0 165 -125 165q-63 0 -93 -43t-30 -121q0 -80 30 -123t93 -43q125 0 125 165zM392 540h-74l-69 101l-67 -101h-74l101 156h81z" />
    <glyph glyph-name="otilde" unicode="&#xf5;" horiz-adv-x="500" 
d="M405 401.5q51 -64.5 51 -172.5q0 -110 -51 -174.5t-157 -64.5q-100 0 -151.5 65t-51.5 173t51 173t155 65q103 0 154 -64.5zM374 228q0 165 -125 165q-63 0 -93 -43t-30 -121q0 -80 30 -123t93 -43q125 0 125 165zM320 598q-15 0 -28 -4t-37 -14q-24 -11 -40.5 -16
t-36.5 -5t-39 7.5t-29 17.5l6 61q26 -24 62 -24q16 0 29.5 4t32.5 13q24 11 41 16t39 5t37.5 -6.5t32.5 -17.5l-6 -63q-33 26 -64 26z" />
    <glyph glyph-name="odieresis" unicode="&#xf6;" horiz-adv-x="500" 
d="M405 401.5q51 -64.5 51 -172.5q0 -110 -51 -174.5t-157 -64.5q-100 0 -151.5 65t-51.5 173t51 173t155 65q103 0 154 -64.5zM374 228q0 165 -125 165q-63 0 -93 -43t-30 -121q0 -80 30 -123t93 -43q125 0 125 165zM118 570q-15 13 -15 41t15.5 42t40.5 14q24 0 40 -14
t16 -42q0 -27 -16 -40.5t-40 -13.5q-26 0 -41 13zM287 611q0 28 15 42t40 14q24 0 40 -14t16 -42q0 -27 -16 -40.5t-40 -13.5q-55 0 -55 54z" />
    <glyph glyph-name="divide" unicode="&#xf7;" 
d="M238.5 407q-17.5 17 -17.5 43t17.5 42.5t43.5 16.5t43.5 -16.5t17.5 -42.5t-17.5 -43t-43.5 -17t-43.5 17zM511 305v-70h-463v70h463zM238.5 46.5q-17.5 16.5 -17.5 41.5t17.5 42t43.5 17t43.5 -17t17.5 -42t-17.5 -41.5t-43.5 -16.5t-43.5 16.5z" />
    <glyph glyph-name="oslash" unicode="&#xf8;" horiz-adv-x="500" 
d="M411 393q45 -61 45 -164q0 -110 -51 -174.5t-157 -64.5q-72 0 -119 35l-19 -25h-67l48 62q-46 62 -46 166q0 108 51 173t155 65q73 0 121 -34l19 24h69zM143 130l182 240q-29 23 -76 23q-63 0 -93 -43t-30 -121q0 -61 17 -99zM359 324l-183 -238q28 -23 73 -23
q125 0 125 165q0 57 -15 96z" />
    <glyph glyph-name="ugrave" unicode="&#xf9;" horiz-adv-x="518" 
d="M309 540h-75l-87 156h86zM373 0v55q-21 -29 -61 -47t-89 -18q-83 0 -121.5 44t-38.5 131v291h80v-284q0 -55 23.5 -81.5t80.5 -26.5q39 0 71.5 14.5t52.5 38.5v339h80v-456h-78z" />
    <glyph glyph-name="uacute" unicode="&#xfa;" horiz-adv-x="518" 
d="M291 540h-75l76 156h86zM373 0v55q-21 -29 -61 -47t-89 -18q-83 0 -121.5 44t-38.5 131v291h80v-284q0 -55 23.5 -81.5t80.5 -26.5q39 0 71.5 14.5t52.5 38.5v339h80v-456h-78z" />
    <glyph glyph-name="ucircumflex" unicode="&#xfb;" horiz-adv-x="518" 
d="M398 540h-74l-69 101l-67 -101h-74l101 156h81zM373 0v55q-21 -29 -61 -47t-89 -18q-83 0 -121.5 44t-38.5 131v291h80v-284q0 -55 23.5 -81.5t80.5 -26.5q39 0 71.5 14.5t52.5 38.5v339h80v-456h-78z" />
    <glyph glyph-name="udieresis" unicode="&#xfc;" horiz-adv-x="518" 
d="M126 570q-15 13 -15 41t15.5 42t40.5 14q24 0 40 -14t16 -42q0 -27 -16 -40.5t-40 -13.5q-26 0 -41 13zM295 611q0 28 15 42t40 14q24 0 40 -14t16 -42q0 -27 -16 -40.5t-40 -13.5q-55 0 -55 54zM373 0v55q-21 -29 -61 -47t-89 -18q-83 0 -121.5 44t-38.5 131v291h80
v-284q0 -55 23.5 -81.5t80.5 -26.5q39 0 71.5 14.5t52.5 38.5v339h80v-456h-78z" />
    <glyph glyph-name="yacute" unicode="&#xfd;" horiz-adv-x="480" 
d="M376 456h88l-277 -672h-84l104 245l-192 427h90l143 -333zM272 540h-75l76 156h86z" />
    <glyph glyph-name="thorn" unicode="&#xfe;" horiz-adv-x="518" 
d="M68 -216v892h80v-262q21 24 54.5 38t77.5 14q95 0 143.5 -63.5t48.5 -176.5q0 -112 -48.5 -174t-144.5 -62q-45 0 -78.5 14.5t-52.5 37.5v-258h-80zM262 392q-40 0 -69 -15.5t-45 -40.5v-218q16 -22 44.5 -38t69.5 -16q70 0 99.5 42t29.5 120q0 166 -129 166z" />
    <glyph glyph-name="ydieresis" unicode="&#xff;" horiz-adv-x="480" 
d="M376 456h88l-277 -672h-84l104 245l-192 427h90l143 -333zM108 570q-15 13 -15 41t15.5 42t40.5 14q24 0 40 -14t16 -42q0 -27 -16 -40.5t-40 -13.5q-26 0 -41 13zM277 611q0 28 15 42t40 14q24 0 40 -14t16 -42q0 -27 -16 -40.5t-40 -13.5q-55 0 -55 54z" />
    <glyph glyph-name="Amacron" unicode="&#x100;" horiz-adv-x="610" 
d="M165 178l-61 -178h-92l242 676h102l244 -676h-94l-61 178h-280zM422 250l-116 338l-118 -338h234zM446 779h-281v66h281v-66z" />
    <glyph glyph-name="amacron" unicode="&#x101;" horiz-adv-x="470" 
d="M330 56q-23 -28 -62 -47t-91 -19q-65 0 -101.5 34t-36.5 95q0 67 54.5 102t154.5 45l78 8v45q0 41 -21 61t-74 20q-46 0 -70 -15t-24 -41v-26h-71q-3 17 -3 33q0 52 45 83.5t127 31.5q84 0 127.5 -36.5t43.5 -109.5v-320h-76v56zM140.5 72q20.5 -18 59.5 -18
q37 0 70 15.5t56 40.5v109l-75 -9q-64 -9 -97.5 -29.5t-33.5 -57.5q0 -33 20.5 -51zM382 575h-281v66h281v-66z" />
    <glyph glyph-name="Abreve" unicode="&#x102;" horiz-adv-x="610" 
d="M165 178l-61 -178h-92l242 676h102l244 -676h-94l-61 178h-280zM422 250l-116 338l-118 -338h234zM405.5 787.5q-37.5 -38.5 -101.5 -38.5q-62 0 -99 38.5t-37 99.5h56q2 -34 23.5 -55.5t56.5 -21.5q36 0 57.5 21.5t23.5 55.5h58q0 -61 -37.5 -99.5z" />
    <glyph glyph-name="abreve" unicode="&#x103;" horiz-adv-x="470" 
d="M330 56q-23 -28 -62 -47t-91 -19q-65 0 -101.5 34t-36.5 95q0 67 54.5 102t154.5 45l78 8v45q0 41 -21 61t-74 20q-46 0 -70 -15t-24 -41v-26h-71q-3 17 -3 33q0 52 45 83.5t127 31.5q84 0 127.5 -36.5t43.5 -109.5v-320h-76v56zM140.5 72q20.5 -18 59.5 -18
q37 0 70 15.5t56 40.5v109l-75 -9q-64 -9 -97.5 -29.5t-33.5 -57.5q0 -33 20.5 -51zM341.5 583.5q-37.5 -38.5 -101.5 -38.5q-62 0 -99 38.5t-37 99.5h56q2 -34 23.5 -55.5t56.5 -21.5q36 0 57.5 21.5t23.5 55.5h58q0 -61 -37.5 -99.5z" />
    <glyph glyph-name="Aogonek" unicode="&#x104;" horiz-adv-x="610" 
d="M492 -112q0 -16 12 -27.5t32 -11.5q28 0 63 26v-69q-40 -22 -83 -22q-49 0 -77.5 24.5t-28.5 65.5q0 52 55 96l40 32l-60 176h-280l-61 -178h-92l242 676h102l244 -676h-1l-74 -58q-33 -27 -33 -54zM422 250l-116 338l-118 -338h234z" />
    <glyph glyph-name="aogonek" unicode="&#x105;" horiz-adv-x="469" 
d="M93 221q55 35 155 45l78 8v45q0 41 -21.5 61t-73.5 20q-47 0 -71 -15t-24 -41v-26h-71q-2 22 -2 33q0 52 44.5 83.5t127.5 31.5q84 0 127 -36.5t43 -109.5v-320l-70 -53q-29 -22 -29 -52q0 -14 10 -23t27 -9q29 0 57 17l7 -57q-16 -7 -29.5 -11.5t-31.5 -5.5h-11
q-50 0 -78 19.5t-28 57.5q0 26 14 49t37 39l50 36v49q-25 -28 -63.5 -47t-89.5 -19q-65 0 -102 34t-37 95q0 67 55 102zM140 72q20 -18 60 -18q37 0 70 15.5t56 40.5v109l-76 -9q-64 -9 -97 -29.5t-33 -57.5q0 -33 20 -51z" />
    <glyph glyph-name="Cacute" unicode="&#x106;" horiz-adv-x="585" 
d="M187.5 138q46.5 -73 145.5 -73q49 0 89.5 23t60.5 63l67 -43q-29 -54 -86 -86t-133 -32q-139 0 -208.5 91t-69.5 256q0 166 69.5 257.5t208.5 91.5q76 0 133 -32t86 -86l-67 -43q-20 40 -60.5 63t-89.5 23q-100 0 -146 -73t-46 -201q0 -126 46.5 -199zM361 744h-75
l76 156h86z" />
    <glyph glyph-name="cacute" unicode="&#x107;" horiz-adv-x="447" 
d="M95 400q50 66 152 66q59 0 102.5 -23.5t67.5 -69.5l-58 -40q-36 61 -107 61q-65 0 -95.5 -45t-30.5 -122t30.5 -121.5t95.5 -44.5q72 0 107 62l58 -41q-24 -45 -67.5 -68.5t-102.5 -23.5q-102 0 -152 65t-50 172t50 173zM284 540h-75l76 156h86z" />
    <glyph glyph-name="Ccircumflex" unicode="&#x108;" horiz-adv-x="585" 
d="M187.5 138q46.5 -73 145.5 -73q49 0 89.5 23t60.5 63l67 -43q-29 -54 -86 -86t-133 -32q-139 0 -208.5 91t-69.5 256q0 166 69.5 257.5t208.5 91.5q76 0 133 -32t86 -86l-67 -43q-20 40 -60.5 63t-89.5 23q-100 0 -146 -73t-46 -201q0 -126 46.5 -199zM471 744h-74
l-69 101l-67 -101h-74l101 156h81z" />
    <glyph glyph-name="ccircumflex" unicode="&#x109;" horiz-adv-x="447" 
d="M95 400q50 66 152 66q59 0 102.5 -23.5t67.5 -69.5l-58 -40q-36 61 -107 61q-65 0 -95.5 -45t-30.5 -122t30.5 -121.5t95.5 -44.5q72 0 107 62l58 -41q-24 -45 -67.5 -68.5t-102.5 -23.5q-102 0 -152 65t-50 172t50 173zM394 540h-74l-69 101l-67 -101h-74l101 156h81z
" />
    <glyph glyph-name="Cdotaccent" unicode="&#x10a;" horiz-adv-x="585" 
d="M187.5 138q46.5 -73 145.5 -73q49 0 89.5 23t60.5 63l67 -43q-29 -54 -86 -86t-133 -32q-139 0 -208.5 91t-69.5 256q0 166 69.5 257.5t208.5 91.5q76 0 133 -32t86 -86l-67 -43q-20 40 -60.5 63t-89.5 23q-100 0 -146 -73t-46 -201q0 -126 46.5 -199zM287 774
q-15 13 -15 41t15.5 42t40.5 14q24 0 40 -14t16 -42q0 -27 -16 -40.5t-40 -13.5q-26 0 -41 13z" />
    <glyph glyph-name="cdotaccent" unicode="&#x10b;" horiz-adv-x="447" 
d="M95 400q50 66 152 66q59 0 102.5 -23.5t67.5 -69.5l-58 -40q-36 61 -107 61q-65 0 -95.5 -45t-30.5 -122t30.5 -121.5t95.5 -44.5q72 0 107 62l58 -41q-24 -45 -67.5 -68.5t-102.5 -23.5q-102 0 -152 65t-50 172t50 173zM211 570q-15 13 -15 41t15.5 42t40.5 14
q24 0 40 -14t16 -42q0 -27 -16 -40.5t-40 -13.5q-26 0 -41 13z" />
    <glyph glyph-name="Ccaron" unicode="&#x10c;" horiz-adv-x="585" 
d="M187.5 138q46.5 -73 145.5 -73q49 0 89.5 23t60.5 63l67 -43q-29 -54 -86 -86t-133 -32q-139 0 -208.5 91t-69.5 256q0 166 69.5 257.5t208.5 91.5q76 0 133 -32t86 -86l-67 -43q-20 40 -60.5 63t-89.5 23q-100 0 -146 -73t-46 -201q0 -126 46.5 -199zM187 900h74
l68 -101l68 101h74l-102 -156h-81z" />
    <glyph glyph-name="ccaron" unicode="&#x10d;" horiz-adv-x="447" 
d="M95 400q50 66 152 66q59 0 102.5 -23.5t67.5 -69.5l-58 -40q-36 61 -107 61q-65 0 -95.5 -45t-30.5 -122t30.5 -121.5t95.5 -44.5q72 0 107 62l58 -41q-24 -45 -67.5 -68.5t-102.5 -23.5q-102 0 -152 65t-50 172t50 173zM110 696h74l68 -101l68 101h74l-102 -156h-81z
" />
    <glyph glyph-name="Dcaron" unicode="&#x10e;" horiz-adv-x="649" 
d="M273 676q117 0 187.5 -35t103 -108.5t32.5 -194.5q0 -120 -32.5 -194t-103 -109t-187.5 -35h-191v676h191zM413 99q51 26 72.5 82.5t21.5 156.5q0 98 -21.5 155t-73 83.5t-143.5 26.5h-101v-530h101q93 0 144 26zM159 900h74l68 -101l68 101h74l-102 -156h-81z" />
    <glyph glyph-name="dcaron" unicode="&#x10f;" horiz-adv-x="516" 
d="M448 690v-690h-77v43q-21 -24 -55.5 -38.5t-78.5 -14.5q-95 0 -143.5 63t-48.5 176q0 112 48.5 174.5t144.5 62.5q44 0 77.5 -15t53.5 -38v277h79zM255 64q40 0 69.5 15.5t44.5 39.5v218q-17 23 -45.5 39t-68.5 16q-69 0 -98.5 -42.5t-29.5 -120.5q0 -165 128 -165z
M496 542l25 148h91l-54 -148h-62z" />
    <glyph glyph-name="Dcroat" unicode="&#x110;" horiz-adv-x="656" 
d="M89 676h191q117 0 187.5 -35t103 -108.5t32.5 -194.5q0 -120 -32.5 -194t-103 -109t-187.5 -35h-191v316h-67v58h67v302zM420.5 99q51.5 26 73 82.5t21.5 156.5q0 98 -22 155t-73.5 83.5t-143.5 26.5h-101v-229h116v-58h-116v-243h101q93 0 144.5 26z" />
    <glyph glyph-name="dcroat" unicode="&#x111;" horiz-adv-x="517" 
d="M516 531h-68v-531h-77v43q-21 -24 -55.5 -38.5t-78.5 -14.5q-95 0 -143.5 63t-48.5 176q0 112 48.5 174.5t144.5 62.5q44 0 77.5 -15t53.5 -38v118h-104v63h104v96h79v-96h68v-63zM369 337q-17 23 -45.5 39t-68.5 16q-69 0 -98.5 -42.5t-29.5 -120.5q0 -165 128 -165
q40 0 69.5 15.5t44.5 39.5v218z" />
    <glyph glyph-name="Emacron" unicode="&#x112;" horiz-adv-x="538" 
d="M492 0h-410v676h406v-73h-320v-221h284v-73h-284v-236h324v-73zM427 779h-281v66h281v-66z" />
    <glyph glyph-name="emacron" unicode="&#x113;" horiz-adv-x="471" 
d="M319.5 71.5q34.5 12.5 58.5 36.5l40 -54q-24 -26 -69 -45t-95 -19q-108 0 -158.5 64t-50.5 175q0 104 51 170.5t149 66.5q61 0 102 -26.5t61 -70.5t20 -95q0 -33 -6 -71h-297q2 -68 33 -106t96 -38q31 0 65.5 12.5zM352 284q0 52 -28.5 83.5t-78.5 31.5
q-58 0 -86.5 -36.5t-32.5 -98.5h224zM390 575h-281v66h281v-66z" />
    <glyph glyph-name="Ebreve" unicode="&#x114;" horiz-adv-x="538" 
d="M492 0h-410v676h406v-73h-320v-221h284v-73h-284v-236h324v-73zM386.5 787.5q-37.5 -38.5 -101.5 -38.5q-62 0 -99 38.5t-37 99.5h56q2 -34 23.5 -55.5t56.5 -21.5q36 0 57.5 21.5t23.5 55.5h58q0 -61 -37.5 -99.5z" />
    <glyph glyph-name="ebreve" unicode="&#x115;" horiz-adv-x="471" 
d="M319.5 71.5q34.5 12.5 58.5 36.5l40 -54q-24 -26 -69 -45t-95 -19q-108 0 -158.5 64t-50.5 175q0 104 51 170.5t149 66.5q61 0 102 -26.5t61 -70.5t20 -95q0 -33 -6 -71h-297q2 -68 33 -106t96 -38q31 0 65.5 12.5zM352 284q0 52 -28.5 83.5t-78.5 31.5
q-58 0 -86.5 -36.5t-32.5 -98.5h224zM349.5 583.5q-37.5 -38.5 -101.5 -38.5q-62 0 -99 38.5t-37 99.5h56q2 -34 23.5 -55.5t56.5 -21.5q36 0 57.5 21.5t23.5 55.5h58q0 -61 -37.5 -99.5z" />
    <glyph glyph-name="Edotaccent" unicode="&#x116;" horiz-adv-x="538" 
d="M492 0h-410v676h406v-73h-320v-221h284v-73h-284v-236h324v-73zM245 774q-15 13 -15 41t15.5 42t40.5 14q24 0 40 -14t16 -42q0 -27 -16 -40.5t-40 -13.5q-26 0 -41 13z" />
    <glyph glyph-name="edotaccent" unicode="&#x117;" horiz-adv-x="471" 
d="M319.5 71.5q34.5 12.5 58.5 36.5l40 -54q-24 -26 -69 -45t-95 -19q-108 0 -158.5 64t-50.5 175q0 104 51 170.5t149 66.5q61 0 102 -26.5t61 -70.5t20 -95q0 -33 -6 -71h-297q2 -68 33 -106t96 -38q31 0 65.5 12.5zM352 284q0 52 -28.5 83.5t-78.5 31.5
q-58 0 -86.5 -36.5t-32.5 -98.5h224zM207 570q-15 13 -15 41t15.5 42t40.5 14q24 0 40 -14t16 -42q0 -27 -16 -40.5t-40 -13.5q-26 0 -41 13z" />
    <glyph glyph-name="Eogonek" unicode="&#x118;" horiz-adv-x="538" 
d="M492 73v-73h-1l-74 -58q-33 -27 -33 -54q0 -16 12 -27.5t32 -11.5q28 0 63 26v-69q-40 -22 -83 -22q-49 0 -77.5 24.5t-28.5 65.5q0 52 54 96l38 30h-312v676h406v-73h-320v-221h284v-73h-284v-236h324z" />
    <glyph glyph-name="eogonek" unicode="&#x119;" horiz-adv-x="471" 
d="M422 203h-297q2 -68 33 -106t96 -38q31 0 65.5 12.5t58.5 36.5l40 -54l-86 -94q-23 -23 -32 -40t-9 -32q0 -16 12 -27.5t32 -11.5q14 0 31.5 7t32.5 19v-69q-40 -22 -83 -22q-49 0 -77.5 24.5t-28.5 65.5q0 28 16.5 55.5t53.5 61.5l8 1q-24 -2 -34 -2q-107 0 -158 64
t-51 175q0 104 51 170.5t149 66.5q61 0 102 -26.5t61 -70.5t20 -95q0 -33 -6 -71zM352 284q0 52 -28.5 83.5t-78.5 31.5q-58 0 -86.5 -36.5t-32.5 -98.5h224z" />
    <glyph glyph-name="Ecaron" unicode="&#x11a;" horiz-adv-x="538" 
d="M492 0h-410v676h406v-73h-320v-221h284v-73h-284v-236h324v-73zM144 900h74l68 -101l68 101h74l-102 -156h-81z" />
    <glyph glyph-name="ecaron" unicode="&#x11b;" horiz-adv-x="471" 
d="M319.5 71.5q34.5 12.5 58.5 36.5l40 -54q-24 -26 -69 -45t-95 -19q-108 0 -158.5 64t-50.5 175q0 104 51 170.5t149 66.5q61 0 102 -26.5t61 -70.5t20 -95q0 -33 -6 -71h-297q2 -68 33 -106t96 -38q31 0 65.5 12.5zM352 284q0 52 -28.5 83.5t-78.5 31.5
q-58 0 -86.5 -36.5t-32.5 -98.5h224zM107 696h74l68 -101l68 101h74l-102 -156h-81z" />
    <glyph glyph-name="Gcircumflex" unicode="&#x11c;" horiz-adv-x="640" 
d="M593 361q4 -30 4 -49q0 -145 -62.5 -233.5t-198.5 -88.5q-141 0 -212 88.5t-71 259.5q0 348 295 348q76 0 130 -30t84 -84l-65 -44q-27 42 -62.5 62.5t-89.5 20.5q-110 0 -157 -71t-47 -202q0 -137 46 -205.5t148 -68.5q92 0 133.5 60.5t41.5 162.5h-168v74h251zM486 744
h-74l-69 101l-67 -101h-74l101 156h81z" />
    <glyph glyph-name="gcircumflex" unicode="&#x11d;" horiz-adv-x="512" 
d="M445 -35q0 -48 -23 -86.5t-66.5 -60.5t-101.5 -22q-57 0 -97.5 19t-61 50t-20.5 69h72q0 -28 29.5 -50t77.5 -22q52 0 81.5 28t29.5 72v85q-21 -26 -54 -41.5t-71 -15.5q-98 0 -146.5 63t-48.5 175t49 175t145 63q82 0 129 -54v44h77v-491zM156 108q29 -44 98 -44
q35 0 64.5 15.5t46.5 39.5v218q-16 22 -43.5 38.5t-67.5 16.5q-69 0 -98 -43t-29 -121q0 -76 29 -120zM403 540h-74l-69 101l-67 -101h-74l101 156h81z" />
    <glyph glyph-name="Gbreve" unicode="&#x11e;" horiz-adv-x="640" 
d="M593 361q4 -30 4 -49q0 -145 -62.5 -233.5t-198.5 -88.5q-141 0 -212 88.5t-71 259.5q0 348 295 348q76 0 130 -30t84 -84l-65 -44q-27 42 -62.5 62.5t-89.5 20.5q-110 0 -157 -71t-47 -202q0 -137 46 -205.5t148 -68.5q92 0 133.5 60.5t41.5 162.5h-168v74h251z
M444.5 787.5q-37.5 -38.5 -101.5 -38.5q-62 0 -99 38.5t-37 99.5h56q2 -34 23.5 -55.5t56.5 -21.5q36 0 57.5 21.5t23.5 55.5h58q0 -61 -37.5 -99.5z" />
    <glyph glyph-name="gbreve" unicode="&#x11f;" horiz-adv-x="512" 
d="M445 -35q0 -48 -23 -86.5t-66.5 -60.5t-101.5 -22q-57 0 -97.5 19t-61 50t-20.5 69h72q0 -28 29.5 -50t77.5 -22q52 0 81.5 28t29.5 72v85q-21 -26 -54 -41.5t-71 -15.5q-98 0 -146.5 63t-48.5 175t49 175t145 63q82 0 129 -54v44h77v-491zM156 108q29 -44 98 -44
q35 0 64.5 15.5t46.5 39.5v218q-16 22 -43.5 38.5t-67.5 16.5q-69 0 -98 -43t-29 -121q0 -76 29 -120zM361.5 583.5q-37.5 -38.5 -101.5 -38.5q-62 0 -99 38.5t-37 99.5h56q2 -34 23.5 -55.5t56.5 -21.5q36 0 57.5 21.5t23.5 55.5h58q0 -61 -37.5 -99.5z" />
    <glyph glyph-name="Gdotaccent" unicode="&#x120;" horiz-adv-x="640" 
d="M593 361q4 -30 4 -49q0 -145 -62.5 -233.5t-198.5 -88.5q-141 0 -212 88.5t-71 259.5q0 348 295 348q76 0 130 -30t84 -84l-65 -44q-27 42 -62.5 62.5t-89.5 20.5q-110 0 -157 -71t-47 -202q0 -137 46 -205.5t148 -68.5q92 0 133.5 60.5t41.5 162.5h-168v74h251zM302 774
q-15 13 -15 41t15.5 42t40.5 14q24 0 40 -14t16 -42q0 -27 -16 -40.5t-40 -13.5q-26 0 -41 13z" />
    <glyph glyph-name="gdotaccent" unicode="&#x121;" horiz-adv-x="512" 
d="M445 -35q0 -48 -23 -86.5t-66.5 -60.5t-101.5 -22q-57 0 -97.5 19t-61 50t-20.5 69h72q0 -28 29.5 -50t77.5 -22q52 0 81.5 28t29.5 72v85q-21 -26 -54 -41.5t-71 -15.5q-98 0 -146.5 63t-48.5 175t49 175t145 63q82 0 129 -54v44h77v-491zM156 108q29 -44 98 -44
q35 0 64.5 15.5t46.5 39.5v218q-16 22 -43.5 38.5t-67.5 16.5q-69 0 -98 -43t-29 -121q0 -76 29 -120zM219 570q-15 13 -15 41t15.5 42t40.5 14q24 0 40 -14t16 -42q0 -27 -16 -40.5t-40 -13.5q-26 0 -41 13z" />
    <glyph glyph-name="uni0122" unicode="&#x122;" horiz-adv-x="640" 
d="M593 361q4 -30 4 -49q0 -145 -62.5 -233.5t-198.5 -88.5q-141 0 -212 88.5t-71 259.5q0 348 295 348q76 0 130 -30t84 -84l-65 -44q-27 42 -62.5 62.5t-89.5 20.5q-110 0 -157 -71t-47 -202q0 -137 46 -205.5t148 -68.5q92 0 133.5 60.5t41.5 162.5h-168v74h251z
M277 -216l25 148h91l-54 -148h-62z" />
    <glyph glyph-name="uni0123" unicode="&#x123;" horiz-adv-x="512" 
d="M334 727l-26 -175h-92l54 175h64zM445 -35q0 -48 -23 -86.5t-66.5 -60.5t-101.5 -22q-57 0 -97.5 19t-61 50t-20.5 69h72q0 -28 29.5 -50t77.5 -22q52 0 81.5 28t29.5 72v85q-21 -26 -54 -41.5t-71 -15.5q-98 0 -146.5 63t-48.5 175t49 175t145 63q82 0 129 -54v44h77
v-491zM156 108q29 -44 98 -44q35 0 64.5 15.5t46.5 39.5v218q-16 22 -43.5 38.5t-67.5 16.5q-69 0 -98 -43t-29 -121q0 -76 29 -120z" />
    <glyph glyph-name="Hcircumflex" unicode="&#x124;" horiz-adv-x="675" 
d="M593 676v-676h-86v318h-339v-318h-86v676h86v-285h339v285h86zM480 744h-74l-69 101l-67 -101h-74l101 156h81z" />
    <glyph glyph-name="hcircumflex" unicode="&#x125;" horiz-adv-x="519" 
d="M148 690v-284q21 26 60.5 43t86.5 17q83 0 121.5 -44t38.5 -131v-291h-79v284q0 55 -24 81.5t-81 26.5q-38 0 -71 -15t-52 -38v-339h-80v690h80zM412 733h-74l-69 101l-67 -101h-74l101 156h81z" />
    <glyph glyph-name="Hbar" unicode="&#x126;" horiz-adv-x="676" 
d="M646 507h-53v-507h-86v318h-339v-318h-86v507h-47v61h47v108h86v-108h339v108h86v-108h53v-61zM507 507h-339v-116h339v116z" />
    <glyph glyph-name="hbar" unicode="&#x127;" horiz-adv-x="519" 
d="M416.5 422q38.5 -44 38.5 -131v-291h-79v284q0 55 -24 81.5t-81 26.5q-38 0 -71 -15t-52 -38v-339h-80v531h-61v63h61v96h80v-96h110v-63h-110v-125q21 26 60.5 43t86.5 17q83 0 121.5 -44z" />
    <glyph glyph-name="Itilde" unicode="&#x128;" horiz-adv-x="249" 
d="M168 676v-676h-86v676h86zM195 802q-15 0 -28 -4t-37 -14q-24 -11 -40.5 -16t-36.5 -5t-39 7.5t-29 17.5l6 61q26 -24 62 -24q16 0 29.5 4t32.5 13q24 11 41 16t39 5t37.5 -6.5t32.5 -17.5l-6 -63q-33 26 -64 26z" />
    <glyph glyph-name="itilde" unicode="&#x129;" horiz-adv-x="216" 
d="M148 456v-456h-80v456h80zM178 598q-15 0 -28 -4t-37 -14q-24 -11 -40.5 -16t-36.5 -5t-39 7.5t-29 17.5l6 61q26 -24 62 -24q16 0 29.5 4t32.5 13q24 11 41 16t39 5t37.5 -6.5t32.5 -17.5l-6 -63q-33 26 -64 26z" />
    <glyph glyph-name="Imacron" unicode="&#x12a;" horiz-adv-x="249" 
d="M168 676v-676h-86v676h86zM266 779h-281v66h281v-66z" />
    <glyph glyph-name="imacron" unicode="&#x12b;" horiz-adv-x="216" 
d="M148 456v-456h-80v456h80zM249 575h-281v66h281v-66z" />
    <glyph glyph-name="Ibreve" unicode="&#x12c;" horiz-adv-x="249" 
d="M168 676v-676h-86v676h86zM225.5 787.5q-37.5 -38.5 -101.5 -38.5q-62 0 -99 38.5t-37 99.5h56q2 -34 23.5 -55.5t56.5 -21.5q36 0 57.5 21.5t23.5 55.5h58q0 -61 -37.5 -99.5z" />
    <glyph glyph-name="ibreve" unicode="&#x12d;" horiz-adv-x="216" 
d="M148 456v-456h-80v456h80zM208.5 583.5q-37.5 -38.5 -101.5 -38.5q-62 0 -99 38.5t-37 99.5h56q2 -34 23.5 -55.5t56.5 -21.5q36 0 57.5 21.5t23.5 55.5h58q0 -61 -37.5 -99.5z" />
    <glyph glyph-name="Iogonek" unicode="&#x12e;" horiz-adv-x="249" 
d="M60 -112q0 -16 12 -27.5t32 -11.5q14 0 31.5 7t32.5 19v-69q-40 -22 -83 -22q-49 0 -77.5 24.5t-28.5 65.5q0 53 54 96l49 39v667h86v-676l-75 -58q-33 -27 -33 -54z" />
    <glyph glyph-name="iogonek" unicode="&#x12f;" horiz-adv-x="216" 
d="M147 663q16 -14 16 -42q0 -27 -16 -40.5t-40 -13.5q-26 0 -41 13t-15 41t15.5 42t40.5 14q24 0 40 -14zM68 456h80v-456l-74 -58q-33 -27 -33 -54q0 -16 12 -27.5t32 -11.5q28 0 63 26v-69q-40 -22 -83 -22q-49 0 -77.5 24.5t-28.5 65.5q0 52 55 96l54 43v443z" />
    <glyph glyph-name="Idotaccent" unicode="&#x130;" horiz-adv-x="249" 
d="M168 676v-676h-86v676h86zM83 774q-15 13 -15 41t15.5 42t40.5 14q24 0 40 -14t16 -42q0 -27 -16 -40.5t-40 -13.5q-26 0 -41 13z" />
    <glyph glyph-name="dotlessi" unicode="&#x131;" horiz-adv-x="216" 
d="M148 456v-456h-80v456h80z" />
    <glyph glyph-name="IJ" unicode="&#x132;" horiz-adv-x="736" 
d="M168 676v-676h-86v676h86zM380.5 81.5q26.5 -16.5 67.5 -16.5q64 0 96 40t32 132v439h83v-441q0 -125 -55.5 -185t-155.5 -60q-63 0 -108 27.5t-69 75.5l64 41q19 -36 45.5 -52.5z" />
    <glyph glyph-name="ij" unicode="&#x133;" horiz-adv-x="433" 
d="M66 580q-15 13 -15 41t15.5 42t40.5 14q24 0 40 -14t16 -42q0 -27 -16 -40.5t-40 -13.5q-26 0 -41 13zM148 456v-456h-80v456h80zM282.5 580q-15.5 13 -15.5 41t16 42t41 14q23 0 39 -14.5t16 -41.5t-16 -40.5t-39 -13.5q-26 0 -41.5 13zM266 -116q18 32 18 89v483h80
v-471q0 -84 -29 -134t-92 -77l-42 56q47 22 65 54z" />
    <glyph glyph-name="Jcircumflex" unicode="&#x134;" horiz-adv-x="487" 
d="M131.5 81.5q26.5 -16.5 67.5 -16.5q64 0 96 40t32 132v439h83v-441q0 -125 -55.5 -185t-155.5 -60q-63 0 -108 27.5t-69 75.5l64 41q19 -36 45.5 -52.5zM511 744h-74l-69 101l-67 -101h-74l101 156h81z" />
    <glyph glyph-name="jcircumflex" unicode="&#x135;" horiz-adv-x="217" 
d="M251 540h-74l-69 101l-67 -101h-74l101 156h81zM50 -116q18 32 18 89v483h80v-471q0 -84 -29 -134t-92 -77l-43 56q48 22 66 54z" />
    <glyph glyph-name="uni0136" unicode="&#x136;" horiz-adv-x="605" 
d="M168 0h-86v676h86v-336l313 336h107l-257 -280l256 -396h-103l-214 335l-102 -106v-229zM218 -216l25 148h91l-54 -148h-62z" />
    <glyph glyph-name="uni0137" unicode="&#x137;" horiz-adv-x="473" 
d="M221 225l-73 -70v-155h-80v690h80v-439l211 205h102l-184 -176l179 -280h-92zM179 -216l25 148h91l-54 -148h-62z" />
    <glyph glyph-name="kgreenlandic" unicode="&#x138;" horiz-adv-x="472" 
d="M220 225l-73 -70v-155h-80v456h80v-205l212 205h101l-183 -176l178 -280h-91z" />
    <glyph glyph-name="Lacute" unicode="&#x139;" horiz-adv-x="476" 
d="M456 0h-374v676h86v-603h288v-73zM157 744h-75l76 156h86z" />
    <glyph glyph-name="lacute" unicode="&#x13a;" horiz-adv-x="234" 
d="M144 129q0 -30 10 -43.5t36 -13.5h25v-74h-47q-57 0 -80.5 31t-23.5 91v570h80v-561zM149 834h-75l76 156h86z" />
    <glyph glyph-name="uni013B" unicode="&#x13b;" horiz-adv-x="476" 
d="M456 0h-374v676h86v-603h288v-73zM199 -216l25 148h91l-54 -148h-62z" />
    <glyph glyph-name="uni013C" unicode="&#x13c;" horiz-adv-x="234" 
d="M144 129q0 -30 10 -43.5t36 -13.5h25v-74h-47q-57 0 -80.5 31t-23.5 91v570h80v-561zM74 -216l25 148h91l-54 -148h-62z" />
    <glyph glyph-name="Lcaron" unicode="&#x13d;" horiz-adv-x="476" 
d="M456 0h-374v676h86v-603h288v-73zM390 528l25 148h91l-54 -148h-62z" />
    <glyph glyph-name="lcaron" unicode="&#x13e;" horiz-adv-x="234" 
d="M144 129q0 -30 10 -43.5t36 -13.5h25v-74h-47q-57 0 -80.5 31t-23.5 91v570h80v-561zM202 542l25 148h91l-54 -148h-62z" />
    <glyph glyph-name="Ldot" unicode="&#x13f;" horiz-adv-x="508" 
d="M456 0h-374v676h86v-603h288v-73zM325 329q-18 18 -18 44q0 27 18 44.5t46 17.5q27 0 45 -17.5t18 -44.5q0 -26 -18 -44t-45 -18q-28 0 -46 18z" />
    <glyph glyph-name="ldot" unicode="&#x140;" horiz-adv-x="366" 
d="M144 129q0 -30 10 -43.5t36 -13.5h25v-74h-47q-57 0 -80.5 31t-23.5 91v570h80v-561zM242 322q-18 18 -18 44q0 27 18 44.5t46 17.5q27 0 45 -17.5t18 -44.5q0 -26 -18 -44t-45 -18q-28 0 -46 18z" />
    <glyph glyph-name="Lslash" unicode="&#x141;" horiz-adv-x="497" 
d="M22 291l80 35v350h86v-313l91 38v-66l-91 -38v-224h289v-73h-375v259l-80 -34v66z" />
    <glyph glyph-name="lslash" unicode="&#x142;" horiz-adv-x="261" 
d="M166 343v-214q0 -30 10 -43.5t36 -13.5h25v-74h-47q-57 0 -80.5 31t-23.5 91v188l-62 -27v67l62 27v315h80v-280l72 32v-67z" />
    <glyph glyph-name="Nacute" unicode="&#x143;" horiz-adv-x="680" 
d="M598 676v-676h-90l-340 540v-540h-87l1 676h92l338 -537l1 537h85zM372 744h-75l76 156h86z" />
    <glyph glyph-name="nacute" unicode="&#x144;" horiz-adv-x="518" 
d="M145 456v-55q21 29 61 47t89 18q83 0 121.5 -44t38.5 -131v-291h-80v284q0 55 -23.5 81.5t-80.5 26.5q-39 0 -71.5 -14.5t-52.5 -38.5v-339h-80v456h78zM291 540h-75l76 156h86z" />
    <glyph glyph-name="uni0145" unicode="&#x145;" horiz-adv-x="680" 
d="M598 676v-676h-90l-340 540v-540h-87l1 676h92l338 -537l1 537h85zM276 -216l25 148h91l-54 -148h-62z" />
    <glyph glyph-name="uni0146" unicode="&#x146;" horiz-adv-x="518" 
d="M145 456v-55q21 29 61 47t89 18q83 0 121.5 -44t38.5 -131v-291h-80v284q0 55 -23.5 81.5t-80.5 26.5q-39 0 -71.5 -14.5t-52.5 -38.5v-339h-80v456h78zM191 -216l25 148h91l-54 -148h-62z" />
    <glyph glyph-name="Ncaron" unicode="&#x147;" horiz-adv-x="680" 
d="M598 676v-676h-90l-340 540v-540h-87l1 676h92l338 -537l1 537h85zM198 900h74l68 -101l68 101h74l-102 -156h-81z" />
    <glyph glyph-name="ncaron" unicode="&#x148;" horiz-adv-x="518" 
d="M145 456v-55q21 29 61 47t89 18q83 0 121.5 -44t38.5 -131v-291h-80v284q0 55 -23.5 81.5t-80.5 26.5q-39 0 -71.5 -14.5t-52.5 -38.5v-339h-80v456h78zM118 696h74l68 -101l68 101h74l-102 -156h-81z" />
    <glyph glyph-name="napostrophe" unicode="&#x149;" horiz-adv-x="518" 
d="M145 456v-55q21 29 61 47t89 18q83 0 121.5 -44t38.5 -131v-291h-80v284q0 55 -23.5 81.5t-80.5 26.5q-39 0 -71.5 -14.5t-52.5 -38.5v-339h-80v456h78zM-20 548l25 148h91l-54 -148h-62z" />
    <glyph glyph-name="Eng" unicode="&#x14a;" horiz-adv-x="679" 
d="M493.5 -115q17.5 31 17.5 88v19l-344 548v-540h-87l1 676h92l338 -537v537h86v-691q0 -84 -29 -134t-93 -77l-45 59q46 21 63.5 52z" />
    <glyph glyph-name="eng" unicode="&#x14b;" horiz-adv-x="518" 
d="M145 456v-55q21 29 61 47t88 18q83 0 121.5 -44t38.5 -131v-306q0 -84 -28.5 -134t-91.5 -77l-43 56q48 22 66 54t18 89v311q0 55 -24 81.5t-81 26.5q-38 0 -71 -15t-52 -38v-339h-80v456h78z" />
    <glyph glyph-name="Omacron" unicode="&#x14c;" horiz-adv-x="656" 
d="M536.5 83.5q-67.5 -93.5 -209.5 -93.5t-208 93t-66 254q0 162 66 255.5t209 93.5t209.5 -94t66.5 -255q0 -160 -67.5 -253.5zM183 135.5q42 -70.5 144 -70.5q104 0 146.5 70.5t42.5 201.5t-42.5 202.5t-145.5 71.5q-101 0 -144 -72t-43 -202q0 -131 42 -201.5zM469 779
h-281v66h281v-66z" />
    <glyph glyph-name="omacron" unicode="&#x14d;" horiz-adv-x="500" 
d="M405 401.5q51 -64.5 51 -172.5q0 -110 -51 -174.5t-157 -64.5q-100 0 -151.5 65t-51.5 173t51 173t155 65q103 0 154 -64.5zM374 228q0 165 -125 165q-63 0 -93 -43t-30 -121q0 -80 30 -123t93 -43q125 0 125 165zM391 575h-281v66h281v-66z" />
    <glyph glyph-name="Obreve" unicode="&#x14e;" horiz-adv-x="656" 
d="M536.5 83.5q-67.5 -93.5 -209.5 -93.5t-208 93t-66 254q0 162 66 255.5t209 93.5t209.5 -94t66.5 -255q0 -160 -67.5 -253.5zM183 135.5q42 -70.5 144 -70.5q104 0 146.5 70.5t42.5 201.5t-42.5 202.5t-145.5 71.5q-101 0 -144 -72t-43 -202q0 -131 42 -201.5z
M428.5 787.5q-37.5 -38.5 -101.5 -38.5q-62 0 -99 38.5t-37 99.5h56q2 -34 23.5 -55.5t56.5 -21.5q36 0 57.5 21.5t23.5 55.5h58q0 -61 -37.5 -99.5z" />
    <glyph glyph-name="obreve" unicode="&#x14f;" horiz-adv-x="500" 
d="M405 401.5q51 -64.5 51 -172.5q0 -110 -51 -174.5t-157 -64.5q-100 0 -151.5 65t-51.5 173t51 173t155 65q103 0 154 -64.5zM374 228q0 165 -125 165q-63 0 -93 -43t-30 -121q0 -80 30 -123t93 -43q125 0 125 165zM350.5 583.5q-37.5 -38.5 -101.5 -38.5q-62 0 -99 38.5
t-37 99.5h56q2 -34 23.5 -55.5t56.5 -21.5q36 0 57.5 21.5t23.5 55.5h58q0 -61 -37.5 -99.5z" />
    <glyph glyph-name="Ohungarumlaut" unicode="&#x150;" horiz-adv-x="656" 
d="M536.5 83.5q-67.5 -93.5 -209.5 -93.5t-208 93t-66 254q0 162 66 255.5t209 93.5t209.5 -94t66.5 -255q0 -160 -67.5 -253.5zM183 135.5q42 -70.5 144 -70.5q104 0 146.5 70.5t42.5 201.5t-42.5 202.5t-145.5 71.5q-101 0 -144 -72t-43 -202q0 -131 42 -201.5zM278 744
h-75l76 156h86zM434 744h-75l76 156h86z" />
    <glyph glyph-name="ohungarumlaut" unicode="&#x151;" horiz-adv-x="500" 
d="M405 401.5q51 -64.5 51 -172.5q0 -110 -51 -174.5t-157 -64.5q-100 0 -151.5 65t-51.5 173t51 173t155 65q103 0 154 -64.5zM374 228q0 165 -125 165q-63 0 -93 -43t-30 -121q0 -80 30 -123t93 -43q125 0 125 165zM200 540h-75l76 156h86zM356 540h-75l76 156h86z" />
    <glyph glyph-name="OE" unicode="&#x152;" horiz-adv-x="877" 
d="M830 0h-409q-43 -10 -94 -10q-142 0 -208 93t-66 254q0 162 66 255.5t209 93.5q47 0 94 -10h404v-73h-320v-221h284v-73h-284v-236h324v-73zM420 79v516q-43 16 -92 16q-101 0 -143.5 -72t-42.5 -202q0 -132 41.5 -202t143.5 -70q51 0 93 14z" />
    <glyph glyph-name="oe" unicode="&#x153;" horiz-adv-x="804" 
d="M652.5 71.5q34.5 12.5 58.5 36.5l40 -54q-23 -26 -68.5 -45t-95.5 -19q-123 0 -171 93q-46 -93 -168 -93q-100 0 -151.5 65t-51.5 173t51 173t155 65q118 0 167 -95q22 45 62.5 70t98.5 25q90 0 136 -55.5t46 -136.5q0 -42 -6 -71h-297q2 -68 33.5 -106t95.5 -38
q31 0 65.5 12.5zM685 284q0 52 -28.5 83.5t-77.5 31.5q-59 0 -87.5 -36.5t-32.5 -98.5h224zM374 228q0 165 -125 165q-63 0 -93 -43t-30 -121q0 -80 30 -123t93 -43q125 0 125 165z" />
    <glyph glyph-name="Racute" unicode="&#x154;" horiz-adv-x="595" 
d="M316 676q115 0 173.5 -49t58.5 -139q0 -76 -45.5 -124t-128.5 -60l192 -304h-99l-182 297h-117l-1 -297h-85v676h234zM425 574q-35 29 -116 29h-141v-233h141q81 0 116 30t35 88q0 57 -35 86zM312 744h-75l76 156h86z" />
    <glyph glyph-name="racute" unicode="&#x155;" horiz-adv-x="342" 
d="M273 466q34 0 55 -7l-9 -84q-32 9 -61 9q-72 0 -111 -86v-298h-80v456h78v-75h1q43 85 127 85zM203 540h-75l76 156h86z" />
    <glyph glyph-name="uni0156" unicode="&#x156;" horiz-adv-x="595" 
d="M316 676q115 0 173.5 -49t58.5 -139q0 -76 -45.5 -124t-128.5 -60l192 -304h-99l-182 297h-117l-1 -297h-85v676h234zM425 574q-35 29 -116 29h-141v-233h141q81 0 116 30t35 88q0 57 -35 86zM218 -216l25 148h91l-54 -148h-62z" />
    <glyph glyph-name="uni0157" unicode="&#x157;" horiz-adv-x="342" 
d="M273 466q34 0 55 -7l-9 -84q-32 9 -61 9q-72 0 -111 -86v-298h-80v456h78v-75h1q43 85 127 85zM37 -216l25 148h91l-54 -148h-62z" />
    <glyph glyph-name="Rcaron" unicode="&#x158;" horiz-adv-x="595" 
d="M316 676q115 0 173.5 -49t58.5 -139q0 -76 -45.5 -124t-128.5 -60l192 -304h-99l-182 297h-117l-1 -297h-85v676h234zM425 574q-35 29 -116 29h-141v-233h141q81 0 116 30t35 88q0 57 -35 86zM138 900h74l68 -101l68 101h74l-102 -156h-81z" />
    <glyph glyph-name="rcaron" unicode="&#x159;" horiz-adv-x="342" 
d="M273 466q34 0 55 -7l-9 -84q-32 9 -61 9q-72 0 -111 -86v-298h-80v456h78v-75h1q43 85 127 85zM30 696h74l68 -101l68 101h74l-102 -156h-81z" />
    <glyph glyph-name="Sacute" unicode="&#x15a;" horiz-adv-x="545" 
d="M280 611q-62 0 -96 -33t-34 -84q0 -41 23 -64.5t73 -38.5l90 -27q80 -25 121.5 -66.5t41.5 -110.5q0 -58 -28 -103t-80 -69.5t-123 -24.5q-102 0 -154 37t-78 91l65 44q21 -46 57 -71.5t110 -25.5q69 0 105.5 31.5t36.5 85.5q0 42 -26.5 66t-76.5 39l-90 27
q-155 48 -155 176q0 53 24 97.5t73 71.5t121 27q77 0 130 -28t79 -71l-63 -47q-44 71 -146 71zM307 744h-75l76 156h86z" />
    <glyph glyph-name="sacute" unicode="&#x15b;" horiz-adv-x="430" 
d="M218 402q-44 0 -66 -19.5t-22 -49.5q0 -46 56 -60l78 -18q127 -30 127 -128q0 -60 -47 -98.5t-136 -38.5q-115 0 -174 76l49 49q24 -29 52 -45.5t76 -16.5q45 0 71.5 17.5t26.5 50.5q0 25 -17 39.5t-51 23.5l-80 19q-55 13 -83 45t-28 79q0 35 18 66.5t56 52t97 20.5
q56 0 96.5 -18.5t63.5 -45.5l-47 -49q-45 49 -116 49zM247 540h-75l76 156h86z" />
    <glyph glyph-name="Scircumflex" unicode="&#x15c;" horiz-adv-x="545" 
d="M280 611q-62 0 -96 -33t-34 -84q0 -41 23 -64.5t73 -38.5l90 -27q80 -25 121.5 -66.5t41.5 -110.5q0 -58 -28 -103t-80 -69.5t-123 -24.5q-102 0 -154 37t-78 91l65 44q21 -46 57 -71.5t110 -25.5q69 0 105.5 31.5t36.5 85.5q0 42 -26.5 66t-76.5 39l-90 27
q-155 48 -155 176q0 53 24 97.5t73 71.5t121 27q77 0 130 -28t79 -71l-63 -47q-44 71 -146 71zM417 744h-74l-69 101l-67 -101h-74l101 156h81z" />
    <glyph glyph-name="scircumflex" unicode="&#x15d;" horiz-adv-x="430" 
d="M218 402q-44 0 -66 -19.5t-22 -49.5q0 -46 56 -60l78 -18q127 -30 127 -128q0 -60 -47 -98.5t-136 -38.5q-115 0 -174 76l49 49q24 -29 52 -45.5t76 -16.5q45 0 71.5 17.5t26.5 50.5q0 25 -17 39.5t-51 23.5l-80 19q-55 13 -83 45t-28 79q0 35 18 66.5t56 52t97 20.5
q56 0 96.5 -18.5t63.5 -45.5l-47 -49q-45 49 -116 49zM357 540h-74l-69 101l-67 -101h-74l101 156h81z" />
    <glyph glyph-name="Scedilla" unicode="&#x15e;" horiz-adv-x="545" 
d="M443.5 50q-55.5 -53 -152.5 -59l-17 -45q41 0 66.5 -19.5t25.5 -61.5q0 -34 -27.5 -57.5t-75.5 -23.5q-43 0 -87 22v58q18 -13 39 -20.5t42 -7.5q20 0 31 8t11 21q0 19 -14 26.5t-41 7.5h-35l-4 6l29 86q-84 7 -129.5 42.5t-68.5 84.5l65 44q21 -46 57 -71.5t110 -25.5
q69 0 105.5 31.5t36.5 85.5q0 42 -26.5 66t-76.5 39l-90 27q-155 48 -155 176q0 53 24 97.5t73 71.5t121 27q77 0 130 -28t79 -71l-63 -47q-44 71 -146 71q-62 0 -96 -33t-34 -84q0 -41 23 -64.5t73 -38.5l90 -27q80 -25 121.5 -66.5t41.5 -110.5q0 -84 -55.5 -137z" />
    <glyph glyph-name="scedilla" unicode="&#x15f;" horiz-adv-x="430" 
d="M352.5 35.5q-38.5 -37.5 -112.5 -44.5l-18 -45q41 0 66.5 -19.5t25.5 -61.5q0 -34 -27.5 -57.5t-75.5 -23.5q-43 0 -87 22v58q18 -13 39 -20.5t42 -7.5q20 0 31 8t11 21q0 19 -14 26.5t-41 7.5h-35l-4 6l29 86q-54 5 -90.5 26t-57.5 49l49 49q24 -29 52 -45.5t76 -16.5
q45 0 71.5 17.5t26.5 50.5q0 25 -17 39.5t-51 23.5l-80 19q-55 13 -83 45t-28 79q0 35 18 66.5t56 52t97 20.5q56 0 96.5 -18.5t63.5 -45.5l-47 -49q-45 49 -116 49q-44 0 -66 -19.5t-22 -49.5q0 -46 56 -60l78 -18q127 -30 127 -128q0 -54 -38.5 -91.5z" />
    <glyph glyph-name="Scaron" unicode="&#x160;" horiz-adv-x="545" 
d="M280 611q-62 0 -96 -33t-34 -84q0 -41 23 -64.5t73 -38.5l90 -27q80 -25 121.5 -66.5t41.5 -110.5q0 -58 -28 -103t-80 -69.5t-123 -24.5q-102 0 -154 37t-78 91l65 44q21 -46 57 -71.5t110 -25.5q69 0 105.5 31.5t36.5 85.5q0 42 -26.5 66t-76.5 39l-90 27
q-155 48 -155 176q0 53 24 97.5t73 71.5t121 27q77 0 130 -28t79 -71l-63 -47q-44 71 -146 71zM133 900h74l68 -101l68 101h74l-102 -156h-81z" />
    <glyph glyph-name="scaron" unicode="&#x161;" horiz-adv-x="430" 
d="M218 402q-44 0 -66 -19.5t-22 -49.5q0 -46 56 -60l78 -18q127 -30 127 -128q0 -60 -47 -98.5t-136 -38.5q-115 0 -174 76l49 49q24 -29 52 -45.5t76 -16.5q45 0 71.5 17.5t26.5 50.5q0 25 -17 39.5t-51 23.5l-80 19q-55 13 -83 45t-28 79q0 35 18 66.5t56 52t97 20.5
q56 0 96.5 -18.5t63.5 -45.5l-47 -49q-45 49 -116 49zM73 696h74l68 -101l68 101h74l-102 -156h-81z" />
    <glyph glyph-name="uni0162" unicode="&#x162;" horiz-adv-x="538" 
d="M298 0l-21 -54q41 0 66.5 -19.5t25.5 -61.5q0 -34 -27.5 -57.5t-75.5 -23.5q-44 0 -86 22v58q17 -13 38.5 -20.5t42.5 -7.5q20 0 30.5 8t10.5 21q0 19 -13.5 26.5t-40.5 7.5h-35l-4 6l32 95h-15v603h-194v73h475v-73h-195v-603h-14z" />
    <glyph glyph-name="uni0163" unicode="&#x163;" horiz-adv-x="339" 
d="M279.5 -73.5q25.5 -19.5 25.5 -61.5q0 -34 -27.5 -57.5t-75.5 -23.5q-43 0 -87 22v58q18 -13 39.5 -20.5t42.5 -7.5q19 0 30 8t11 21q0 19 -13.5 26.5t-40.5 7.5h-36l-4 6l32 92q-70 26 -70 126v264h-87v59l87 10v114l79 15v-129h122v-69h-122v-255q0 -68 62 -68
q29 0 62 14l8 -69q-39 -18 -87 -19l-17 -44q41 0 66.5 -19.5z" />
    <glyph glyph-name="Tcaron" unicode="&#x164;" horiz-adv-x="538" 
d="M507 603h-195v-603h-86v603h-194v73h475v-73zM127 900h74l68 -101l68 101h74l-102 -156h-81z" />
    <glyph glyph-name="tcaron" unicode="&#x165;" horiz-adv-x="339" 
d="M247 64q29 0 62 14l8 -69q-40 -19 -93 -19q-60 0 -89 35t-29 98v264h-87v59l87 10v114l79 15v-129h122v-69h-122v-255q0 -68 62 -68zM296 542l25 148h91l-54 -148h-62z" />
    <glyph glyph-name="Tbar" unicode="&#x166;" horiz-adv-x="543" 
d="M312 603v-236h92v-62h-92v-305h-86v305h-89v62h89v236h-194v73h475v-73h-195z" />
    <glyph glyph-name="tbar" unicode="&#x167;" horiz-adv-x="343" 
d="M317 9q-40 -19 -93 -19q-60 0 -89 35t-29 98v93h-68v63h68v108h-87v59l87 10v114l79 15v-129h122v-69h-122v-108h103v-63h-103v-84q0 -68 62 -68q29 0 62 14z" />
    <glyph glyph-name="Utilde" unicode="&#x168;" horiz-adv-x="651" 
d="M142.5 53.5q-66.5 63.5 -66.5 198.5v424h86v-425q0 -98 40.5 -142t122.5 -44q81 0 122 44.5t41 141.5v425h86v-424q0 -136 -66.5 -199t-182.5 -63t-182.5 63.5zM396 802q-15 0 -28 -4t-37 -14q-24 -11 -40.5 -16t-36.5 -5t-39 7.5t-29 17.5l6 61q26 -24 62 -24
q16 0 29.5 4t32.5 13q24 11 41 16t39 5t37.5 -6.5t32.5 -17.5l-6 -63q-33 26 -64 26z" />
    <glyph glyph-name="utilde" unicode="&#x169;" horiz-adv-x="518" 
d="M373 0v55q-21 -29 -61 -47t-89 -18q-83 0 -121.5 44t-38.5 131v291h80v-284q0 -55 23.5 -81.5t80.5 -26.5q39 0 71.5 14.5t52.5 38.5v339h80v-456h-78zM330 598q-15 0 -28 -4t-37 -14q-24 -11 -40.5 -16t-36.5 -5t-39 7.5t-29 17.5l6 61q26 -24 62 -24q16 0 29.5 4
t32.5 13q24 11 41 16t39 5t37.5 -6.5t32.5 -17.5l-6 -63q-33 26 -64 26z" />
    <glyph glyph-name="Umacron" unicode="&#x16a;" horiz-adv-x="651" 
d="M142.5 53.5q-66.5 63.5 -66.5 198.5v424h86v-425q0 -98 40.5 -142t122.5 -44q81 0 122 44.5t41 141.5v425h86v-424q0 -136 -66.5 -199t-182.5 -63t-182.5 63.5zM467 779h-281v66h281v-66z" />
    <glyph glyph-name="umacron" unicode="&#x16b;" horiz-adv-x="518" 
d="M400 575h-281v66h281v-66zM373 0v55q-21 -29 -61 -47t-89 -18q-83 0 -121.5 44t-38.5 131v291h80v-284q0 -55 23.5 -81.5t80.5 -26.5q39 0 71.5 14.5t52.5 38.5v339h80v-456h-78z" />
    <glyph glyph-name="Ubreve" unicode="&#x16c;" horiz-adv-x="651" 
d="M142.5 53.5q-66.5 63.5 -66.5 198.5v424h86v-425q0 -98 40.5 -142t122.5 -44q81 0 122 44.5t41 141.5v425h86v-424q0 -136 -66.5 -199t-182.5 -63t-182.5 63.5zM426.5 787.5q-37.5 -38.5 -101.5 -38.5q-62 0 -99 38.5t-37 99.5h56q2 -34 23.5 -55.5t56.5 -21.5
q36 0 57.5 21.5t23.5 55.5h58q0 -61 -37.5 -99.5z" />
    <glyph glyph-name="ubreve" unicode="&#x16d;" horiz-adv-x="518" 
d="M360.5 583.5q-37.5 -38.5 -101.5 -38.5q-62 0 -99 38.5t-37 99.5h56q2 -34 23.5 -55.5t56.5 -21.5q36 0 57.5 21.5t23.5 55.5h58q0 -61 -37.5 -99.5zM373 0v55q-21 -29 -61 -47t-89 -18q-83 0 -121.5 44t-38.5 131v291h80v-284q0 -55 23.5 -81.5t80.5 -26.5
q39 0 71.5 14.5t52.5 38.5v339h80v-456h-78z" />
    <glyph glyph-name="Uring" unicode="&#x16e;" horiz-adv-x="651" 
d="M142.5 53.5q-66.5 63.5 -66.5 198.5v424h86v-425q0 -98 40.5 -142t122.5 -44q81 0 122 44.5t41 141.5v425h86v-424q0 -136 -66.5 -199t-182.5 -63t-182.5 63.5zM250 894q28 27 75 27q49 0 77.5 -27t28.5 -68q0 -40 -28.5 -67.5t-77.5 -27.5q-47 0 -75 27.5t-28 67.5
q0 41 28 68zM288.5 791.5q13.5 -13.5 36.5 -13.5q25 0 39 13.5t14 34.5q0 22 -14 35.5t-39 13.5q-23 0 -36.5 -13.5t-13.5 -35.5q0 -21 13.5 -34.5z" />
    <glyph glyph-name="uring" unicode="&#x16f;" horiz-adv-x="518" 
d="M180 690q28 27 75 27q49 0 77.5 -27t28.5 -68q0 -40 -28.5 -67.5t-77.5 -27.5q-47 0 -75 27.5t-28 67.5q0 41 28 68zM218.5 587.5q13.5 -13.5 36.5 -13.5q25 0 39 13.5t14 34.5q0 22 -14 35.5t-39 13.5q-23 0 -36.5 -13.5t-13.5 -35.5q0 -21 13.5 -34.5zM373 0v55
q-21 -29 -61 -47t-89 -18q-83 0 -121.5 44t-38.5 131v291h80v-284q0 -55 23.5 -81.5t80.5 -26.5q39 0 71.5 14.5t52.5 38.5v339h80v-456h-78z" />
    <glyph glyph-name="Uhungarumlaut" unicode="&#x170;" horiz-adv-x="651" 
d="M142.5 53.5q-66.5 63.5 -66.5 198.5v424h86v-425q0 -98 40.5 -142t122.5 -44q81 0 122 44.5t41 141.5v425h86v-424q0 -136 -66.5 -199t-182.5 -63t-182.5 63.5zM276 744h-75l76 156h86zM432 744h-75l76 156h86z" />
    <glyph glyph-name="uhungarumlaut" unicode="&#x171;" horiz-adv-x="518" 
d="M209 540h-75l76 156h86zM365 540h-75l76 156h86zM373 0v55q-21 -29 -61 -47t-89 -18q-83 0 -121.5 44t-38.5 131v291h80v-284q0 -55 23.5 -81.5t80.5 -26.5q39 0 71.5 14.5t52.5 38.5v339h80v-456h-78z" />
    <glyph glyph-name="Uogonek" unicode="&#x172;" horiz-adv-x="651" 
d="M574 676v-424q0 -120 -52 -183t-146 -76l-66 -51q-33 -27 -33 -54q0 -16 12 -27.5t32 -11.5q14 0 31.5 7t32.5 19v-69q-40 -22 -83 -22q-49 0 -77.5 24.5t-28.5 65.5q0 53 54 96l28 23q-95 11 -148.5 74.5t-53.5 184.5v424h86v-425q0 -98 40.5 -142t122.5 -44
q81 0 122 44.5t41 141.5v425h86z" />
    <glyph glyph-name="uogonek" unicode="&#x173;" horiz-adv-x="518" 
d="M343 -112q0 -16 12 -27.5t32 -11.5q14 0 31.5 7t32.5 19v-69q-40 -22 -83 -22q-49 0 -77.5 24.5t-28.5 65.5q0 53 54 96l57 46v39q-21 -29 -61 -47t-89 -18q-83 0 -121.5 44t-38.5 131v291h80v-284q0 -55 23.5 -81.5t80.5 -26.5q39 0 71.5 14.5t52.5 38.5v339h80v-456
l-75 -58q-33 -27 -33 -54z" />
    <glyph glyph-name="Wcircumflex" unicode="&#x174;" horiz-adv-x="968" 
d="M697 100l159 576h91l-194 -676h-107l-162 558l-162 -558h-107l-194 676h91l159 -576l163 576h100zM626 744h-74l-69 101l-67 -101h-74l101 156h81z" />
    <glyph glyph-name="wcircumflex" unicode="&#x175;" horiz-adv-x="757" 
d="M536 87l114 369h85l-149 -456h-89l-118 354l-119 -354h-89l-148 456h84l114 -369l118 369h79zM521 540h-74l-69 101l-67 -101h-74l101 156h81z" />
    <glyph glyph-name="Ycircumflex" unicode="&#x176;" horiz-adv-x="574" 
d="M244 270l-231 406h96l179 -326l177 326h97l-232 -406v-270h-86v270zM429 744h-74l-69 101l-67 -101h-74l101 156h81z" />
    <glyph glyph-name="ycircumflex" unicode="&#x177;" horiz-adv-x="480" 
d="M376 456h88l-277 -672h-84l104 245l-192 427h90l143 -333zM382 540h-74l-69 101l-67 -101h-74l101 156h81z" />
    <glyph glyph-name="Ydieresis" unicode="&#x178;" horiz-adv-x="574" 
d="M244 270l-231 406h96l179 -326l177 326h97l-232 -406v-270h-86v270zM155 774q-15 13 -15 41t15.5 42t40.5 14q24 0 40 -14t16 -42q0 -27 -16 -40.5t-40 -13.5q-26 0 -41 13zM324 815q0 28 15 42t40 14q24 0 40 -14t16 -42q0 -27 -16 -40.5t-40 -13.5q-55 0 -55 54z" />
    <glyph glyph-name="Zacute" unicode="&#x179;" horiz-adv-x="515" 
d="M138 73h337v-73h-440v64l332 539h-313v73h414v-65zM293 744h-75l76 156h86z" />
    <glyph glyph-name="zacute" unicode="&#x17a;" horiz-adv-x="411" 
d="M138 70h231v-70h-331v56l229 330h-218v70h317v-56zM237 540h-75l76 156h86z" />
    <glyph glyph-name="Zdotaccent" unicode="&#x17b;" horiz-adv-x="515" 
d="M138 73h337v-73h-440v64l332 539h-313v73h414v-65zM219 774q-15 13 -15 41t15.5 42t40.5 14q24 0 40 -14t16 -42q0 -27 -16 -40.5t-40 -13.5q-26 0 -41 13z" />
    <glyph glyph-name="zdotaccent" unicode="&#x17c;" horiz-adv-x="411" 
d="M138 70h231v-70h-331v56l229 330h-218v70h317v-56zM164 570q-15 13 -15 41t15.5 42t40.5 14q24 0 40 -14t16 -42q0 -27 -16 -40.5t-40 -13.5q-26 0 -41 13z" />
    <glyph glyph-name="Zcaron" unicode="&#x17d;" horiz-adv-x="515" 
d="M138 73h337v-73h-440v64l332 539h-313v73h414v-65zM119 900h74l68 -101l68 101h74l-102 -156h-81z" />
    <glyph glyph-name="zcaron" unicode="&#x17e;" horiz-adv-x="411" 
d="M138 70h231v-70h-331v56l229 330h-218v70h317v-56zM64 696h74l68 -101l68 101h74l-102 -156h-81z" />
    <glyph glyph-name="florin" unicode="&#x192;" horiz-adv-x="347" 
d="M173.5 -182.5q-33.5 -43.5 -102.5 -43.5q-38 0 -65 9v72q24 -7 52 -7q39 0 54.5 23t15.5 69v445h-97v70h97v91q0 68 33.5 111t104.5 43q33 0 62 -9v-72q-31 7 -52 7q-38 0 -53.5 -22.5t-15.5 -68.5v-80h105v-70h-105v-457q0 -67 -33.5 -110.5z" />
    <glyph glyph-name="uni01D3" unicode="&#x1d3;" horiz-adv-x="651" 
d="M142.5 53.5q-66.5 63.5 -66.5 198.5v424h86v-425q0 -98 40.5 -142t122.5 -44q81 0 122 44.5t41 141.5v425h86v-424q0 -136 -66.5 -199t-182.5 -63t-182.5 63.5zM184 900h74l68 -101l68 101h74l-102 -156h-81z" />
    <glyph glyph-name="uni01D4" unicode="&#x1d4;" horiz-adv-x="518" 
d="M373 0v55q-21 -29 -61 -47t-89 -18q-83 0 -121.5 44t-38.5 131v291h80v-284q0 -55 23.5 -81.5t80.5 -26.5q39 0 71.5 14.5t52.5 38.5v339h80v-456h-78zM118 696h74l68 -101l68 101h74l-102 -156h-81z" />
    <glyph glyph-name="Gcaron" unicode="&#x1e6;" horiz-adv-x="640" 
d="M593 361q4 -30 4 -49q0 -145 -62.5 -233.5t-198.5 -88.5q-141 0 -212 88.5t-71 259.5q0 348 295 348q76 0 130 -30t84 -84l-65 -44q-27 42 -62.5 62.5t-89.5 20.5q-110 0 -157 -71t-47 -202q0 -137 46 -205.5t148 -68.5q92 0 133.5 60.5t41.5 162.5h-168v74h251zM202 900
h74l68 -101l68 101h74l-102 -156h-81z" />
    <glyph glyph-name="gcaron" unicode="&#x1e7;" horiz-adv-x="512" 
d="M445 -35q0 -48 -23 -86.5t-66.5 -60.5t-101.5 -22q-57 0 -97.5 19t-61 50t-20.5 69h72q0 -28 29.5 -50t77.5 -22q52 0 81.5 28t29.5 72v85q-21 -26 -54 -41.5t-71 -15.5q-98 0 -146.5 63t-48.5 175t49 175t145 63q82 0 129 -54v44h77v-491zM156 108q29 -44 98 -44
q35 0 64.5 15.5t46.5 39.5v218q-16 22 -43.5 38.5t-67.5 16.5q-69 0 -98 -43t-29 -121q0 -76 29 -120zM126 696h74l68 -101l68 101h74l-102 -156h-81z" />
    <glyph glyph-name="Aringacute" unicode="&#x1fa;" horiz-adv-x="610" 
d="M224.5 870.5q21.5 24.5 57.5 30.5l56 80h82l-68 -86q28 -11 43 -33.5t15 -51.5q0 -40 -28.5 -67t-76.5 -27q-47 0 -74.5 27t-27.5 67q0 36 21.5 60.5zM268 775q14 -14 37 -14q25 0 39 13.5t14 35.5t-14 36t-39 14q-24 0 -37.5 -14t-13.5 -36q0 -21 14 -35zM165 178
l-61 -178h-92l242 676h102l244 -676h-94l-61 178h-280zM422 250l-116 338l-118 -338h234z" />
    <glyph glyph-name="aringacute" unicode="&#x1fb;" horiz-adv-x="470" 
d="M161.5 674q22.5 26 61.5 31l49 73h80l-64 -81q27 -10 42.5 -32.5t15.5 -52.5q0 -40 -28.5 -67t-76.5 -27q-47 0 -74.5 27t-27.5 67q0 36 22.5 62zM204 577q14 -14 37 -14q25 0 39 13.5t14 35.5t-14 36t-39 14q-24 0 -37.5 -14t-13.5 -36q0 -21 14 -35zM330 56
q-23 -28 -62 -47t-91 -19q-65 0 -101.5 34t-36.5 95q0 67 54.5 102t154.5 45l78 8v45q0 41 -21 61t-74 20q-46 0 -70 -15t-24 -41v-26h-71q-3 17 -3 33q0 52 45 83.5t127 31.5q84 0 127.5 -36.5t43.5 -109.5v-320h-76v56zM140.5 72q20.5 -18 59.5 -18q37 0 70 15.5t56 40.5
v109l-75 -9q-64 -9 -97.5 -29.5t-33.5 -57.5q0 -33 20.5 -51z" />
    <glyph glyph-name="AEacute" unicode="&#x1fc;" horiz-adv-x="940" 
d="M670 744h-75l76 156h86zM453 676h437v-73h-320v-221h285v-73h-285v-239h324v-70h-410v178h-271l-120 -178h-94zM484 594l-227 -345h227v345z" />
    <glyph glyph-name="aeacute" unicode="&#x1fd;" horiz-adv-x="753" 
d="M601 71.5q34 12.5 59 36.5l40 -54q-24 -27 -69 -45.5t-96 -18.5q-118 0 -167 81q-31 -36 -77.5 -58.5t-104.5 -22.5q-71 0 -109.5 34t-38.5 95q0 67 55 102t155 45l78 8v45q0 41 -21.5 61t-73.5 20q-47 0 -71 -15t-24 -41v-26h-71q-2 22 -2 33q0 52 44.5 83.5t127.5 31.5
q111 0 147 -70q49 70 145 70q61 0 102 -26.5t61 -70.5t20 -95q0 -38 -7 -71h-296q2 -68 33 -106t95 -38q32 0 66 12.5zM634 284q0 52 -28.5 83.5t-78.5 31.5q-59 0 -87.5 -36.5t-31.5 -98.5h224zM140 72q20 -18 60 -18q37 0 70 15.5t56 40.5v109l-76 -9q-64 -9 -97 -29.5
t-33 -57.5q0 -33 20 -51zM429 540h-75l76 156h86z" />
    <glyph glyph-name="Oslashacute" unicode="&#x1fe;" horiz-adv-x="659" 
d="M537.5 83.5q-67.5 -93.5 -209.5 -93.5q-111 0 -177 60l-38 -50h-76l73 96q-56 88 -56 241q0 162 66 255.5t209 93.5q111 0 180 -64l40 54h79l-78 -102q55 -88 55 -237q0 -160 -67.5 -253.5zM169 174l291 384q-47 53 -131 53q-101 0 -144 -72t-43 -202q0 -102 27 -163z
M490 496l-290 -381q45 -50 128 -50q104 0 146.5 70.5t42.5 201.5q0 99 -27 159zM361 744h-75l76 156h86z" />
    <glyph glyph-name="oslashacute" unicode="&#x1ff;" horiz-adv-x="500" 
d="M411 393q45 -61 45 -164q0 -110 -51 -174.5t-157 -64.5q-72 0 -119 35l-19 -25h-67l48 62q-46 62 -46 166q0 108 51 173t155 65q73 0 121 -34l19 24h69zM143 130l182 240q-29 23 -76 23q-63 0 -93 -43t-30 -121q0 -61 17 -99zM359 324l-183 -238q28 -23 73 -23
q125 0 125 165q0 57 -15 96zM280 540h-75l76 156h86z" />
    <glyph glyph-name="uni0218" unicode="&#x218;" horiz-adv-x="545" 
d="M280 611q-62 0 -96 -33t-34 -84q0 -41 23 -64.5t73 -38.5l90 -27q80 -25 121.5 -66.5t41.5 -110.5q0 -58 -28 -103t-80 -69.5t-123 -24.5q-102 0 -154 37t-78 91l65 44q21 -46 57 -71.5t110 -25.5q69 0 105.5 31.5t36.5 85.5q0 42 -26.5 66t-76.5 39l-90 27
q-155 48 -155 176q0 53 24 97.5t73 71.5t121 27q77 0 130 -28t79 -71l-63 -47q-44 71 -146 71zM208 -216l25 148h91l-54 -148h-62z" />
    <glyph glyph-name="uni0219" unicode="&#x219;" horiz-adv-x="430" 
d="M218 402q-44 0 -66 -19.5t-22 -49.5q0 -46 56 -60l78 -18q127 -30 127 -128q0 -60 -47 -98.5t-136 -38.5q-115 0 -174 76l49 49q24 -29 52 -45.5t76 -16.5q45 0 71.5 17.5t26.5 50.5q0 25 -17 39.5t-51 23.5l-80 19q-55 13 -83 45t-28 79q0 35 18 66.5t56 52t97 20.5
q56 0 96.5 -18.5t63.5 -45.5l-47 -49q-45 49 -116 49zM153 -216l25 148h91l-54 -148h-62z" />
    <glyph glyph-name="uni021A" unicode="&#x21a;" horiz-adv-x="538" 
d="M507 603h-195v-603h-86v603h-194v73h475v-73zM198 -216l25 148h91l-54 -148h-62z" />
    <glyph glyph-name="uni021B" unicode="&#x21b;" horiz-adv-x="339" 
d="M247 64q29 0 62 14l8 -69q-40 -19 -93 -19q-60 0 -89 35t-29 98v264h-87v59l87 10v114l79 15v-129h122v-69h-122v-255q0 -68 62 -68zM131 -216l25 148h91l-54 -148h-62z" />
    <glyph glyph-name="uni021E" unicode="&#x21e;" horiz-adv-x="675" 
d="M593 676v-676h-86v318h-339v-318h-86v676h86v-285h339v285h86zM196 900h74l68 -101l68 101h74l-102 -156h-81z" />
    <glyph glyph-name="uni021F" unicode="&#x21f;" horiz-adv-x="519" 
d="M148 690v-284q21 26 60.5 43t86.5 17q83 0 121.5 -44t38.5 -131v-291h-79v284q0 55 -24 81.5t-81 26.5q-38 0 -71 -15t-52 -38v-339h-80v690h80zM128 889h74l68 -101l68 101h74l-102 -156h-81z" />
    <glyph glyph-name="uni0237" unicode="&#x237;" horiz-adv-x="216" 
d="M50 -116q18 32 18 89v483h80v-471q0 -84 -29 -134t-92 -77l-43 56q48 22 66 54z" />
    <glyph glyph-name="uni02BB" unicode="&#x2bb;" horiz-adv-x="213" 
d="M164 676l-25 -224h-91l54 224h62z" />
    <glyph glyph-name="uni02BC" unicode="&#x2bc;" horiz-adv-x="208" 
d="M55 452l25 224h91l-53 -224h-63z" />
    <glyph glyph-name="circumflex" unicode="&#x2c6;" horiz-adv-x="600" 
d="M442 540h-74l-69 101l-67 -101h-74l101 156h81z" />
    <glyph glyph-name="caron" unicode="&#x2c7;" horiz-adv-x="600" 
d="M158 696h74l68 -101l68 101h74l-102 -156h-81z" />
    <glyph glyph-name="breve" unicode="&#x2d8;" horiz-adv-x="600" 
d="M399.5 583.5q-37.5 -38.5 -101.5 -38.5q-62 0 -99 38.5t-37 99.5h56q2 -34 23.5 -55.5t56.5 -21.5q36 0 57.5 21.5t23.5 55.5h58q0 -61 -37.5 -99.5z" />
    <glyph glyph-name="dotaccent" unicode="&#x2d9;" horiz-adv-x="600" 
d="M258 570q-15 13 -15 41t15.5 42t40.5 14q24 0 40 -14t16 -42q0 -27 -16 -40.5t-40 -13.5q-26 0 -41 13z" />
    <glyph glyph-name="ring" unicode="&#x2da;" horiz-adv-x="600" 
d="M223 690q28 27 75 27q49 0 77.5 -27t28.5 -68q0 -40 -28.5 -67.5t-77.5 -27.5q-47 0 -75 27.5t-28 67.5q0 41 28 68zM261.5 587.5q13.5 -13.5 36.5 -13.5q25 0 39 13.5t14 34.5q0 22 -14 35.5t-39 13.5q-23 0 -36.5 -13.5t-13.5 -35.5q0 -21 13.5 -34.5z" />
    <glyph glyph-name="ogonek" unicode="&#x2db;" horiz-adv-x="600" 
d="M286 -112q0 -16 12 -27.5t32 -11.5q14 0 31.5 7t32.5 19v-69q-40 -22 -83 -22q-49 0 -77.5 24.5t-28.5 65.5q0 53 54 96l60 48l75 -18l-75 -58q-33 -27 -33 -54z" />
    <glyph glyph-name="tilde" unicode="&#x2dc;" horiz-adv-x="600" 
d="M369 598q-15 0 -28 -4t-37 -14q-24 -11 -40.5 -16t-36.5 -5t-39 7.5t-29 17.5l6 61q26 -24 62 -24q16 0 29.5 4t32.5 13q24 11 41 16t39 5t37.5 -6.5t32.5 -17.5l-6 -63q-33 26 -64 26z" />
    <glyph glyph-name="hungarumlaut" unicode="&#x2dd;" horiz-adv-x="600" 
d="M216 540h-75l76 156h86zM372 540h-75l76 156h86z" />
    <glyph glyph-name="gravecomb" unicode="&#x300;" horiz-adv-x="0" 
d="M-213 540h-75l-87 156h86z" />
    <glyph glyph-name="acutecomb" unicode="&#x301;" horiz-adv-x="0" 
d="M-308 540h-75l76 156h86z" />
    <glyph glyph-name="uni0302" unicode="&#x302;" horiz-adv-x="0" 
d="M-158 540h-74l-69 101l-67 -101h-74l101 156h81z" />
    <glyph glyph-name="tildecomb" unicode="&#x303;" horiz-adv-x="0" 
d="M-231 598q-15 0 -28 -4t-37 -14q-24 -11 -40.5 -16t-36.5 -5t-39 7.5t-29 17.5l6 61q26 -24 62 -24q16 0 29.5 4t32.5 13q24 11 41 16t39 5t37.5 -6.5t32.5 -17.5l-6 -63q-33 26 -64 26z" />
    <glyph glyph-name="uni0304" unicode="&#x304;" horiz-adv-x="0" 
d="M-160 575h-281v66h281v-66z" />
    <glyph glyph-name="uni0306" unicode="&#x306;" horiz-adv-x="0" 
d="M-200.5 583.5q-37.5 -38.5 -101.5 -38.5q-62 0 -99 38.5t-37 99.5h56q2 -34 23.5 -55.5t56.5 -21.5q36 0 57.5 21.5t23.5 55.5h58q0 -61 -37.5 -99.5z" />
    <glyph glyph-name="uni0307" unicode="&#x307;" horiz-adv-x="0" 
d="M-342 570q-15 13 -15 41t15.5 42t40.5 14q24 0 40 -14t16 -42q0 -27 -16 -40.5t-40 -13.5q-26 0 -41 13z" />
    <glyph glyph-name="uni0308" unicode="&#x308;" horiz-adv-x="0" 
d="M-433 570q-15 13 -15 41t15.5 42t40.5 14q24 0 40 -14t16 -42q0 -27 -16 -40.5t-40 -13.5q-26 0 -41 13zM-264 611q0 28 15 42t40 14q24 0 40 -14t16 -42q0 -27 -16 -40.5t-40 -13.5q-55 0 -55 54z" />
    <glyph glyph-name="uni030A" unicode="&#x30a;" horiz-adv-x="0" 
d="M-377 690q28 27 75 27q49 0 77.5 -27t28.5 -68q0 -40 -28.5 -67.5t-77.5 -27.5q-47 0 -75 27.5t-28 67.5q0 41 28 68zM-338.5 587.5q13.5 -13.5 36.5 -13.5q25 0 39 13.5t14 34.5q0 22 -14 35.5t-39 13.5q-23 0 -36.5 -13.5t-13.5 -35.5q0 -21 13.5 -34.5z" />
    <glyph glyph-name="uni030B" unicode="&#x30b;" horiz-adv-x="0" 
d="M-384 540h-75l76 156h86zM-228 540h-75l76 156h86z" />
    <glyph glyph-name="uni030C" unicode="&#x30c;" horiz-adv-x="0" 
d="M-442 696h74l68 -101l68 101h74l-102 -156h-81z" />
    <glyph glyph-name="dotbelowcomb" unicode="&#x323;" horiz-adv-x="0" 
d="M-342 -160q-15 13 -15 41t15.5 42t40.5 14q24 0 40 -14t16 -42q0 -27 -16 -40.5t-40 -13.5q-26 0 -41 13z" />
    <glyph glyph-name="uni0326" unicode="&#x326;" horiz-adv-x="0" 
d="M-356 -216l25 148h87l-52 -148h-60z" />
    <glyph glyph-name="uni0327" unicode="&#x327;" horiz-adv-x="0" 
d="M-288 -54q41 0 66.5 -19.5t25.5 -61.5q0 -34 -27.5 -57.5t-75.5 -23.5q-43 0 -87 22v58q18 -13 39.5 -20.5t42.5 -7.5q19 0 30 8t11 21q0 19 -13.5 26.5t-40.5 7.5h-36l-4 6l35 101l55 -6z" />
    <glyph glyph-name="uni0328" unicode="&#x328;" horiz-adv-x="0" 
d="M-314 -112q0 -16 12 -27.5t32 -11.5q14 0 31.5 7t32.5 19v-69q-40 -22 -83 -22q-49 0 -77.5 24.5t-28.5 65.5q0 53 54 96l60 48l75 -18l-75 -58q-33 -27 -33 -54z" />
    <glyph glyph-name="uni037E" unicode="&#x37e;" horiz-adv-x="240" 
d="M78.5 364q-17.5 17 -17.5 43q0 25 17.5 42t43.5 17t43.5 -17t17.5 -42q0 -26 -17.5 -43t-43.5 -17t-43.5 17zM55 -112l25 224h91l-53 -224h-63z" />
    <glyph glyph-name="tonos" unicode="&#x384;" horiz-adv-x="600" 
d="M307 540h-73l32 156h84z" />
    <glyph glyph-name="dieresistonos" unicode="&#x385;" horiz-adv-x="600" 
d="M324 524h-68l17 172h75zM135 570q-15 13 -15 41t15.5 42t40.5 14q23 0 39 -14.5t16 -41.5t-16 -40.5t-39 -13.5q-26 0 -41 13zM367 611q0 28 15 42t40 14q24 0 40 -14t16 -42q0 -27 -16 -40.5t-40 -13.5q-55 0 -55 54z" />
    <glyph glyph-name="Alphatonos" unicode="&#x386;" horiz-adv-x="610" 
d="M165 178l-61 -178h-92l242 676h102l244 -676h-94l-61 178h-280zM422 250l-116 338l-118 -338h234zM117 540h-73l32 156h84z" />
    <glyph glyph-name="anoteleia" unicode="&#x387;" horiz-adv-x="244" 
d="M76 227q-18 18 -18 44q0 27 18 44.5t46 17.5q27 0 45 -17.5t18 -44.5q0 -26 -18 -44t-45 -18q-28 0 -46 18z" />
    <glyph glyph-name="Epsilontonos" unicode="&#x388;" horiz-adv-x="538" 
d="M492 0h-410v676h406v-73h-320v-221h284v-73h-284v-236h324v-73zM1 540h-73l32 156h84z" />
    <glyph glyph-name="Etatonos" unicode="&#x389;" horiz-adv-x="675" 
d="M593 676v-676h-86v318h-339v-318h-86v676h86v-285h339v285h86zM1 540h-73l32 156h84z" />
    <glyph glyph-name="Iotatonos" unicode="&#x38a;" horiz-adv-x="249" 
d="M168 676v-676h-86v676h86zM1 540h-73l32 156h84z" />
    <glyph glyph-name="Omicrontonos" unicode="&#x38c;" horiz-adv-x="656" 
d="M536.5 83.5q-67.5 -93.5 -209.5 -93.5t-208 93t-66 254q0 162 66 255.5t209 93.5t209.5 -94t66.5 -255q0 -160 -67.5 -253.5zM183 135.5q42 -70.5 144 -70.5q104 0 146.5 70.5t42.5 201.5t-42.5 202.5t-145.5 71.5q-101 0 -144 -72t-43 -202q0 -131 42 -201.5zM17 540
h-73l32 156h84z" />
    <glyph glyph-name="Upsilontonos" unicode="&#x38e;" horiz-adv-x="574" 
d="M244 270l-231 406h96l179 -326l177 326h97l-232 -406v-270h-86v270zM-39 524h-73l32 156h84z" />
    <glyph glyph-name="Omegatonos" unicode="&#x38f;" horiz-adv-x="672" 
d="M620 73v-73h-245v70q66 42 107.5 118.5t41.5 177.5q0 112 -46.5 178.5t-142.5 66.5q-95 0 -141 -67t-46 -178q0 -101 41.5 -177.5t108.5 -118.5v-70h-245v73h135q-55 42 -91.5 120.5t-36.5 175.5q0 88 29 159.5t90.5 114.5t155.5 43q95 0 157.5 -43t91.5 -114.5
t29 -159.5q0 -96 -37 -175t-92 -121h136zM37 540h-73l32 156h84z" />
    <glyph glyph-name="iotadieresistonos" unicode="&#x390;" horiz-adv-x="224" 
d="M143 127q0 -29 8.5 -43t31.5 -14q8 0 22 2v-72q-20 -4 -45 -4q-51 0 -74 30t-23 92v338h80v-329zM128 519h-68l17 172h75zM-61 565q-15 13 -15 41t15.5 42t40.5 14q23 0 39 -14.5t16 -41.5t-16 -40.5t-39 -13.5q-26 0 -41 13zM171 606q0 28 15 42t40 14q24 0 40 -14
t16 -42q0 -27 -16 -40.5t-40 -13.5q-55 0 -55 54z" />
    <glyph glyph-name="Alpha" unicode="&#x391;" horiz-adv-x="610" 
d="M165 178l-61 -178h-92l242 676h102l244 -676h-94l-61 178h-280zM422 250l-116 338l-118 -338h234z" />
    <glyph glyph-name="Beta" unicode="&#x392;" horiz-adv-x="583" 
d="M294 676q104 0 156 -45t52 -126q0 -61 -28 -99.5t-77 -50.5q60 -11 99.5 -53t39.5 -115q0 -98 -60.5 -142.5t-174.5 -44.5h-219v676h212zM413 499q0 104 -132 104h-113v-217h113q132 0 132 113zM410 101.5q37 28.5 37 90.5q0 57 -37.5 89t-116.5 32h-125v-240h124
q81 0 118 28.5z" />
    <glyph glyph-name="Gamma" unicode="&#x393;" horiz-adv-x="512" 
d="M481 676v-73h-313v-603h-86v676h399z" />
    <glyph glyph-name="uni0394" unicode="&#x394;" horiz-adv-x="648" 
d="M637 0h-625l261 676h103zM126 73h396l-198 522z" />
    <glyph glyph-name="Epsilon" unicode="&#x395;" horiz-adv-x="538" 
d="M492 0h-410v676h406v-73h-320v-221h284v-73h-284v-236h324v-73z" />
    <glyph glyph-name="Zeta" unicode="&#x396;" horiz-adv-x="515" 
d="M138 73h337v-73h-440v64l332 539h-313v73h414v-65z" />
    <glyph glyph-name="Eta" unicode="&#x397;" horiz-adv-x="675" 
d="M593 676v-676h-86v318h-339v-318h-86v676h86v-285h339v285h86z" />
    <glyph glyph-name="Theta" unicode="&#x398;" horiz-adv-x="656" 
d="M536.5 83.5q-67.5 -93.5 -209.5 -93.5t-208 93t-66 254q0 162 66 255.5t209 93.5t209.5 -94t66.5 -255q0 -160 -67.5 -253.5zM183 135.5q42 -70.5 144 -70.5q104 0 146.5 70.5t42.5 201.5t-42.5 202.5t-145.5 71.5q-101 0 -144 -72t-43 -202q0 -131 42 -201.5zM448 311
h-240v66h240v-66z" />
    <glyph glyph-name="Iota" unicode="&#x399;" horiz-adv-x="249" 
d="M168 676v-676h-86v676h86z" />
    <glyph glyph-name="Kappa" unicode="&#x39a;" horiz-adv-x="605" 
d="M168 0h-86v676h86v-336l313 336h107l-257 -280l256 -396h-103l-214 335l-102 -106v-229z" />
    <glyph glyph-name="Lambda" unicode="&#x39b;" horiz-adv-x="596" 
d="M244 676h109l227 -676h-91l-191 586l-190 -586h-92z" />
    <glyph glyph-name="Mu" unicode="&#x39c;" horiz-adv-x="859" 
d="M725 676l87 -676h-83l-71 574l-183 -574h-93l-180 574l-73 -574h-84l91 676h118l176 -567l181 567h114z" />
    <glyph glyph-name="Nu" unicode="&#x39d;" horiz-adv-x="680" 
d="M598 676v-676h-90l-340 540v-540h-87l1 676h92l338 -537l1 537h85z" />
    <glyph glyph-name="Xi" unicode="&#x39e;" horiz-adv-x="497" 
d="M450 676v-73h-403v73h403zM423 383v-73h-349v73h349zM450 73v-73h-403v73h403z" />
    <glyph glyph-name="Omicron" unicode="&#x39f;" horiz-adv-x="656" 
d="M536.5 83.5q-67.5 -93.5 -209.5 -93.5t-208 93t-66 254q0 162 66 255.5t209 93.5t209.5 -94t66.5 -255q0 -160 -67.5 -253.5zM183 135.5q42 -70.5 144 -70.5q104 0 146.5 70.5t42.5 201.5t-42.5 202.5t-145.5 71.5q-101 0 -144 -72t-43 -202q0 -131 42 -201.5z" />
    <glyph glyph-name="Pi" unicode="&#x3a0;" horiz-adv-x="659" 
d="M578 0h-86v603h-324v-603h-86v676h496v-676z" />
    <glyph glyph-name="Rho" unicode="&#x3a1;" horiz-adv-x="563" 
d="M168 0h-86v676h215q114 0 170.5 -53.5t56.5 -151.5q0 -97 -57 -151t-170 -54h-129v-266zM292 339q77 0 110.5 34.5t33.5 97.5q0 132 -144 132h-124v-264h124z" />
    <glyph glyph-name="Sigma" unicode="&#x3a3;" horiz-adv-x="471" 
d="M35 0v87l199 258l-198 244v87h408v-73h-319l208 -258l-209 -273h321v-72h-410z" />
    <glyph glyph-name="Tau" unicode="&#x3a4;" horiz-adv-x="538" 
d="M507 603h-195v-603h-86v603h-194v73h475v-73z" />
    <glyph glyph-name="Upsilon" unicode="&#x3a5;" horiz-adv-x="574" 
d="M244 270l-231 406h96l179 -326l177 326h97l-232 -406v-270h-86v270z" />
    <glyph glyph-name="Phi" unicode="&#x3a6;" horiz-adv-x="734" 
d="M618 131q-68 -77 -208 -79v-72h-86v72q-139 1 -207.5 77t-68.5 208q0 131 67.5 208.5t208.5 78.5v72h86v-72q141 -1 208.5 -78.5t67.5 -208.5q0 -129 -68 -206zM180 183.5q44 -54.5 144 -55.5v420q-188 -3 -188 -211q0 -99 44 -153.5zM554 183.5q44 54.5 44 153.5
t-44 154.5t-144 56.5v-420q100 1 144 55.5z" />
    <glyph glyph-name="Chi" unicode="&#x3a7;" horiz-adv-x="574" 
d="M287 408l162 268h99l-204 -327l214 -349h-99l-172 285l-171 -285h-100l214 349l-203 327h98z" />
    <glyph glyph-name="Psi" unicode="&#x3a8;" horiz-adv-x="752" 
d="M684 676v-246q0 -136 -68.5 -198.5t-196.5 -63.5v-168h-86v168q-128 1 -196 63.5t-68 198.5v246h86v-247q0 -98 42.5 -141.5t135.5 -44.5v433h86v-433q93 1 136 44.5t43 141.5v247h86z" />
    <glyph glyph-name="uni03A9" unicode="&#x3a9;" horiz-adv-x="657" 
d="M612 73v-73h-245v70q66 42 107.5 118.5t41.5 177.5q0 112 -46.5 178.5t-142.5 66.5q-95 0 -141 -67t-46 -178q0 -101 41.5 -177.5t108.5 -118.5v-70h-245v73h135q-55 42 -91.5 120.5t-36.5 175.5q0 88 29 159.5t90.5 114.5t155.5 43q95 0 157.5 -43t91.5 -114.5
t29 -159.5q0 -96 -37 -175t-92 -121h136z" />
    <glyph glyph-name="Iotadieresis" unicode="&#x3aa;" horiz-adv-x="249" 
d="M168 676v-676h-86v676h86zM-8 774q-15 13 -15 41t15.5 42t40.5 14q24 0 40 -14t16 -42q0 -27 -16 -40.5t-40 -13.5q-26 0 -41 13zM161 815q0 28 15 42t40 14q24 0 40 -14t16 -42q0 -27 -16 -40.5t-40 -13.5q-55 0 -55 54z" />
    <glyph glyph-name="Upsilondieresis" unicode="&#x3ab;" horiz-adv-x="574" 
d="M244 270l-231 406h96l179 -326l177 326h97l-232 -406v-270h-86v270zM155 774q-15 13 -15 41t15.5 42t40.5 14q24 0 40 -14t16 -42q0 -27 -16 -40.5t-40 -13.5q-26 0 -41 13zM324 815q0 28 15 42t40 14q24 0 40 -14t16 -42q0 -27 -16 -40.5t-40 -13.5q-55 0 -55 54z" />
    <glyph glyph-name="alphatonos" unicode="&#x3ac;" horiz-adv-x="523" 
d="M504 74v-72q-19 -4 -42 -4q-38 0 -58.5 16t-28.5 50q-20 -34 -55 -54t-83 -20q-96 0 -144 62.5t-48 176.5q0 112 48.5 174.5t146.5 62.5q43 0 74.5 -18.5t51.5 -50.5v59h80v-327q0 -29 7.5 -43t29.5 -14q7 0 21 2zM367 228q0 165 -121 165q-61 0 -90.5 -43t-29.5 -121
q0 -80 29 -123t90 -43q122 0 122 165zM292 535h-73l32 156h84z" />
    <glyph glyph-name="epsilontonos" unicode="&#x3ad;" horiz-adv-x="425" 
d="M69 272.5q-24 29.5 -24 65.5t22 64.5t61.5 45t91.5 16.5q85 0 130 -35.5t45 -93.5h-76q0 30 -26 46t-70 16q-42 0 -69.5 -17.5t-27.5 -48.5q0 -32 31.5 -49t77.5 -17h72v-65h-72q-51 0 -84 -18t-33 -51q0 -34 29 -53t76 -19t75 16t28 47h76q0 -59 -47 -94t-137 -35
q-82 0 -131 36t-49 95q0 41 26.5 71t60.5 38q-32 10 -56 39.5zM246 535h-73l32 156h84z" />
    <glyph glyph-name="etatonos" unicode="&#x3ae;" horiz-adv-x="518" 
d="M67 456h78v-55q21 29 61 47t89 18q83 0 121.5 -44t38.5 -131v-507h-80v500q0 55 -23.5 81.5t-80.5 26.5q-39 0 -71.5 -14.5t-52.5 -38.5v-339h-80v456zM292 535h-73l32 156h84z" />
    <glyph glyph-name="iotatonos" unicode="&#x3af;" horiz-adv-x="224" 
d="M143 127q0 -29 8.5 -43t31.5 -14q8 0 22 2v-72q-20 -4 -45 -4q-51 0 -74 30t-23 92v338h80v-329zM136 535h-73l32 156h84z" />
    <glyph glyph-name="upsilondieresistonos" unicode="&#x3b0;" horiz-adv-x="492" 
d="M108.5 37q-51.5 44 -51.5 136v283h80v-282q0 -53 25 -83t85 -30q108 0 108 113v282h80v-283q0 -92 -51.5 -136t-136.5 -44q-87 0 -138.5 44zM272 519h-68l17 172h75zM83 565q-15 13 -15 41t15.5 42t40.5 14q23 0 39 -14.5t16 -41.5t-16 -40.5t-39 -13.5q-26 0 -41 13z
M315 606q0 28 15 42t40 14q24 0 40 -14t16 -42q0 -27 -16 -40.5t-40 -13.5q-55 0 -55 54z" />
    <glyph glyph-name="alpha" unicode="&#x3b1;" horiz-adv-x="523" 
d="M504 74v-72q-19 -4 -42 -4q-38 0 -58.5 16t-28.5 50q-20 -34 -55 -54t-83 -20q-96 0 -144 62.5t-48 176.5q0 112 48.5 174.5t146.5 62.5q43 0 74.5 -18.5t51.5 -50.5v59h80v-327q0 -29 7.5 -43t29.5 -14q7 0 21 2zM367 228q0 165 -121 165q-61 0 -90.5 -43t-29.5 -121
q0 -80 29 -123t90 -43q122 0 122 165z" />
    <glyph glyph-name="beta" unicode="&#x3b2;" horiz-adv-x="516" 
d="M447 309.5q29 -47.5 29 -115.5q0 -90 -48.5 -147t-143.5 -57q-49 0 -82 11.5t-58 33.5v-251h-80v707q0 94 45.5 151.5t139.5 57.5t139.5 -50.5t45.5 -123.5q0 -50 -19 -90t-58 -63q61 -16 90 -63.5zM363.5 100q31.5 37 31.5 95q0 60 -29.5 94t-92.5 34h-59v70h32
q57 0 82 35t25 92q0 50 -26 78.5t-78 28.5q-59 0 -82 -36.5t-23 -98.5v-374q22 -31 52.5 -43t74.5 -12q61 0 92.5 37z" />
    <glyph glyph-name="gamma" unicode="&#x3b3;" horiz-adv-x="465" 
d="M395.5 262q-43.5 -109 -123.5 -259q5 -62 5 -117q0 -36 -2 -102h-80q1 26 1 99q-1 74 -16.5 143.5t-53 165.5t-114.5 264h89q50 -112 83 -197t55 -165q56 112 88 203t32 159h81q-1 -85 -44.5 -194z" />
    <glyph glyph-name="delta" unicode="&#x3b4;" horiz-adv-x="496" 
d="M374.5 390q45.5 -41 64.5 -84.5t19 -102.5q0 -98 -52.5 -155.5t-155.5 -57.5q-106 0 -158 58.5t-52 153.5q0 75 40 134t110 86q-65 43 -89 74.5t-24 74.5q0 57 44.5 93t133.5 36q118 0 182 -67l-49 -56q-27 27 -59 39t-74 12q-51 0 -74.5 -16t-23.5 -39q0 -20 17.5 -39.5
t67.5 -49.5q87 -53 132.5 -94zM344.5 101q31.5 38 31.5 100q0 38 -10 65.5t-35.5 53.5t-73.5 59q-64 -20 -100 -66.5t-36 -108.5q0 -64 32 -102.5t97 -38.5q63 0 94.5 38z" />
    <glyph glyph-name="epsilon" unicode="&#x3b5;" horiz-adv-x="425" 
d="M69 272.5q-24 29.5 -24 65.5t22 64.5t61.5 45t91.5 16.5q85 0 130 -35.5t45 -93.5h-76q0 30 -26 46t-70 16q-42 0 -69.5 -17.5t-27.5 -48.5q0 -32 31.5 -49t77.5 -17h72v-65h-72q-51 0 -84 -18t-33 -51q0 -34 29 -53t76 -19t75 16t28 47h76q0 -59 -47 -94t-137 -35
q-82 0 -131 36t-49 95q0 41 26.5 71t60.5 38q-32 10 -56 39.5z" />
    <glyph glyph-name="zeta" unicode="&#x3b6;" horiz-adv-x="391" 
d="M143.5 147.5q19.5 -27.5 47.5 -41t75 -28.5q49 -16 77.5 -29.5t48.5 -42t20 -77.5q0 -33 -10 -63h-73q5 20 5 42q0 34 -15.5 54.5t-39 31.5t-65.5 23q-54 16 -88.5 34t-59 58.5t-24.5 110.5t34 131t106 145l108 124h-238v70h349v-56l-157 -178q-64 -73 -92 -125t-28 -110
q0 -46 19.5 -73.5z" />
    <glyph glyph-name="eta" unicode="&#x3b7;" horiz-adv-x="518" 
d="M67 456h78v-55q21 29 61 47t89 18q83 0 121.5 -44t38.5 -131v-507h-80v500q0 55 -23.5 81.5t-80.5 26.5q-39 0 -71.5 -14.5t-52.5 -38.5v-339h-80v456z" />
    <glyph glyph-name="theta" unicode="&#x3b8;" horiz-adv-x="552" 
d="M103 606q57 94 173 94t172.5 -93.5t56.5 -261.5q0 -167 -56.5 -261t-172.5 -94t-173 94t-57 261t57 261zM423 384q-8 243 -147 243t-147 -243h294zM166.5 128q35.5 -65 109.5 -65t109.5 65t37.5 189h-295q3 -124 38.5 -189z" />
    <glyph glyph-name="iota" unicode="&#x3b9;" horiz-adv-x="224" 
d="M143 127q0 -29 8.5 -43t31.5 -14q8 0 22 2v-72q-20 -4 -45 -4q-51 0 -74 30t-23 92v338h80v-329z" />
    <glyph glyph-name="kappa" unicode="&#x3ba;" horiz-adv-x="472" 
d="M220 225l-73 -70v-155h-80v456h80v-205l212 205h101l-183 -176l178 -280h-91z" />
    <glyph glyph-name="lambda" unicode="&#x3bb;" horiz-adv-x="479" 
d="M209 427l-73 172q-7 18 -18 23t-28 5q1 0 -15 -2v71q14 4 32 4q38 0 60 -15t39 -55l260 -630h-88l-128 333l-143 -333h-90z" />
    <glyph glyph-name="uni03BC" unicode="&#x3bc;" horiz-adv-x="522" 
d="M503 74v-72q-19 -4 -43 -4q-68 0 -86 57q-21 -30 -60 -47.5t-84 -17.5q-48 0 -83 15v-221h-80v672h80v-284q0 -55 22.5 -81.5t76.5 -26.5q36 0 68 15t51 38v3v336h80v-327q0 -29 7.5 -43t28.5 -14q8 0 22 2z" />
    <glyph glyph-name="nu" unicode="&#x3bd;" horiz-adv-x="455" 
d="M389 259.5q-42 -111.5 -120 -259.5h-94l-163 456h87l126 -384q57 118 91 215.5t33 168.5h81q1 -85 -41 -196.5z" />
    <glyph glyph-name="xi" unicode="&#x3be;" horiz-adv-x="420" 
d="M140 142.5q19 -23.5 47.5 -36t75.5 -26.5q52 -16 83 -30t53 -43.5t22 -77.5q0 -35 -10 -63h-69q5 20 5 42q0 34 -17.5 55t-43.5 32.5t-71 25.5q-56 17 -91 34t-59.5 52t-24.5 95q0 62 35 101.5t90 52.5q-46 14 -72 50t-26 87q0 39 17.5 67.5t51.5 44.5h-88v71h355v-71
h-115q-71 0 -106 -25t-35 -80q0 -114 138 -114h102v-71h-115q-77 0 -114 -29t-37 -81q0 -39 19 -62.5z" />
    <glyph glyph-name="omicron" unicode="&#x3bf;" horiz-adv-x="500" 
d="M405 401.5q51 -64.5 51 -172.5q0 -110 -51 -174.5t-157 -64.5q-100 0 -151.5 65t-51.5 173t51 173t155 65q103 0 154 -64.5zM374 228q0 165 -125 165q-63 0 -93 -43t-30 -121q0 -80 30 -123t93 -43q125 0 125 165z" />
    <glyph glyph-name="pi" unicode="&#x3c0;" horiz-adv-x="523" 
d="M14 456h491v-69h-73v-251q0 -35 8 -50.5t33 -15.5q8 0 22 2v-72q-20 -4 -45 -4q-53 0 -75.5 31.5t-22.5 99.5v260h-186v-387h-80v387h-72v69z" />
    <glyph glyph-name="rho" unicode="&#x3c1;" horiz-adv-x="506" 
d="M410 401.5q51 -64.5 51 -172.5q0 -109 -50.5 -174t-149.5 -65q-44 0 -77.5 16.5t-53.5 47.5v-270h-79v444q0 108 51 173t154 65t154 -64.5zM380 228q0 165 -125 165q-123 0 -123 -164q0 -166 122 -166q126 0 126 165z" />
    <glyph glyph-name="uni03C2" unicode="&#x3c2;" horiz-adv-x="430" 
d="M95 402q50 64 152 64q59 0 102.5 -23.5t67.5 -69.5l-58 -40q-36 61 -107 61q-65 0 -95.5 -43t-30.5 -120q0 -51 18.5 -81.5t45.5 -45t73 -29.5q44 -15 70 -28.5t44 -41.5t18 -76q0 -30 -11 -63h-72q5 27 5 42q0 32 -14 51.5t-34.5 30t-57.5 23.5q-53 19 -86 38.5
t-56.5 63.5t-23.5 120q0 103 50 167z" />
    <glyph glyph-name="sigma" unicode="&#x3c3;" horiz-adv-x="511" 
d="M500 387h-109q31 -28 47.5 -72t16.5 -98q0 -102 -51 -164.5t-156 -62.5q-100 0 -151.5 64t-51.5 169q0 106 51 169.5t155 63.5h249v-69zM374 223q0 160 -125 160q-63 0 -93 -41.5t-30 -117.5q0 -77 30 -119t93 -42q125 0 125 160z" />
    <glyph glyph-name="tau" unicode="&#x3c4;" horiz-adv-x="401" 
d="M237 387v-260q0 -28 10 -42.5t40 -14.5q10 0 28 2v-72q-21 -4 -51 -4q-59 0 -82.5 31t-23.5 91v269h-144v69h370v-69h-147z" />
    <glyph glyph-name="upsilon" unicode="&#x3c5;" horiz-adv-x="492" 
d="M108.5 37q-51.5 44 -51.5 136v283h80v-282q0 -53 25 -83t85 -30q108 0 108 113v282h80v-283q0 -92 -51.5 -136t-136.5 -44q-87 0 -138.5 44z" />
    <glyph glyph-name="phi" unicode="&#x3c6;" horiz-adv-x="628" 
d="M354 -10v-206h-80v206q-117 2 -173 65t-56 173q0 109 54.5 172.5t174.5 65.5v184h80v-184q229 -6 229 -237q0 -232 -229 -239zM159.5 107q33.5 -42 114.5 -44v330q-80 -2 -114 -43.5t-34 -120.5q0 -80 33.5 -122zM468 107.5q33 41.5 33 120.5t-33 120.5t-114 44.5v-330
q81 3 114 44.5z" />
    <glyph glyph-name="chi" unicode="&#x3c7;" horiz-adv-x="455" 
d="M404.5 -139.5q10.5 -5.5 25.5 -5.5q8 0 14 1v-71q-15 -3 -31 -3q-37 0 -57.5 13.5t-37.5 51.5l-89 203l-131 -266h-86l174 343l-108 235q-7 15 -17.5 20t-26.5 5l-14 -1v71q18 3 31 3q37 0 58 -14t38 -52l88 -197l129 260h86l-172 -336l108 -239q8 -16 18.5 -21.5z" />
    <glyph glyph-name="psi" unicode="&#x3c8;" horiz-adv-x="625" 
d="M568 456v-269q0 -103 -55.5 -148.5t-160.5 -45.5v-209h-79v209q-106 0 -161 45t-55 149v269h80v-264q0 -65 28.5 -96t107.5 -31v585h79v-585q76 1 106 31t30 96v264h80z" />
    <glyph glyph-name="omega" unicode="&#x3c9;" horiz-adv-x="660" 
d="M615 222q0 -126 -42.5 -177.5t-118.5 -51.5q-42 0 -75 17.5t-49 56.5q-18 -39 -50.5 -56.5t-73.5 -17.5q-77 0 -119 51.5t-42 177.5q0 120 34 234h80q-33 -119 -33 -240q0 -73 18 -111.5t64 -38.5q53 0 67.5 36t14.5 86v174h80v-174q0 -34 4 -58.5t22 -44t55 -19.5
q44 0 63 37.5t19 114.5q0 54 -8 116.5t-25 121.5h80q35 -112 35 -234z" />
    <glyph glyph-name="iotadieresis" unicode="&#x3ca;" horiz-adv-x="224" 
d="M143 127q0 -29 8.5 -43t31.5 -14q8 0 22 2v-72q-20 -4 -45 -4q-51 0 -74 30t-23 92v338h80v-329zM-29 570q-15 13 -15 41t15.5 42t40.5 14q24 0 40 -14t16 -42q0 -27 -16 -40.5t-40 -13.5q-26 0 -41 13zM140 611q0 28 15 42t40 14q24 0 40 -14t16 -42q0 -27 -16 -40.5
t-40 -13.5q-55 0 -55 54z" />
    <glyph glyph-name="upsilondieresis" unicode="&#x3cb;" horiz-adv-x="492" 
d="M108.5 37q-51.5 44 -51.5 136v283h80v-282q0 -53 25 -83t85 -30q108 0 108 113v282h80v-283q0 -92 -51.5 -136t-136.5 -44q-87 0 -138.5 44zM114 570q-15 13 -15 41t15.5 42t40.5 14q24 0 40 -14t16 -42q0 -27 -16 -40.5t-40 -13.5q-26 0 -41 13zM283 611q0 28 15 42
t40 14q24 0 40 -14t16 -42q0 -27 -16 -40.5t-40 -13.5q-55 0 -55 54z" />
    <glyph glyph-name="omicrontonos" unicode="&#x3cc;" horiz-adv-x="500" 
d="M405 401.5q51 -64.5 51 -172.5q0 -110 -51 -174.5t-157 -64.5q-100 0 -151.5 65t-51.5 173t51 173t155 65q103 0 154 -64.5zM374 228q0 165 -125 165q-63 0 -93 -43t-30 -121q0 -80 30 -123t93 -43q125 0 125 165zM283 535h-73l32 156h84z" />
    <glyph glyph-name="upsilontonos" unicode="&#x3cd;" horiz-adv-x="492" 
d="M108.5 37q-51.5 44 -51.5 136v283h80v-282q0 -53 25 -83t85 -30q108 0 108 113v282h80v-283q0 -92 -51.5 -136t-136.5 -44q-87 0 -138.5 44zM279 535h-73l32 156h84z" />
    <glyph glyph-name="omegatonos" unicode="&#x3ce;" horiz-adv-x="660" 
d="M615 222q0 -126 -42.5 -177.5t-118.5 -51.5q-42 0 -75 17.5t-49 56.5q-18 -39 -50.5 -56.5t-73.5 -17.5q-77 0 -119 51.5t-42 177.5q0 120 34 234h80q-33 -119 -33 -240q0 -73 18 -111.5t64 -38.5q53 0 67.5 36t14.5 86v174h80v-174q0 -34 4 -58.5t22 -44t55 -19.5
q44 0 63 37.5t19 114.5q0 54 -8 116.5t-25 121.5h80q35 -112 35 -234zM362 535h-73l32 156h84z" />
    <glyph glyph-name="uni0400" unicode="&#x400;" horiz-adv-x="538" 
d="M492 0h-410v676h406v-73h-320v-221h284v-73h-284v-236h324v-73zM328 744h-75l-87 156h86z" />
    <glyph glyph-name="uni0401" unicode="&#x401;" horiz-adv-x="538" 
d="M492 0h-410v676h406v-73h-320v-221h284v-73h-284v-236h324v-73zM154 774q-15 13 -15 41t15.5 42t40.5 14q24 0 40 -14t16 -42q0 -27 -16 -40.5t-40 -13.5q-26 0 -41 13zM323 815q0 28 15 42t40 14q24 0 40 -14t16 -42q0 -27 -16 -40.5t-40 -13.5q-55 0 -55 54z" />
    <glyph glyph-name="uni0402" unicode="&#x402;" horiz-adv-x="722" 
d="M624 364q57 -58 57 -155q0 -95 -53 -154t-158 -59q-35 0 -63 7l7 72q18 -3 41 -3q74 0 105.5 38.5t31.5 98.5q0 61 -35.5 99.5t-121.5 38.5q-43 0 -79.5 -7.5t-58.5 -18.5v-321h-86v603h-179v73h475v-73h-210v-205q24 10 62.5 17t85.5 7q122 0 179 -58z" />
    <glyph glyph-name="uni0403" unicode="&#x403;" horiz-adv-x="512" 
d="M481 676v-73h-313v-603h-86v676h399zM317 744h-75l76 156h86z" />
    <glyph glyph-name="uni0404" unicode="&#x404;" horiz-adv-x="585" 
d="M464 22q-57 -32 -133 -32q-139 0 -208.5 91.5t-69.5 257.5q0 165 69.5 256t208.5 91q76 0 133 -32t86 -86l-67 -43q-20 40 -60.5 63t-89.5 23q-90 0 -136.5 -61t-53.5 -168h281v-73h-281q5 -113 51 -178.5t139 -65.5q49 0 89.5 23t60.5 63l67 -43q-29 -54 -86 -86z" />
    <glyph glyph-name="uni0405" unicode="&#x405;" horiz-adv-x="545" 
d="M280 611q-62 0 -96 -33t-34 -84q0 -41 23 -64.5t73 -38.5l90 -27q80 -25 121.5 -66.5t41.5 -110.5q0 -58 -28 -103t-80 -69.5t-123 -24.5q-102 0 -154 37t-78 91l65 44q21 -46 57 -71.5t110 -25.5q69 0 105.5 31.5t36.5 85.5q0 42 -26.5 66t-76.5 39l-90 27
q-155 48 -155 176q0 53 24 97.5t73 71.5t121 27q77 0 130 -28t79 -71l-63 -47q-44 71 -146 71z" />
    <glyph glyph-name="uni0406" unicode="&#x406;" horiz-adv-x="249" 
d="M168 676v-676h-86v676h86z" />
    <glyph glyph-name="uni0407" unicode="&#x407;" horiz-adv-x="249" 
d="M168 676v-676h-86v676h86zM-8 774q-15 13 -15 41t15.5 42t40.5 14q24 0 40 -14t16 -42q0 -27 -16 -40.5t-40 -13.5q-26 0 -41 13zM161 815q0 28 15 42t40 14q24 0 40 -14t16 -42q0 -27 -16 -40.5t-40 -13.5q-55 0 -55 54z" />
    <glyph glyph-name="uni0408" unicode="&#x408;" horiz-adv-x="487" 
d="M131.5 81.5q26.5 -16.5 67.5 -16.5q64 0 96 40t32 132v439h83v-441q0 -125 -55.5 -185t-155.5 -60q-63 0 -108 27.5t-69 75.5l64 41q19 -36 45.5 -52.5z" />
    <glyph glyph-name="uni0409" unicode="&#x409;" horiz-adv-x="970" 
d="M4 72q17 -7 40 -7q27 0 44.5 16.5t29 60t17.5 123.5l29 411h410v-275h134q113 0 170.5 -53.5t57.5 -146.5q0 -95 -57.5 -148t-170.5 -53h-220v603h-244l-24 -359q-10 -142 -51 -198t-112 -56q-42 0 -69 11zM703 73q144 0 144 128t-144 128h-129v-256h129z" />
    <glyph glyph-name="uni040A" unicode="&#x40a;" horiz-adv-x="976" 
d="M884.5 347.5q57.5 -53.5 57.5 -146.5q0 -95 -57.5 -148t-171.5 -53h-219v318h-326v-318h-86v676h86v-285h326v285h86v-275h133q114 0 171.5 -53.5zM819 107.5q34 34.5 34 93.5t-34 93.5t-110 34.5h-129v-256h129q76 0 110 34.5z" />
    <glyph glyph-name="uni040B" unicode="&#x40b;" horiz-adv-x="706" 
d="M32 676h475v-73h-210v-208q26 12 71.5 20.5t91.5 8.5q107 0 152 -49.5t45 -147.5v-227h-86v219q0 66 -28.5 97t-103.5 31q-43 0 -81 -7.5t-61 -18.5v-321h-86v603h-179v73z" />
    <glyph glyph-name="uni040C" unicode="&#x40c;" horiz-adv-x="577" 
d="M248 304h-80v-304h-86v676h86v-300h81l208 300h100l-237 -334l240 -342h-105zM323 744h-75l76 156h86z" />
    <glyph glyph-name="uni040D" unicode="&#x40d;" horiz-adv-x="680" 
d="M167 139l338 537h93v-676h-87l1 540l-340 -540h-91v676h85zM364 744h-75l-87 156h86z" />
    <glyph glyph-name="uni040E" unicode="&#x40e;" horiz-adv-x="544" 
d="M535 676l-326 -676h-92l123 253l-223 423h93l175 -336l159 336h91zM375.5 776.5q-37.5 -38.5 -101.5 -38.5q-63 0 -99.5 38.5t-36.5 100.5h63q1 -37 19.5 -60t53.5 -23q36 0 54.5 22.5t19.5 60.5h65q0 -62 -37.5 -100.5z" />
    <glyph glyph-name="uni040F" unicode="&#x40f;" horiz-adv-x="659" 
d="M82 676h86v-603h324v603h86v-676h-205v-122h-86v122h-205v676z" />
    <glyph glyph-name="uni0410" unicode="&#x410;" horiz-adv-x="610" 
d="M165 178l-61 -178h-92l242 676h102l244 -676h-94l-61 178h-280zM422 250l-116 338l-118 -338h234z" />
    <glyph glyph-name="uni0411" unicode="&#x411;" horiz-adv-x="576" 
d="M82 676h387v-73h-301v-202h133q113 0 170.5 -53.5t57.5 -146.5q0 -95 -57.5 -148t-170.5 -53h-219v676zM296 73q77 0 111 34.5t34 93.5t-34 93.5t-111 34.5h-128v-256h128z" />
    <glyph glyph-name="uni0412" unicode="&#x412;" horiz-adv-x="583" 
d="M294 676q104 0 156 -45t52 -126q0 -61 -28 -99.5t-77 -50.5q60 -11 99.5 -53t39.5 -115q0 -98 -60.5 -142.5t-174.5 -44.5h-219v676h212zM413 499q0 104 -132 104h-113v-217h113q132 0 132 113zM410 101.5q37 28.5 37 90.5q0 57 -37.5 89t-116.5 32h-125v-240h124
q81 0 118 28.5z" />
    <glyph glyph-name="uni0413" unicode="&#x413;" horiz-adv-x="512" 
d="M481 676v-73h-313v-603h-86v676h399z" />
    <glyph glyph-name="uni0414" unicode="&#x414;" horiz-adv-x="652" 
d="M630 73v-195h-86v122h-463v-122h-86v195h51q24 13 38 58t21 134l29 411h422v-603h74zM471 73v530h-257l-24 -357q-9 -114 -39 -173h320z" />
    <glyph glyph-name="uni0415" unicode="&#x415;" horiz-adv-x="538" 
d="M492 0h-410v676h406v-73h-320v-221h284v-73h-284v-236h324v-73z" />
    <glyph glyph-name="uni0416" unicode="&#x416;" horiz-adv-x="881" 
d="M259 341l-239 335h102l209 -300h66v300h86v-300h67l209 300h102l-239 -335l242 -341h-106l-209 304h-66v-304h-86v304h-65l-209 -304h-106z" />
    <glyph glyph-name="uni0417" unicode="&#x417;" horiz-adv-x="541" 
d="M452.5 292.5q41.5 -44.5 41.5 -112.5q0 -56 -28.5 -99t-81.5 -67.5t-122 -24.5q-111 0 -169 50t-58 127h85q0 -46 38 -74.5t104 -28.5q68 0 107 32.5t39 87.5q0 59 -45 93.5t-119 34.5h-64v72h64q68 0 110 30.5t42 85.5q0 51 -36 82.5t-98 31.5q-63 0 -97.5 -29.5
t-34.5 -74.5h-85q0 48 24 88.5t73 64.5t120 24q67 0 117 -24t77 -65.5t27 -94.5q0 -61 -37 -101.5t-91 -52.5q56 -11 97.5 -55.5z" />
    <glyph glyph-name="uni0418" unicode="&#x418;" horiz-adv-x="680" 
d="M167 139l338 537h93v-676h-87l1 540l-340 -540h-91v676h85z" />
    <glyph glyph-name="uni0419" unicode="&#x419;" horiz-adv-x="680" 
d="M167 139l338 537h93v-676h-87l1 540l-340 -540h-91v676h85zM421.5 776.5q-37.5 -38.5 -101.5 -38.5q-63 0 -99.5 38.5t-36.5 100.5h63q1 -37 19.5 -60t53.5 -23q36 0 54.5 22.5t19.5 60.5h65q0 -62 -37.5 -100.5z" />
    <glyph glyph-name="uni041A" unicode="&#x41a;" horiz-adv-x="577" 
d="M248 304h-80v-304h-86v676h86v-300h81l208 300h100l-237 -334l240 -342h-105z" />
    <glyph glyph-name="uni041B" unicode="&#x41b;" horiz-adv-x="668" 
d="M44 65q27 0 44.5 16.5t29 60t17.5 123.5l29 411h422v-676h-85v603h-257l-24 -359q-10 -142 -51 -198t-112 -56q-42 0 -69 11l16 71q17 -7 40 -7z" />
    <glyph glyph-name="uni041C" unicode="&#x41c;" horiz-adv-x="859" 
d="M725 676l87 -676h-83l-71 574l-183 -574h-93l-180 574l-73 -574h-84l91 676h118l176 -567l181 567h114z" />
    <glyph glyph-name="uni041D" unicode="&#x41d;" horiz-adv-x="675" 
d="M593 676v-676h-86v318h-339v-318h-86v676h86v-285h339v285h86z" />
    <glyph glyph-name="uni041E" unicode="&#x41e;" horiz-adv-x="656" 
d="M536.5 83.5q-67.5 -93.5 -209.5 -93.5t-208 93t-66 254q0 162 66 255.5t209 93.5t209.5 -94t66.5 -255q0 -160 -67.5 -253.5zM183 135.5q42 -70.5 144 -70.5q104 0 146.5 70.5t42.5 201.5t-42.5 202.5t-145.5 71.5q-101 0 -144 -72t-43 -202q0 -131 42 -201.5z" />
    <glyph glyph-name="uni041F" unicode="&#x41f;" horiz-adv-x="659" 
d="M578 0h-86v603h-324v-603h-86v676h496v-676z" />
    <glyph glyph-name="uni0420" unicode="&#x420;" horiz-adv-x="563" 
d="M168 0h-86v676h215q114 0 170.5 -53.5t56.5 -151.5q0 -97 -57 -151t-170 -54h-129v-266zM292 339q77 0 110.5 34.5t33.5 97.5q0 132 -144 132h-124v-264h124z" />
    <glyph glyph-name="uni0421" unicode="&#x421;" horiz-adv-x="585" 
d="M187.5 138q46.5 -73 145.5 -73q49 0 89.5 23t60.5 63l67 -43q-29 -54 -86 -86t-133 -32q-139 0 -208.5 91t-69.5 256q0 166 69.5 257.5t208.5 91.5q76 0 133 -32t86 -86l-67 -43q-20 40 -60.5 63t-89.5 23q-100 0 -146 -73t-46 -201q0 -126 46.5 -199z" />
    <glyph glyph-name="uni0422" unicode="&#x422;" horiz-adv-x="538" 
d="M507 603h-195v-603h-86v603h-194v73h475v-73z" />
    <glyph glyph-name="uni0423" unicode="&#x423;" horiz-adv-x="544" 
d="M535 676l-326 -676h-92l123 253l-223 423h93l175 -336l159 336h91z" />
    <glyph glyph-name="uni0424" unicode="&#x424;" horiz-adv-x="734" 
d="M618 131q-68 -77 -208 -79v-72h-86v72q-139 1 -207.5 77t-68.5 208q0 131 67.5 208.5t208.5 78.5v72h86v-72q141 -1 208.5 -78.5t67.5 -208.5q0 -129 -68 -206zM180 183.5q44 -54.5 144 -55.5v420q-188 -3 -188 -211q0 -99 44 -153.5zM554 183.5q44 54.5 44 153.5
t-44 154.5t-144 56.5v-420q100 1 144 55.5z" />
    <glyph glyph-name="uni0425" unicode="&#x425;" horiz-adv-x="574" 
d="M287 408l162 268h99l-204 -327l214 -349h-99l-172 285l-171 -285h-100l214 349l-203 327h98z" />
    <glyph glyph-name="uni0426" unicode="&#x426;" horiz-adv-x="673" 
d="M82 676h86v-603h324v603h86v-603h73v-195h-86v122h-483v676z" />
    <glyph glyph-name="uni0427" unicode="&#x427;" horiz-adv-x="576" 
d="M495 676v-676h-86v281q-26 -12 -71.5 -20.5t-91.5 -8.5q-107 0 -152 49.5t-45 147.5v227h86v-219q0 -67 28 -97.5t103 -30.5q43 0 81.5 7.5t61.5 18.5v321h86z" />
    <glyph glyph-name="uni0428" unicode="&#x428;" horiz-adv-x="1024" 
d="M82 676h86v-603h301v603h86v-603h302v603h86v-676h-861v676z" />
    <glyph glyph-name="uni0429" unicode="&#x429;" horiz-adv-x="1038" 
d="M1016 73v-195h-86v122h-848v676h86v-603h301v603h86v-603h302v603h86v-603h73z" />
    <glyph glyph-name="uni042A" unicode="&#x42a;" horiz-adv-x="660" 
d="M32 676h232v-275h134q113 0 170.5 -53.5t57.5 -146.5q0 -95 -57.5 -148t-170.5 -53h-220v603h-146v73zM393 73q144 0 144 128t-144 128h-129v-256h129z" />
    <glyph glyph-name="uni042B" unicode="&#x42b;" horiz-adv-x="791" 
d="M301 401q113 0 170.5 -53.5t57.5 -146.5q0 -95 -57.5 -148t-170.5 -53h-219v676h86v-275h133zM168 73h128q77 0 111 34.5t34 93.5t-34 93.5t-111 34.5h-128v-256zM710 676v-676h-86v676h86z" />
    <glyph glyph-name="uni042C" unicode="&#x42c;" horiz-adv-x="564" 
d="M301 401q113 0 170.5 -53.5t57.5 -146.5q0 -95 -57.5 -148t-170.5 -53h-219v676h86v-275h133zM168 73h128q77 0 111 34.5t34 93.5t-34 93.5t-111 34.5h-128v-256z" />
    <glyph glyph-name="uni042D" unicode="&#x42d;" horiz-adv-x="585" 
d="M102 151q20 -40 60.5 -63t89.5 -23q93 0 139 65.5t52 178.5h-282v73h281q-6 107 -52.5 168t-137.5 61q-49 0 -89.5 -23t-60.5 -63l-67 43q30 54 86.5 86t132.5 32q139 0 209 -91t70 -256q0 -166 -70 -257.5t-209 -91.5q-76 0 -132.5 32t-86.5 86z" />
    <glyph glyph-name="uni042E" unicode="&#x42e;" horiz-adv-x="883" 
d="M764.5 592q66.5 -94 66.5 -255q0 -160 -67.5 -253.5t-209.5 -93.5q-137 0 -203 85.5t-72 234.5h-111v-310h-86v676h86v-296h112q9 143 75.5 224.5t199.5 81.5q143 0 209.5 -94zM699.5 135q42.5 70 42.5 202q0 131 -42 202.5t-145 71.5q-101 0 -144 -72t-43 -202
q0 -131 42 -201.5t144 -70.5q103 0 145.5 70z" />
    <glyph glyph-name="uni042F" unicode="&#x42f;" horiz-adv-x="595" 
d="M513 0h-85l-1 297h-117l-182 -297h-99l192 304q-83 12 -128.5 60t-45.5 124q0 90 58.5 139t173.5 49h234v-676zM170 400q35 -30 116 -30h141v233h-141q-81 0 -116 -29t-35 -86q0 -58 35 -88z" />
    <glyph glyph-name="uni0430" unicode="&#x430;" horiz-adv-x="470" 
d="M330 56q-23 -28 -62 -47t-91 -19q-65 0 -101.5 34t-36.5 95q0 67 54.5 102t154.5 45l78 8v45q0 41 -21 61t-74 20q-46 0 -70 -15t-24 -41v-26h-71q-3 17 -3 33q0 52 45 83.5t127 31.5q84 0 127.5 -36.5t43.5 -109.5v-320h-76v56zM140.5 72q20.5 -18 59.5 -18
q37 0 70 15.5t56 40.5v109l-75 -9q-64 -9 -97.5 -29.5t-33.5 -57.5q0 -33 20.5 -51z" />
    <glyph glyph-name="uni0431" unicode="&#x431;" horiz-adv-x="500" 
d="M408 384q50 -63 50 -165q0 -105 -51 -167t-155 -62q-106 0 -156.5 67.5t-50.5 207.5q0 121 21 199t66.5 120.5t121.5 54.5q44 8 65 14t27.5 14t5.5 23h75q3 -18 3 -33q0 -25 -12.5 -41t-44 -28t-90.5 -21q-54 -8 -85 -29.5t-46.5 -58t-23.5 -97.5q43 65 135 65
q95 0 145 -63zM376 219q0 155 -124 155q-63 0 -93.5 -40.5t-30.5 -114.5q0 -75 30.5 -115.5t93.5 -40.5q124 0 124 156z" />
    <glyph glyph-name="uni0432" unicode="&#x432;" horiz-adv-x="462" 
d="M407.5 201q23.5 -28 23.5 -73q0 -128 -188 -128h-176v456h174q88 0 130 -31.5t42 -82.5q0 -37 -17.5 -63.5t-48.5 -38.5q37 -11 60.5 -39zM147 268h87q50 0 73 16.5t23 48.5q0 33 -25 46t-71 13h-87v-124zM322.5 80.5q26.5 16.5 26.5 52.5t-27.5 53t-82.5 17h-92v-139h94
q55 0 81.5 16.5z" />
    <glyph glyph-name="uni0433" unicode="&#x433;" horiz-adv-x="404" 
d="M388 456v-69h-241v-387h-80v456h321z" />
    <glyph glyph-name="uni0434" unicode="&#x434;" horiz-adv-x="513" 
d="M497 69v-187h-79v118h-338v-118h-79v187h42q18 12 28.5 44t15.5 92l21 251h332v-387h57zM360 69v318h-179l-16 -197q-8 -80 -31 -121h226z" />
    <glyph glyph-name="uni0435" unicode="&#x435;" horiz-adv-x="471" 
d="M319.5 71.5q34.5 12.5 58.5 36.5l40 -54q-24 -26 -69 -45t-95 -19q-108 0 -158.5 64t-50.5 175q0 104 51 170.5t149 66.5q61 0 102 -26.5t61 -70.5t20 -95q0 -33 -6 -71h-297q2 -68 33 -106t96 -38q31 0 65.5 12.5zM352 284q0 52 -28.5 83.5t-78.5 31.5
q-58 0 -86.5 -36.5t-32.5 -98.5h224z" />
    <glyph glyph-name="uni0436" unicode="&#x436;" horiz-adv-x="666" 
d="M427 194h-54v-194h-80v194h-53l-131 -194h-97l162 230l-160 226h95l131 -193h53v193h80v-193h53l131 193h96l-161 -226l162 -230h-97z" />
    <glyph glyph-name="uni0437" unicode="&#x437;" horiz-adv-x="437" 
d="M365 195q28 -31 28 -74q0 -57 -48 -92.5t-130 -35.5q-90 0 -135 34.5t-45 94.5h76q0 -30 26.5 -46.5t72.5 -16.5q47 0 74.5 19t27.5 53q0 37 -32.5 55.5t-80.5 18.5h-56v56h56q44 0 74.5 17t30.5 52q0 32 -26 49.5t-69 17.5t-67 -16.5t-24 -45.5h-77q0 57 44 92.5
t128 35.5q79 0 125.5 -35t46.5 -90q0 -38 -24.5 -66t-59.5 -38q36 -8 64 -39z" />
    <glyph glyph-name="uni0438" unicode="&#x438;" horiz-adv-x="513" 
d="M445 456v-456h-78v338l-222 -338h-78v456h78v-334l221 334h79z" />
    <glyph glyph-name="uni0439" unicode="&#x439;" horiz-adv-x="513" 
d="M445 456v-456h-78v338l-222 -338h-78v456h78v-334l221 334h79zM355.5 572.5q-37.5 -38.5 -101.5 -38.5q-63 0 -99.5 38.5t-36.5 100.5h63q1 -37 19.5 -60t53.5 -23q36 0 54.5 22.5t19.5 60.5h65q0 -62 -37.5 -100.5z" />
    <glyph glyph-name="uni043A" unicode="&#x43a;" horiz-adv-x="447" 
d="M203 194h-56v-194h-80v456h80v-193h56l134 193h96l-164 -226l166 -230h-98z" />
    <glyph glyph-name="uni043B" unicode="&#x43b;" horiz-adv-x="516" 
d="M449 456v-456h-80v387h-182l-17 -210q-8 -95 -39.5 -139t-85.5 -44q-28 0 -53 9l14 68q10 -3 24 -3q27 0 42 30.5t21 101.5l20 256h336z" />
    <glyph glyph-name="uni043C" unicode="&#x43c;" horiz-adv-x="634" 
d="M541 456l53 -456h-79l-41 359l-111 -359h-91l-107 357l-45 -357h-80l59 456h113l106 -359l111 359h112z" />
    <glyph glyph-name="uni043D" unicode="&#x43d;" horiz-adv-x="516" 
d="M449 456v-456h-80v201h-222v-201h-80v456h80v-186h222v186h80z" />
    <glyph glyph-name="uni043E" unicode="&#x43e;" horiz-adv-x="500" 
d="M405 401.5q51 -64.5 51 -172.5q0 -110 -51 -174.5t-157 -64.5q-100 0 -151.5 65t-51.5 173t51 173t155 65q103 0 154 -64.5zM374 228q0 165 -125 165q-63 0 -93 -43t-30 -121q0 -80 30 -123t93 -43q125 0 125 165z" />
    <glyph glyph-name="uni043F" unicode="&#x43f;" horiz-adv-x="517" 
d="M450 0h-80v387h-223v-387h-80v456h383v-456z" />
    <glyph glyph-name="uni0440" unicode="&#x440;" horiz-adv-x="517" 
d="M67 -216v672h77v-44q21 24 56 39t79 15q95 0 144 -63.5t49 -176.5q0 -111 -49 -173.5t-145 -62.5q-44 0 -77.5 14.5t-53.5 37.5v-258h-80zM262 392q-41 0 -70 -15.5t-45 -40.5v-218q17 -22 45 -38t69 -16q70 0 99.5 42t29.5 120q0 166 -128 166z" />
    <glyph glyph-name="uni0441" unicode="&#x441;" horiz-adv-x="447" 
d="M95 400q50 66 152 66q59 0 102.5 -23.5t67.5 -69.5l-58 -40q-36 61 -107 61q-65 0 -95.5 -45t-30.5 -122t30.5 -121.5t95.5 -44.5q72 0 107 62l58 -41q-24 -45 -67.5 -68.5t-102.5 -23.5q-102 0 -152 65t-50 172t50 173z" />
    <glyph glyph-name="uni0442" unicode="&#x442;" horiz-adv-x="408" 
d="M394 387h-150v-387h-80v387h-150v69h380v-69z" />
    <glyph glyph-name="uni0443" unicode="&#x443;" horiz-adv-x="480" 
d="M376 456h88l-277 -672h-84l104 245l-192 427h90l143 -333z" />
    <glyph glyph-name="uni0444" unicode="&#x444;" horiz-adv-x="630" 
d="M355 -10v-206h-80v206q-119 1 -174.5 65t-55.5 174q0 109 55 172.5t175 64.5v224h80v-224q121 -1 175.5 -64.5t54.5 -172.5q0 -236 -230 -239zM160 106q34 -42 115 -43v330q-81 -1 -115 -42.5t-34 -121.5q0 -81 34 -123zM471 107.5q33 43.5 33 121.5q0 80 -33.5 121.5
t-115.5 42.5v-330q83 1 116 44.5z" />
    <glyph glyph-name="uni0445" unicode="&#x445;" horiz-adv-x="453" 
d="M337 0l-110 172l-112 -172h-92l153 229l-153 227h93l110 -172l112 172h92l-153 -228l153 -228h-93z" />
    <glyph glyph-name="uni0446" unicode="&#x446;" horiz-adv-x="534" 
d="M519 69v-187h-80v118h-372v456h80v-387h223v387h80v-387h69z" />
    <glyph glyph-name="uni0447" unicode="&#x447;" horiz-adv-x="465" 
d="M397 456v-456h-79v177q-20 -7 -54 -12t-71 -5q-90 0 -122.5 37.5t-32.5 110.5v148h80v-139q0 -30 6 -48t27 -28t64 -10q69 0 103 13v212h79z" />
    <glyph glyph-name="uni0448" unicode="&#x448;" horiz-adv-x="791" 
d="M67 456h80v-387h209v387h79v-387h209v387h80v-456h-657v456z" />
    <glyph glyph-name="uni0449" unicode="&#x449;" horiz-adv-x="808" 
d="M793 69v-187h-80v118h-646v456h80v-387h209v387h79v-387h209v387h80v-387h69z" />
    <glyph glyph-name="uni044A" unicode="&#x44a;" horiz-adv-x="533" 
d="M19 456h202v-160h105q88 0 133 -38t45 -110t-45 -110t-133 -38h-185v387h-122v69zM321 63q101 0 101 85t-101 85h-100v-170h100z" />
    <glyph glyph-name="uni044B" unicode="&#x44b;" horiz-adv-x="629" 
d="M252 296q88 0 133 -38t45 -110t-45 -110t-133 -38h-185v456h80v-160h105zM147 63h100q101 0 101 85t-101 85h-100v-170zM562 456v-456h-80v456h80z" />
    <glyph glyph-name="uni044C" unicode="&#x44c;" horiz-adv-x="459" 
d="M252 296q88 0 133 -38t45 -110t-45 -110t-133 -38h-185v456h80v-160h105zM147 63h100q101 0 101 85t-101 85h-100v-170z" />
    <glyph glyph-name="uni044D" unicode="&#x44d;" horiz-adv-x="447" 
d="M352 55q-50 -65 -152 -65q-59 0 -102.5 23.5t-67.5 68.5l58 41q35 -62 107 -62q58 0 88.5 36.5t36.5 99.5h-185v65h184q-6 62 -36.5 97t-87.5 35q-71 0 -107 -61l-58 40q24 46 67.5 69.5t102.5 23.5q102 0 152 -66t50 -173t-50 -172z" />
    <glyph glyph-name="uni044E" unicode="&#x44e;" horiz-adv-x="680" 
d="M585 401.5q51 -64.5 51 -172.5q0 -110 -51 -174.5t-157 -64.5q-93 0 -143.5 55.5t-58.5 149.5h-79v-195h-80v456h80v-191h80q8 93 59 147t145 54q103 0 154 -64.5zM554 228q0 165 -125 165q-63 0 -93 -43t-30 -121q0 -80 30 -123t93 -43q125 0 125 165z" />
    <glyph glyph-name="uni044F" unicode="&#x44f;" horiz-adv-x="483" 
d="M416 456v-456h-81v181h-98l-114 -181h-95l125 187q-53 11 -83.5 45t-30.5 85q0 67 44 103t137 36h196zM335 393h-110q-52 0 -78 -16.5t-26 -56.5q0 -41 26 -58.5t78 -17.5h110v149z" />
    <glyph glyph-name="uni0450" unicode="&#x450;" horiz-adv-x="471" 
d="M319.5 71.5q34.5 12.5 58.5 36.5l40 -54q-24 -26 -69 -45t-95 -19q-108 0 -158.5 64t-50.5 175q0 104 51 170.5t149 66.5q61 0 102 -26.5t61 -70.5t20 -95q0 -33 -6 -71h-297q2 -68 33 -106t96 -38q31 0 65.5 12.5zM352 284q0 52 -28.5 83.5t-78.5 31.5
q-58 0 -86.5 -36.5t-32.5 -98.5h224zM278 540h-75l-87 156h86z" />
    <glyph glyph-name="uni0451" unicode="&#x451;" horiz-adv-x="471" 
d="M319.5 71.5q34.5 12.5 58.5 36.5l40 -54q-24 -26 -69 -45t-95 -19q-108 0 -158.5 64t-50.5 175q0 104 51 170.5t149 66.5q61 0 102 -26.5t61 -70.5t20 -95q0 -33 -6 -71h-297q2 -68 33 -106t96 -38q31 0 65.5 12.5zM352 284q0 52 -28.5 83.5t-78.5 31.5
q-58 0 -86.5 -36.5t-32.5 -98.5h224zM103 570q-15 13 -15 41t15.5 42t40.5 14q24 0 40 -14t16 -42q0 -27 -16 -40.5t-40 -13.5q-26 0 -41 13zM272 611q0 28 15 42t40 14q24 0 40 -14t16 -42q0 -27 -16 -40.5t-40 -13.5q-55 0 -55 54z" />
    <glyph glyph-name="uni0452" unicode="&#x452;" horiz-adv-x="519" 
d="M8 591h60v99h80v-99h109v-58h-109v-127q21 26 60.5 43t86.5 17q83 0 121.5 -44t38.5 -131v-314q-1 -81 -30 -129t-90 -74l-43 56q48 22 66 54t18 89v311q0 55 -24 81.5t-81 26.5q-38 0 -71 -15t-52 -38v-339h-80v533h-60v58z" />
    <glyph glyph-name="uni0453" unicode="&#x453;" horiz-adv-x="404" 
d="M388 456v-69h-241v-387h-80v456h321zM260 540h-75l76 156h86z" />
    <glyph glyph-name="uni0454" unicode="&#x454;" horiz-adv-x="447" 
d="M95 400q50 66 152 66q59 0 102.5 -23.5t67.5 -69.5l-58 -40q-36 61 -107 61q-57 0 -87.5 -35t-36.5 -97h184v-65h-185q6 -63 36.5 -99.5t88.5 -36.5q72 0 107 62l58 -41q-24 -45 -67.5 -68.5t-102.5 -23.5q-102 0 -152 65t-50 172t50 173z" />
    <glyph glyph-name="uni0455" unicode="&#x455;" horiz-adv-x="430" 
d="M218 402q-44 0 -66 -19.5t-22 -49.5q0 -46 56 -60l78 -18q127 -30 127 -128q0 -60 -47 -98.5t-136 -38.5q-115 0 -174 76l49 49q24 -29 52 -45.5t76 -16.5q45 0 71.5 17.5t26.5 50.5q0 25 -17 39.5t-51 23.5l-80 19q-55 13 -83 45t-28 79q0 35 18 66.5t56 52t97 20.5
q56 0 96.5 -18.5t63.5 -45.5l-47 -49q-45 49 -116 49z" />
    <glyph glyph-name="uni0456" unicode="&#x456;" horiz-adv-x="216" 
d="M66 580q-15 13 -15 41t15.5 42t40.5 14q24 0 40 -14t16 -42q0 -27 -16 -40.5t-40 -13.5q-26 0 -41 13zM148 456v-456h-80v456h80z" />
    <glyph glyph-name="uni0457" unicode="&#x457;" horiz-adv-x="216" 
d="M148 456v-456h-80v456h80zM-25 570q-15 13 -15 41t15.5 42t40.5 14q24 0 40 -14t16 -42q0 -27 -16 -40.5t-40 -13.5q-26 0 -41 13zM144 611q0 28 15 42t40 14q24 0 40 -14t16 -42q0 -27 -16 -40.5t-40 -13.5q-55 0 -55 54z" />
    <glyph glyph-name="uni0458" unicode="&#x458;" horiz-adv-x="217" 
d="M66.5 580q-15.5 13 -15.5 41t16 42t41 14q23 0 39 -14.5t16 -41.5t-16 -40.5t-39 -13.5q-26 0 -41.5 13zM50 -116q18 32 18 89v483h80v-471q0 -84 -29 -134t-92 -77l-42 56q47 22 65 54z" />
    <glyph glyph-name="uni0459" unicode="&#x459;" horiz-adv-x="748" 
d="M674 249q45 -37 45 -106t-45 -106t-134 -37h-180v387h-173l-17 -210q-8 -95 -39.5 -139t-85.5 -44q-28 0 -53 9l14 68q10 -3 24 -3q27 0 42 30.5t21 101.5l20 256h326v-170h101q89 0 134 -37zM637 143q0 80 -101 80h-97v-160h97q101 0 101 80z" />
    <glyph glyph-name="uni045A" unicode="&#x45a;" horiz-adv-x="750" 
d="M676.5 242q44.5 -36 44.5 -103t-44.5 -103t-133.5 -36h-181v209h-215v-209h-80v456h80v-178h215v178h80v-178h101q89 0 133.5 -36zM639 139q0 76 -101 76h-96v-152h96q101 0 101 76z" />
    <glyph glyph-name="uni045B" unicode="&#x45b;" horiz-adv-x="519" 
d="M416.5 422q38.5 -44 38.5 -131v-291h-79v284q0 55 -24 81.5t-81 26.5q-38 0 -71 -15t-52 -38v-339h-80v531h-61v63h61v96h80v-96h110v-63h-110v-125q21 26 60.5 43t86.5 17q83 0 121.5 -44z" />
    <glyph glyph-name="uni045C" unicode="&#x45c;" horiz-adv-x="447" 
d="M203 194h-56v-194h-80v456h80v-193h56l134 193h96l-164 -226l166 -230h-98zM256 540h-75l76 156h86z" />
    <glyph glyph-name="uni045D" unicode="&#x45d;" horiz-adv-x="513" 
d="M445 456v-456h-78v338l-222 -338h-78v456h78v-334l221 334h79zM299 540h-75l-87 156h86z" />
    <glyph glyph-name="uni045E" unicode="&#x45e;" horiz-adv-x="480" 
d="M376 456h88l-277 -672h-84l104 245l-192 427h90l143 -333zM339.5 572.5q-37.5 -38.5 -101.5 -38.5q-63 0 -99.5 38.5t-36.5 100.5h63q1 -37 19.5 -60t53.5 -23q36 0 54.5 22.5t19.5 60.5h65q0 -62 -37.5 -100.5z" />
    <glyph glyph-name="uni045F" unicode="&#x45f;" horiz-adv-x="517" 
d="M67 456h80v-387h223v387h80v-456h-152v-122h-79v122h-152v456z" />
    <glyph glyph-name="uni0490" unicode="&#x490;" horiz-adv-x="529" 
d="M82 676h329v122h86v-195h-329v-603h-86v676z" />
    <glyph glyph-name="uni0491" unicode="&#x491;" horiz-adv-x="412" 
d="M67 456h250v118h79v-187h-249v-387h-80v456z" />
    <glyph glyph-name="uni0492" unicode="&#x492;" horiz-adv-x="512" 
d="M168 603v-251h175v-70h-175v-282h-86v282h-78v70h78v324h399v-73h-313z" />
    <glyph glyph-name="uni0493" unicode="&#x493;" horiz-adv-x="404" 
d="M147 387v-139h120v-70h-120v-178h-80v178h-57v70h57v208h321v-69h-241z" />
    <glyph glyph-name="uni049A" unicode="&#x49a;" horiz-adv-x="577" 
d="M579 73v-195h-86v122h-38l-207 304h-80v-304h-86v676h86v-300h81l208 300h100l-237 -334l189 -269h70z" />
    <glyph glyph-name="uni049B" unicode="&#x49b;" horiz-adv-x="447" 
d="M458 69v-187h-80v118h-41l-134 194h-56v-194h-80v456h80v-193h56l134 193h96l-164 -226l116 -161h73z" />
    <glyph glyph-name="uni04B2" unicode="&#x4b2;" horiz-adv-x="574" 
d="M584 73v-195h-86v122h-39l-172 285l-171 -285h-100l214 349l-203 327h98l162 -268l162 268h99l-204 -327l169 -276h71z" />
    <glyph glyph-name="uni04B3" unicode="&#x4b3;" horiz-adv-x="453" 
d="M460 69v-187h-79v118h-44l-110 172l-112 -172h-92l153 229l-153 227h93l110 -172l112 172h92l-153 -228l107 -159h76z" />
    <glyph glyph-name="uni04D4" unicode="&#x4d4;" horiz-adv-x="940" 
d="M453 676h437v-73h-320v-221h285v-73h-285v-239h324v-70h-410v178h-271l-120 -178h-94zM484 594l-227 -345h227v345z" />
    <glyph glyph-name="uni04D5" unicode="&#x4d5;" horiz-adv-x="753" 
d="M601 71.5q34 12.5 59 36.5l40 -54q-24 -27 -69 -45.5t-96 -18.5q-118 0 -167 81q-31 -36 -77.5 -58.5t-104.5 -22.5q-71 0 -109.5 34t-38.5 95q0 67 55 102t155 45l78 8v45q0 41 -21.5 61t-73.5 20q-47 0 -71 -15t-24 -41v-26h-71q-2 22 -2 33q0 52 44.5 83.5t127.5 31.5
q111 0 147 -70q49 70 145 70q61 0 102 -26.5t61 -70.5t20 -95q0 -38 -7 -71h-296q2 -68 33 -106t95 -38q32 0 66 12.5zM634 284q0 52 -28.5 83.5t-78.5 31.5q-59 0 -87.5 -36.5t-31.5 -98.5h224zM140 72q20 -18 60 -18q37 0 70 15.5t56 40.5v109l-76 -9q-64 -9 -97 -29.5
t-33 -57.5q0 -33 20 -51z" />
    <glyph glyph-name="uni1E24" unicode="&#x1e24;" horiz-adv-x="675" 
d="M593 676v-676h-86v318h-339v-318h-86v676h86v-285h339v285h86zM296 -160q-15 13 -15 41t15.5 42t40.5 14q24 0 40 -14t16 -42q0 -27 -16 -40.5t-40 -13.5q-26 0 -41 13z" />
    <glyph glyph-name="uni1E25" unicode="&#x1e25;" horiz-adv-x="519" 
d="M148 690v-284q21 26 60.5 43t86.5 17q83 0 121.5 -44t38.5 -131v-291h-79v284q0 55 -24 81.5t-81 26.5q-38 0 -71 -15t-52 -38v-339h-80v690h80zM218 -160q-15 13 -15 41t15.5 42t40.5 14q24 0 40 -14t16 -42q0 -27 -16 -40.5t-40 -13.5q-26 0 -41 13z" />
    <glyph glyph-name="uni1E36" unicode="&#x1e36;" horiz-adv-x="476" 
d="M456 0h-374v676h86v-603h288v-73zM217 -160q-15 13 -15 41t15.5 42t40.5 14q24 0 40 -14t16 -42q0 -27 -16 -40.5t-40 -13.5q-26 0 -41 13z" />
    <glyph glyph-name="uni1E37" unicode="&#x1e37;" horiz-adv-x="234" 
d="M144 129q0 -30 10 -43.5t36 -13.5h25v-74h-47q-57 0 -80.5 31t-23.5 91v570h80v-561zM76 -160q-15 13 -15 41t15.5 42t40.5 14q24 0 40 -14t16 -42q0 -27 -16 -40.5t-40 -13.5q-26 0 -41 13z" />
    <glyph glyph-name="uni1E44" unicode="&#x1e44;" horiz-adv-x="680" 
d="M598 676v-676h-90l-340 540v-540h-87l1 676h92l338 -537l1 537h85zM299 774q-15 13 -15 41t15.5 42t40.5 14q24 0 40 -14t16 -42q0 -27 -16 -40.5t-40 -13.5q-26 0 -41 13z" />
    <glyph glyph-name="uni1E45" unicode="&#x1e45;" horiz-adv-x="518" 
d="M145 456v-55q21 29 61 47t89 18q83 0 121.5 -44t38.5 -131v-291h-80v284q0 55 -23.5 81.5t-80.5 26.5q-39 0 -71.5 -14.5t-52.5 -38.5v-339h-80v456h78zM218 570q-15 13 -15 41t15.5 42t40.5 14q24 0 40 -14t16 -42q0 -27 -16 -40.5t-40 -13.5q-26 0 -41 13z" />
    <glyph glyph-name="uni1E62" unicode="&#x1e62;" horiz-adv-x="545" 
d="M280 611q-62 0 -96 -33t-34 -84q0 -41 23 -64.5t73 -38.5l90 -27q80 -25 121.5 -66.5t41.5 -110.5q0 -58 -28 -103t-80 -69.5t-123 -24.5q-102 0 -154 37t-78 91l65 44q21 -46 57 -71.5t110 -25.5q69 0 105.5 31.5t36.5 85.5q0 42 -26.5 66t-76.5 39l-90 27
q-155 48 -155 176q0 53 24 97.5t73 71.5t121 27q77 0 130 -28t79 -71l-63 -47q-44 71 -146 71zM231 -160q-15 13 -15 41t15.5 42t40.5 14q24 0 40 -14t16 -42q0 -27 -16 -40.5t-40 -13.5q-26 0 -41 13z" />
    <glyph glyph-name="uni1E63" unicode="&#x1e63;" horiz-adv-x="430" 
d="M218 402q-44 0 -66 -19.5t-22 -49.5q0 -46 56 -60l78 -18q127 -30 127 -128q0 -60 -47 -98.5t-136 -38.5q-115 0 -174 76l49 49q24 -29 52 -45.5t76 -16.5q45 0 71.5 17.5t26.5 50.5q0 25 -17 39.5t-51 23.5l-80 19q-55 13 -83 45t-28 79q0 35 18 66.5t56 52t97 20.5
q56 0 96.5 -18.5t63.5 -45.5l-47 -49q-45 49 -116 49zM174 -160q-15 13 -15 41t15.5 42t40.5 14q24 0 40 -14t16 -42q0 -27 -16 -40.5t-40 -13.5q-26 0 -41 13z" />
    <glyph glyph-name="Wgrave" unicode="&#x1e80;" horiz-adv-x="968" 
d="M697 100l159 576h91l-194 -676h-107l-162 558l-162 -558h-107l-194 676h91l159 -576l163 576h100zM527 744h-75l-87 156h86z" />
    <glyph glyph-name="wgrave" unicode="&#x1e81;" horiz-adv-x="757" 
d="M536 87l114 369h85l-149 -456h-89l-118 354l-119 -354h-89l-148 456h84l114 -369l118 369h79zM421 540h-75l-87 156h86z" />
    <glyph glyph-name="Wacute" unicode="&#x1e82;" horiz-adv-x="968" 
d="M697 100l159 576h91l-194 -676h-107l-162 558l-162 -558h-107l-194 676h91l159 -576l163 576h100zM516 744h-75l76 156h86z" />
    <glyph glyph-name="wacute" unicode="&#x1e83;" horiz-adv-x="757" 
d="M536 87l114 369h85l-149 -456h-89l-118 354l-119 -354h-89l-148 456h84l114 -369l118 369h79zM410 540h-75l76 156h86z" />
    <glyph glyph-name="Wdieresis" unicode="&#x1e84;" horiz-adv-x="968" 
d="M697 100l159 576h91l-194 -676h-107l-162 558l-162 -558h-107l-194 676h91l159 -576l163 576h100zM352 774q-15 13 -15 41t15.5 42t40.5 14q24 0 40 -14t16 -42q0 -27 -16 -40.5t-40 -13.5q-26 0 -41 13zM521 815q0 28 15 42t40 14q24 0 40 -14t16 -42q0 -27 -16 -40.5
t-40 -13.5q-55 0 -55 54z" />
    <glyph glyph-name="wdieresis" unicode="&#x1e85;" horiz-adv-x="757" 
d="M536 87l114 369h85l-149 -456h-89l-118 354l-119 -354h-89l-148 456h84l114 -369l118 369h79zM246 570q-15 13 -15 41t15.5 42t40.5 14q24 0 40 -14t16 -42q0 -27 -16 -40.5t-40 -13.5q-26 0 -41 13zM415 611q0 28 15 42t40 14q24 0 40 -14t16 -42q0 -27 -16 -40.5
t-40 -13.5q-55 0 -55 54z" />
    <glyph glyph-name="uni1E9E" unicode="&#x1e9e;" horiz-adv-x="645" 
d="M567.5 275.5q31.5 -42.5 31.5 -107.5q0 -83 -53 -130t-142 -47q-138 0 -200 101l59 51q22 -36 53.5 -57t84.5 -21t81.5 26t28.5 71q0 42 -18 68t-59 43l-152 62v61l182 173q-56 42 -137 42q-84 0 -124.5 -45t-40.5 -141v-425h-86v424q0 136 67 199t185 63
q69 0 123.5 -18.5t97.5 -58.5v-64l-171 -162l91 -38q67 -27 98.5 -69.5z" />
    <glyph glyph-name="uni1EB8" unicode="&#x1eb8;" horiz-adv-x="538" 
d="M492 0h-410v676h406v-73h-320v-221h284v-73h-284v-236h324v-73zM228 -160q-15 13 -15 41t15.5 42t40.5 14q24 0 40 -14t16 -42q0 -27 -16 -40.5t-40 -13.5q-26 0 -41 13z" />
    <glyph glyph-name="uni1EB9" unicode="&#x1eb9;" horiz-adv-x="471" 
d="M319.5 71.5q34.5 12.5 58.5 36.5l40 -54q-24 -26 -69 -45t-95 -19q-108 0 -158.5 64t-50.5 175q0 104 51 170.5t149 66.5q61 0 102 -26.5t61 -70.5t20 -95q0 -33 -6 -71h-297q2 -68 33 -106t96 -38q31 0 65.5 12.5zM352 284q0 52 -28.5 83.5t-78.5 31.5
q-58 0 -86.5 -36.5t-32.5 -98.5h224zM194 -160q-15 13 -15 41t15.5 42t40.5 14q24 0 40 -14t16 -42q0 -27 -16 -40.5t-40 -13.5q-26 0 -41 13z" />
    <glyph glyph-name="uni1ECA" unicode="&#x1eca;" horiz-adv-x="249" 
d="M168 676v-676h-86v676h86zM83 -160q-15 13 -15 41t15.5 42t40.5 14q24 0 40 -14t16 -42q0 -27 -16 -40.5t-40 -13.5q-26 0 -41 13z" />
    <glyph glyph-name="uni1ECB" unicode="&#x1ecb;" horiz-adv-x="216" 
d="M66 580q-15 13 -15 41t15.5 42t40.5 14q24 0 40 -14t16 -42q0 -27 -16 -40.5t-40 -13.5q-26 0 -41 13zM148 456v-456h-80v456h80zM67 -160q-15 13 -15 41t15.5 42t40.5 14q24 0 40 -14t16 -42q0 -27 -16 -40.5t-40 -13.5q-26 0 -41 13z" />
    <glyph glyph-name="uni1ECC" unicode="&#x1ecc;" horiz-adv-x="656" 
d="M536.5 83.5q-67.5 -93.5 -209.5 -93.5t-208 93t-66 254q0 162 66 255.5t209 93.5t209.5 -94t66.5 -255q0 -160 -67.5 -253.5zM183 135.5q42 -70.5 144 -70.5q104 0 146.5 70.5t42.5 201.5t-42.5 202.5t-145.5 71.5q-101 0 -144 -72t-43 -202q0 -131 42 -201.5zM287 -160
q-15 13 -15 41t15.5 42t40.5 14q24 0 40 -14t16 -42q0 -27 -16 -40.5t-40 -13.5q-26 0 -41 13z" />
    <glyph glyph-name="uni1ECD" unicode="&#x1ecd;" horiz-adv-x="500" 
d="M405 401.5q51 -64.5 51 -172.5q0 -110 -51 -174.5t-157 -64.5q-100 0 -151.5 65t-51.5 173t51 173t155 65q103 0 154 -64.5zM374 228q0 165 -125 165q-63 0 -93 -43t-30 -121q0 -80 30 -123t93 -43q125 0 125 165zM209 -160q-15 13 -15 41t15.5 42t40.5 14q24 0 40 -14
t16 -42q0 -27 -16 -40.5t-40 -13.5q-26 0 -41 13z" />
    <glyph glyph-name="uni1EE4" unicode="&#x1ee4;" horiz-adv-x="651" 
d="M142.5 53.5q-66.5 63.5 -66.5 198.5v424h86v-425q0 -98 40.5 -142t122.5 -44q81 0 122 44.5t41 141.5v425h86v-424q0 -136 -66.5 -199t-182.5 -63t-182.5 63.5zM284 -160q-15 13 -15 41t15.5 42t40.5 14q24 0 40 -14t16 -42q0 -27 -16 -40.5t-40 -13.5q-26 0 -41 13z" />
    <glyph glyph-name="uni1EE5" unicode="&#x1ee5;" horiz-adv-x="518" 
d="M373 0v55q-21 -29 -61 -47t-89 -18q-83 0 -121.5 44t-38.5 131v291h80v-284q0 -55 23.5 -81.5t80.5 -26.5q39 0 71.5 14.5t52.5 38.5v339h80v-456h-78zM218 -160q-15 13 -15 41t15.5 42t40.5 14q24 0 40 -14t16 -42q0 -27 -16 -40.5t-40 -13.5q-26 0 -41 13z" />
    <glyph glyph-name="Ygrave" unicode="&#x1ef2;" horiz-adv-x="574" 
d="M244 270l-231 406h96l179 -326l177 326h97l-232 -406v-270h-86v270zM330 744h-75l-87 156h86z" />
    <glyph glyph-name="ygrave" unicode="&#x1ef3;" horiz-adv-x="480" 
d="M376 456h88l-277 -672h-84l104 245l-192 427h90l143 -333zM283 540h-75l-87 156h86z" />
    <glyph glyph-name="uni2010" unicode="&#x2010;" horiz-adv-x="386" 
d="M323 235h-260v70h260v-70z" />
    <glyph glyph-name="endash" unicode="&#x2013;" horiz-adv-x="586" 
d="M523 235h-460v70h460v-70z" />
    <glyph glyph-name="emdash" unicode="&#x2014;" horiz-adv-x="726" 
d="M663 235h-600v70h600v-70z" />
    <glyph glyph-name="quoteleft" unicode="&#x2018;" horiz-adv-x="213" 
d="M164 676l-25 -224h-91l54 224h62z" />
    <glyph glyph-name="quoteright" unicode="&#x2019;" horiz-adv-x="208" 
d="M55 452l25 224h91l-53 -224h-63z" />
    <glyph glyph-name="quotesinglbase" unicode="&#x201a;" horiz-adv-x="220" 
d="M45 -112l25 224h91l-54 -224h-62z" />
    <glyph glyph-name="quotedblleft" unicode="&#x201c;" horiz-adv-x="352" 
d="M164 676l-25 -224h-91l54 224h62zM303 676l-25 -224h-91l54 224h62z" />
    <glyph glyph-name="quotedblright" unicode="&#x201d;" horiz-adv-x="347" 
d="M55 452l25 224h91l-53 -224h-63zM195 452l25 224h90l-53 -224h-62z" />
    <glyph glyph-name="quotedblbase" unicode="&#x201e;" horiz-adv-x="359" 
d="M45 -112l25 224h91l-54 -224h-62zM184 -112l25 224h91l-54 -224h-62z" />
    <glyph glyph-name="dagger" unicode="&#x2020;" horiz-adv-x="422" 
d="M182 690h59v-393h151v-56h-151v-457h-59v457h-152v56h152v393z" />
    <glyph glyph-name="daggerdbl" unicode="&#x2021;" horiz-adv-x="474" 
d="M208 690h59v-241h151v-56h-151v-308h151v-56h-151v-245h-59v245h-152v56h152v308h-152v56h152v241z" />
    <glyph glyph-name="bullet" unicode="&#x2022;" horiz-adv-x="383" 
d="M110.5 191q-32.5 31 -32.5 78t32.5 78t81.5 31t81 -31t32 -78t-32 -78t-81 -31t-81.5 31z" />
    <glyph glyph-name="ellipsis" unicode="&#x2026;" horiz-adv-x="617" 
d="M70.5 10q-17.5 17 -17.5 42t17.5 42t43.5 17t43.5 -17t17.5 -42t-17.5 -42t-43.5 -17t-43.5 17zM266.5 10q-17.5 17 -17.5 42t17.5 42t43.5 17t43.5 -17t17.5 -42t-17.5 -42t-43.5 -17t-43.5 17zM459.5 10q-17.5 17 -17.5 42t17.5 42t43.5 17t43.5 -17t17.5 -42
t-17.5 -42t-43.5 -17t-43.5 17z" />
    <glyph glyph-name="perthousand" unicode="&#x2030;" horiz-adv-x="1109" 
d="M283.5 632.5q34.5 -47.5 34.5 -133.5q0 -85 -35 -132.5t-108 -47.5t-108 47.5t-35 132.5q0 86 35 133.5t108 47.5q74 0 108.5 -47.5zM235.5 402q18.5 32 18.5 97q0 66 -18.5 98t-60.5 32t-60.5 -32.5t-18.5 -97.5t18.5 -97t60.5 -32t60.5 32zM155 0l405 676h71l-407 -676
h-69zM719.5 308.5q34.5 -47.5 34.5 -133.5q0 -85 -35 -132.5t-108 -47.5t-108 47.5t-35 132.5q0 86 35 133.5t108 47.5q74 0 108.5 -47.5zM671.5 78q18.5 32 18.5 97q0 66 -18.5 98t-60.5 32t-60.5 -32.5t-18.5 -97.5t18.5 -97t60.5 -32t60.5 32zM1041.5 308.5
q34.5 -47.5 34.5 -133.5q0 -85 -35 -132.5t-108 -47.5t-108 47.5t-35 132.5q0 86 35 133.5t108 47.5q74 0 108.5 -47.5zM993.5 78q18.5 32 18.5 97q0 66 -18.5 98t-60.5 32t-60.5 -32.5t-18.5 -97.5t18.5 -97t60.5 -32t60.5 32z" />
    <glyph glyph-name="minute" unicode="&#x2032;" horiz-adv-x="198" 
d="M140 676l-11 -244h-61l-9 244h81z" />
    <glyph glyph-name="second" unicode="&#x2033;" horiz-adv-x="357" 
d="M142 676l-12 -244h-61l-11 244h84zM299 676l-11 -244h-61l-9 244h81z" />
    <glyph glyph-name="guilsinglleft" unicode="&#x2039;" horiz-adv-x="307" 
d="M261 447l-135 -177l135 -178l-53 -38l-179 216l179 215z" />
    <glyph glyph-name="guilsinglright" unicode="&#x203a;" horiz-adv-x="307" 
d="M46 92l135 178l-135 177l53 38l179 -215l-179 -216z" />
    <glyph glyph-name="fraction" unicode="&#x2044;" horiz-adv-x="176" 
d="M-150 0l405 676h71l-407 -676h-69z" />
    <glyph glyph-name="uni2052" unicode="&#x2052;" horiz-adv-x="563" 
d="M44 0l404 676h71l-407 -676h-68zM33.5 460.5q-23.5 22.5 -23.5 57.5t23.5 58t60.5 23q35 0 59 -23t24 -58q0 -34 -24 -57t-59 -23q-37 0 -60.5 22.5zM412 111q-24 23 -24 57q0 35 23.5 58.5t60.5 23.5q35 0 59 -23.5t24 -58.5q0 -34 -24 -57t-59 -23q-36 0 -60 23z" />
    <glyph glyph-name="uni2070" unicode="&#x2070;" horiz-adv-x="354" 
d="M284.5 744.5q34.5 -47.5 34.5 -133.5q0 -85 -35 -132.5t-108 -47.5t-108 47.5t-35 132.5q0 86 35 133.5t108 47.5q74 0 108.5 -47.5zM236.5 514q18.5 32 18.5 97q0 66 -18.5 98t-60.5 32t-60.5 -32.5t-18.5 -97.5t18.5 -97t60.5 -32t60.5 32z" />
    <glyph glyph-name="uni2074" unicode="&#x2074;" horiz-adv-x="334" 
d="M260 506v-70h-62v70h-180v45l177 235h65v-230h49v-50h-49zM198 706l-114 -150h114v150z" />
    <glyph glyph-name="uni2075" unicode="&#x2075;" horiz-adv-x="315" 
d="M249.5 463.5q-34.5 -33.5 -97.5 -33.5q-64 0 -95.5 28t-31.5 73h63q0 -22 16.5 -35.5t47.5 -13.5q33 0 50.5 18.5t17.5 48.5q0 27 -17.5 44t-48.5 17q-34 0 -61 -18l-50 6l24 188h203v-50h-152l-12 -89q30 15 60 15q51 0 84.5 -28.5t33.5 -84.5q0 -52 -34.5 -85.5z" />
    <glyph glyph-name="uni2076" unicode="&#x2076;" horiz-adv-x="336" 
d="M117.5 709.5q-19.5 -30.5 -19.5 -82.5q13 13 36 22.5t52 9.5q55 0 86.5 -30.5t31.5 -81.5q0 -50 -34.5 -84t-98.5 -34q-70 0 -104 46t-34 123q0 89 35.5 141t108.5 52q59 0 89 -27t30 -69h-63q0 21 -14.5 33t-41.5 12q-40 0 -59.5 -30.5zM117 506q18 -25 54 -25
q33 0 51 17.5t18 48.5q0 29 -18 46.5t-51 17.5q-24 0 -43 -12t-29 -28q0 -40 18 -65z" />
    <glyph glyph-name="uni2077" unicode="&#x2077;" horiz-adv-x="280" 
d="M19 736v50h244v-43l-141 -307h-68l139 300h-174z" />
    <glyph glyph-name="uni2078" unicode="&#x2078;" horiz-adv-x="340" 
d="M70.5 457q-37.5 27 -37.5 74q0 34 19 55.5t50 29.5q-62 20 -62 77q0 46 35 72.5t95 26.5t94.5 -26.5t34.5 -72.5q0 -57 -61 -77q31 -8 50 -29.5t19 -55.5q0 -47 -37.5 -74t-99.5 -27t-99.5 27zM122.5 727.5q-17.5 -13.5 -17.5 -37.5q0 -23 18 -36t47 -13q28 0 46.5 13
t18.5 36q0 24 -17.5 37.5t-47.5 13.5t-47.5 -13.5zM117.5 576q-20.5 -15 -20.5 -40t20.5 -39.5t53.5 -14.5q31 0 51 14.5t20 39.5t-19.5 40t-52.5 15q-32 0 -52.5 -15z" />
    <glyph glyph-name="uni2079" unicode="&#x2079;" horiz-adv-x="336" 
d="M117.5 492.5q15.5 -11.5 40.5 -11.5q40 0 59.5 30.5t19.5 82.5q-12 -12 -36 -22.5t-52 -10.5q-55 0 -86.5 30.5t-31.5 81.5t34.5 84.5t99.5 33.5q69 0 103 -46t34 -123q0 -89 -35.5 -141t-108.5 -52q-58 0 -88.5 27t-30.5 69h63q0 -21 15.5 -32.5zM218 714.5
q-18 25.5 -53 25.5q-34 0 -51.5 -18t-17.5 -48t17.5 -47t51.5 -17q24 0 42.5 11.5t28.5 28.5q0 39 -18 64.5z" />
    <glyph glyph-name="uni2080" unicode="&#x2080;" horiz-adv-x="354" 
d="M284.5 208.5q34.5 -47.5 34.5 -133.5q0 -85 -35 -132.5t-108 -47.5t-108 47.5t-35 132.5q0 86 35 133.5t108 47.5q74 0 108.5 -47.5zM236.5 -22q18.5 32 18.5 97q0 66 -18.5 98t-60.5 32t-60.5 -32.5t-18.5 -97.5t18.5 -97t60.5 -32t60.5 32z" />
    <glyph glyph-name="uni2081" unicode="&#x2081;" horiz-adv-x="236" 
d="M122 193l-101 -37l-15 48l124 46h55v-350h-63v293z" />
    <glyph glyph-name="uni2082" unicode="&#x2082;" horiz-adv-x="310" 
d="M239.5 226.5q33.5 -29.5 33.5 -75.5q0 -34 -20 -63.5t-58 -65.5l-77 -72h160v-50h-244v43l120 115q27 26 40.5 47.5t13.5 45.5t-15 39t-42 15q-29 0 -43.5 -16t-14.5 -45h-62q0 51 30.5 81.5t89.5 30.5q55 0 88.5 -29.5z" />
    <glyph glyph-name="uni2083" unicode="&#x2083;" horiz-adv-x="323" 
d="M267.5 50.5q21.5 -22.5 21.5 -56.5q0 -45 -36 -72.5t-96 -27.5q-63 0 -95.5 27t-32.5 70h63q0 -21 17.5 -33t47.5 -12q31 0 49.5 13.5t18.5 37.5q0 26 -21 41.5t-59 15.5h-35v50h35q34 0 54 13.5t20 37.5q0 23 -17 36.5t-45 13.5t-44 -12.5t-16 -32.5h-63q0 42 31 69
t92 27q58 0 92 -27.5t34 -70.5q0 -30 -19 -51t-48 -28q30 -6 51.5 -28.5z" />
    <glyph glyph-name="uni2084" unicode="&#x2084;" horiz-adv-x="334" 
d="M260 -30v-70h-62v70h-180v45l177 235h65v-230h49v-50h-49zM198 170l-114 -150h114v150z" />
    <glyph glyph-name="uni2085" unicode="&#x2085;" horiz-adv-x="314" 
d="M249.5 -72.5q-34.5 -33.5 -97.5 -33.5q-64 0 -95.5 28t-31.5 73h63q0 -22 16.5 -35.5t47.5 -13.5q33 0 50.5 18.5t17.5 48.5q0 27 -17.5 44t-48.5 17q-34 0 -61 -18l-50 6l24 188h203v-50h-152l-12 -89q30 15 60 15q51 0 84.5 -28.5t33.5 -84.5q0 -52 -34.5 -85.5z" />
    <glyph glyph-name="uni2086" unicode="&#x2086;" horiz-adv-x="335" 
d="M117.5 174.5q-19.5 -30.5 -19.5 -82.5q13 13 36 22.5t52 9.5q55 0 86.5 -30.5t31.5 -81.5q0 -50 -34.5 -84t-98.5 -34q-70 0 -104 46t-34 123q0 89 35.5 141t108.5 52q59 0 89 -27t30 -69h-63q0 21 -14.5 33t-41.5 12q-40 0 -59.5 -30.5zM117 -29q18 -25 54 -25
q33 0 51 17.5t18 48.5q0 29 -18 46.5t-51 17.5q-24 0 -43 -12t-29 -28q0 -40 18 -65z" />
    <glyph glyph-name="uni2087" unicode="&#x2087;" horiz-adv-x="280" 
d="M19 200v50h244v-43l-141 -307h-68l139 300h-174z" />
    <glyph glyph-name="uni2088" unicode="&#x2088;" horiz-adv-x="340" 
d="M70.5 -79q-37.5 27 -37.5 74q0 34 19 55.5t50 29.5q-62 20 -62 77q0 46 35 72.5t95 26.5t94.5 -26.5t34.5 -72.5q0 -57 -61 -77q31 -8 50 -29.5t19 -55.5q0 -47 -37.5 -74t-99.5 -27t-99.5 27zM122.5 191.5q-17.5 -13.5 -17.5 -37.5q0 -23 18 -36t47 -13q28 0 46.5 13
t18.5 36q0 24 -17.5 37.5t-47.5 13.5t-47.5 -13.5zM117.5 40q-20.5 -15 -20.5 -40t20.5 -39.5t53.5 -14.5q31 0 51 14.5t20 39.5t-19.5 40t-52.5 15q-32 0 -52.5 -15z" />
    <glyph glyph-name="uni2089" unicode="&#x2089;" horiz-adv-x="335" 
d="M117.5 -42.5q15.5 -11.5 40.5 -11.5q40 0 59.5 30.5t19.5 82.5q-12 -12 -36 -22.5t-52 -10.5q-55 0 -86.5 30.5t-31.5 81.5t34.5 84.5t99.5 33.5q69 0 103 -46t34 -123q0 -89 -35.5 -141t-108.5 -52q-58 0 -88.5 27t-30.5 69h63q0 -21 15.5 -32.5zM218 179.5
q-18 25.5 -53 25.5q-34 0 -51.5 -18t-17.5 -48t17.5 -47t51.5 -17q24 0 42.5 11.5t28.5 28.5q0 39 -18 64.5z" />
    <glyph glyph-name="uni20A8" unicode="&#x20a8;" horiz-adv-x="535" 
d="M490 618h-126q44 -37 51 -109h75v-59h-75q-8 -63 -52 -105.5t-115 -52.5l184 -292h-99l-176 283h-100v70h107q76 0 114.5 24t47.5 73h-268v59h269q-10 49 -44.5 73t-106.5 24h-119v70h433v-58z" />
    <glyph glyph-name="Euro" unicode="&#x20ac;" horiz-adv-x="576" 
d="M177.5 619q63.5 67 176.5 67q48 0 90 -11t84 -32l-29 -72q-71 39 -147 39q-73 0 -114 -47.5t-53 -130.5h261l-24 -58h-242q-1 -11 -1 -34q0 -16 2 -44h213l-22 -59h-184q15 -80 56.5 -126t112.5 -46q36 0 76 11.5t77 35.5l21 -75q-86 -48 -177 -48q-111 0 -174 64
t-81 184h-56v59h50q-1 14 -1 44q0 22 1 34h-50v58h55q16 120 79.5 187z" />
    <glyph glyph-name="uni2113" unicode="&#x2113;" horiz-adv-x="383" 
d="M233 -11q-107 0 -107 128v123q-13 -11 -33.5 -27t-41.5 -31l-29 47q21 15 52 39.5t52 43.5v225q0 85 32 127t86 42q50 0 76 -34.5t26 -97.5q0 -74 -40.5 -143t-120.5 -145v-160q0 -39 14 -58.5t39 -19.5q23 0 47.5 10t45.5 27l25 -50q-54 -46 -123 -46zM273 625.5
q-13 19.5 -34 19.5q-25 0 -39.5 -25.5t-14.5 -70.5v-188q101 108 101 208q0 37 -13 56.5z" />
    <glyph glyph-name="uni2116" unicode="&#x2116;" horiz-adv-x="1130" 
d="M1044.5 627q50.5 -59 50.5 -152q0 -97 -50.5 -156.5t-152.5 -59.5q-96 0 -146.5 59.5t-50.5 153.5q0 95 50 154.5t150 59.5q99 0 149.5 -59zM598 676v-676h-90l-340 540v-540h-87l1 676h92l338 -537l1 537h85zM984 368q29 38 29 104q0 144 -120 144q-59 0 -88 -38
t-29 -103q0 -68 29 -106.5t88 -38.5q62 0 91 38zM1078 129h-366v70h366v-70z" />
    <glyph glyph-name="uni2117" unicode="&#x2117;" horiz-adv-x="814" 
d="M97.5 523.5q46.5 81.5 128 126.5t182.5 45t182 -45t127 -126.5t46 -186.5t-46 -187t-127 -127.5t-182 -45.5t-182.5 45.5t-128 127.5t-46.5 187t46.5 186.5zM154 180.5q37 -67.5 103 -104t151 -36.5q84 0 150 36.5t103 104t37 156.5t-37 156.5t-103 103.5t-150 36
q-85 0 -151 -36t-103 -103.5t-37 -156.5t37 -156.5zM539.5 500q37.5 -34 37.5 -91t-38 -90.5t-112 -33.5h-85v-151h-63v400h148q75 0 112.5 -34zM490.5 461q-19.5 20 -62.5 20h-86v-142h86q82 0 82 70q0 32 -19.5 52z" />
    <glyph glyph-name="trademark" unicode="&#x2122;" horiz-adv-x="641" 
d="M253 570h-79v-200h-45v200h-76v37h200v-37zM548 607l28 -237h-45l-18 188l-56 -188h-50l-51 186l-21 -186h-44l28 237h64l50 -186l53 186h62z" />
    <glyph glyph-name="uni2126" unicode="&#x2126;" horiz-adv-x="672" 
d="M620 73v-73h-245v70q66 42 107.5 118.5t41.5 177.5q0 112 -46.5 178.5t-142.5 66.5q-95 0 -141 -67t-46 -178q0 -101 41.5 -177.5t108.5 -118.5v-70h-245v73h135q-55 42 -91.5 120.5t-36.5 175.5q0 88 29 159.5t90.5 114.5t155.5 43q95 0 157.5 -43t91.5 -114.5
t29 -159.5q0 -96 -37 -175t-92 -121h136z" />
    <glyph glyph-name="estimated" unicode="&#x212e;" horiz-adv-x="748" 
d="M196 108q74 -74 183 -74q80 0 139 36.5t106 115.5l45 -27q-59 -92 -125 -131.5t-165 -39.5q-97 0 -171.5 46t-115 126t-40.5 178t40.5 178t115 126t171.5 46q96 0 170.5 -44.5t116 -124t41.5 -181.5h-511v-230zM565 568q-81 75 -187 75q-107 0 -182 -75v-184h369v184z
" />
    <glyph glyph-name="uni2153" unicode="&#x2153;" horiz-adv-x="750" 
d="M682.5 150.5q21.5 -22.5 21.5 -56.5q0 -45 -36 -72.5t-96 -27.5q-63 0 -95.5 27t-32.5 70h63q0 -21 17.5 -33t47.5 -12q31 0 49.5 13.5t18.5 37.5q0 26 -21 41.5t-59 15.5h-35v50h35q34 0 54 13.5t20 37.5q0 23 -17 36.5t-45 13.5t-44 -12.5t-16 -32.5h-63q0 42 31 69
t92 27q58 0 92 -27.5t34 -70.5q0 -30 -19 -51t-48 -28q30 -6 51.5 -28.5zM116 0l405 676h71l-407 -676h-69zM148 617l-101 -37l-15 48l124 46h55v-350h-63v293z" />
    <glyph glyph-name="uni2154" unicode="&#x2154;" horiz-adv-x="798" 
d="M256.5 650.5q33.5 -29.5 33.5 -75.5q0 -34 -20 -63.5t-58 -65.5l-77 -72h160v-50h-244v43l120 115q27 26 40.5 47.5t13.5 45.5t-15 39t-42 15q-29 0 -43.5 -16t-14.5 -45h-62q0 51 30.5 81.5t89.5 30.5q55 0 88.5 -29.5zM732.5 150.5q21.5 -22.5 21.5 -56.5
q0 -45 -36 -72.5t-96 -27.5q-63 0 -95.5 27t-32.5 70h63q0 -21 17.5 -33t47.5 -12q31 0 49.5 13.5t18.5 37.5q0 26 -21 41.5t-59 15.5h-35v50h35q34 0 54 13.5t20 37.5q0 23 -17 36.5t-45 13.5t-44 -12.5t-16 -32.5h-63q0 42 31 69t92 27q58 0 92 -27.5t34 -70.5
q0 -30 -19 -51t-48 -28q30 -6 51.5 -28.5zM167 0l405 676h71l-407 -676h-69z" />
    <glyph glyph-name="oneeighth" unicode="&#x215b;" horiz-adv-x="756" 
d="M475.5 21q-37.5 27 -37.5 74q0 34 19 55.5t50 29.5q-62 20 -62 77q0 46 35 72.5t95 26.5t94.5 -26.5t34.5 -72.5q0 -57 -61 -77q31 -8 50 -29.5t19 -55.5q0 -47 -37.5 -74t-99.5 -27t-99.5 27zM527.5 291.5q-17.5 -13.5 -17.5 -37.5q0 -23 18 -36t47 -13q28 0 46.5 13
t18.5 36q0 24 -17.5 37.5t-47.5 13.5t-47.5 -13.5zM522.5 140q-20.5 -15 -20.5 -40t20.5 -39.5t53.5 -14.5q31 0 51 14.5t20 39.5t-19.5 40t-52.5 15q-32 0 -52.5 -15zM116 0l405 676h71l-407 -676h-69zM148 617l-101 -37l-15 48l124 46h55v-350h-63v293z" />
    <glyph glyph-name="threeeighths" unicode="&#x215c;" horiz-adv-x="795" 
d="M282.5 474.5q21.5 -22.5 21.5 -56.5q0 -45 -36 -72.5t-96 -27.5q-63 0 -95.5 27t-32.5 70h63q0 -21 17.5 -33t47.5 -12q31 0 49.5 13.5t18.5 37.5q0 26 -21 41.5t-59 15.5h-35v50h35q34 0 54 13.5t20 37.5q0 23 -17 36.5t-45 13.5t-44 -12.5t-16 -32.5h-63q0 42 31 69
t92 27q58 0 92 -27.5t34 -70.5q0 -30 -19 -51t-48 -28q30 -6 51.5 -28.5zM157 0l405 676h71l-407 -676h-69zM515.5 21q-37.5 27 -37.5 74q0 34 19 55.5t50 29.5q-62 20 -62 77q0 46 35 72.5t95 26.5t94.5 -26.5t34.5 -72.5q0 -57 -61 -77q31 -8 50 -29.5t19 -55.5
q0 -47 -37.5 -74t-99.5 -27t-99.5 27zM567.5 291.5q-17.5 -13.5 -17.5 -37.5q0 -23 18 -36t47 -13q28 0 46.5 13t18.5 36q0 24 -17.5 37.5t-47.5 13.5t-47.5 -13.5zM562.5 140q-20.5 -15 -20.5 -40t20.5 -39.5t53.5 -14.5q31 0 51 14.5t20 39.5t-19.5 40t-52.5 15
q-32 0 -52.5 -15z" />
    <glyph glyph-name="fiveeighths" unicode="&#x215d;" horiz-adv-x="784" 
d="M262.5 351.5q-34.5 -33.5 -97.5 -33.5q-64 0 -95.5 28t-31.5 73h63q0 -22 16.5 -35.5t47.5 -13.5q33 0 50.5 18.5t17.5 48.5q0 27 -17.5 44t-48.5 17q-34 0 -61 -18l-50 6l24 188h203v-50h-152l-12 -89q30 15 60 15q51 0 84.5 -28.5t33.5 -84.5q0 -52 -34.5 -85.5zM145 0
l405 676h71l-407 -676h-69zM503.5 21q-37.5 27 -37.5 74q0 34 19 55.5t50 29.5q-62 20 -62 77q0 46 35 72.5t95 26.5t94.5 -26.5t34.5 -72.5q0 -57 -61 -77q31 -8 50 -29.5t19 -55.5q0 -47 -37.5 -74t-99.5 -27t-99.5 27zM555.5 291.5q-17.5 -13.5 -17.5 -37.5q0 -23 18 -36
t47 -13q28 0 46.5 13t18.5 36q0 24 -17.5 37.5t-47.5 13.5t-47.5 -13.5zM550.5 140q-20.5 -15 -20.5 -40t20.5 -39.5t53.5 -14.5q31 0 51 14.5t20 39.5t-19.5 40t-52.5 15q-32 0 -52.5 -15z" />
    <glyph glyph-name="seveneighths" unicode="&#x215e;" horiz-adv-x="711" 
d="M43 624v50h244v-43l-141 -307h-68l139 300h-174zM432.5 21q-37.5 27 -37.5 74q0 34 19 55.5t50 29.5q-62 20 -62 77q0 46 35 72.5t95 26.5t94.5 -26.5t34.5 -72.5q0 -57 -61 -77q31 -8 50 -29.5t19 -55.5q0 -47 -37.5 -74t-99.5 -27t-99.5 27zM484.5 291.5
q-17.5 -13.5 -17.5 -37.5q0 -23 18 -36t47 -13q28 0 46.5 13t18.5 36q0 24 -17.5 37.5t-47.5 13.5t-47.5 -13.5zM479.5 140q-20.5 -15 -20.5 -40t20.5 -39.5t53.5 -14.5q31 0 51 14.5t20 39.5t-19.5 40t-52.5 15q-32 0 -52.5 -15zM73 0l405 676h71l-407 -676h-69z" />
    <glyph glyph-name="arrowleft" unicode="&#x2190;" horiz-adv-x="750" 
d="M372 500l-186 -186h489v-70h-489l185 -185l-47 -48l-268 268l268 270z" />
    <glyph glyph-name="arrowup" unicode="&#x2191;" horiz-adv-x="750" 
d="M596 291l-187 185v-488h-69v488l-186 -185l-48 47l268 268l270 -268z" />
    <glyph glyph-name="arrowright" unicode="&#x2192;" horiz-adv-x="750" 
d="M378 65l186 186h-489v70h489l-185 185l47 48l268 -268l-268 -270z" />
    <glyph glyph-name="arrowdown" unicode="&#x2193;" horiz-adv-x="750" 
d="M154 273l187 -185v488h69v-488l186 185l48 -47l-268 -269l-270 269z" />
    <glyph glyph-name="uni2196" unicode="&#x2196;" horiz-adv-x="750" 
d="M541 443h-263l346 -346l-50 -49l-346 345v-262h-68v380h381v-68z" />
    <glyph glyph-name="uni2197" unicode="&#x2197;" horiz-adv-x="750" 
d="M522 130v263l-346 -345l-50 49l346 346h-263v68h380v-381h-67z" />
    <glyph glyph-name="uni2198" unicode="&#x2198;" horiz-adv-x="750" 
d="M205 122h263l-346 346l50 49l346 -345v262h68v-380h-381v68z" />
    <glyph glyph-name="uni2199" unicode="&#x2199;" horiz-adv-x="750" 
d="M232 435v-263l345 345l50 -49l-346 -346h263v-68h-380v381h68z" />
    <glyph glyph-name="partialdiff" unicode="&#x2202;" horiz-adv-x="525" 
d="M432 534q42 -98 42 -220q0 -144 -52 -234t-168 -90q-103 0 -156 62.5t-53 166.5q0 103 51 165.5t142 62.5q58 0 97.5 -27.5t59.5 -69.5q-1 97 -48.5 185t-127.5 155h102q69 -58 111 -156zM390 261q-20 48 -55 79.5t-85 31.5q-63 0 -94.5 -42t-31.5 -113
q0 -69 31.5 -112.5t98.5 -43.5q128 0 136 200z" />
    <glyph glyph-name="uni2206" unicode="&#x2206;" horiz-adv-x="648" 
d="M637 0h-625l261 676h103zM126 73h396l-198 522z" />
    <glyph glyph-name="product" unicode="&#x220f;" horiz-adv-x="744" 
d="M703 606h-67v-822h-82v822h-364v-822h-82v822h-67v70h662v-70z" />
    <glyph glyph-name="summation" unicode="&#x2211;" horiz-adv-x="586" 
d="M42 -216v88l259 367l-258 348v89h499v-70h-419l272 -367l-272 -385h421v-70h-502z" />
    <glyph glyph-name="minus" unicode="&#x2212;" 
d="M511 305v-69h-463v69h463z" />
    <glyph glyph-name="uni2215" unicode="&#x2215;" horiz-adv-x="176" 
d="M-150 0l405 676h71l-407 -676h-69z" />
    <glyph glyph-name="uni2219" unicode="&#x2219;" horiz-adv-x="244" 
d="M76 227q-18 18 -18 44q0 27 18 44.5t46 17.5q27 0 45 -17.5t18 -44.5q0 -26 -18 -44t-45 -18q-28 0 -46 18z" />
    <glyph glyph-name="radical" unicode="&#x221a;" horiz-adv-x="614" 
d="M267 -216l-151 342l-73 -34l-28 61l148 67l142 -341l213 817h83l-244 -912h-90z" />
    <glyph glyph-name="infinity" unicode="&#x221e;" horiz-adv-x="738" 
d="M643 152q-43 -44 -109 -44q-92 0 -164 105q-34 -48 -73.5 -76t-90.5 -28q-66 0 -110 42.5t-44 111.5q0 68 43 112t109 44q51 0 90.5 -29.5t75.5 -80.5q74 112 163 112q43 0 78 -19.5t55 -55.5t20 -82q0 -68 -43 -112zM210 356q-40 0 -65.5 -26.5t-25.5 -66.5
q0 -42 26 -67t66 -25q58 0 119 91q-67 94 -120 94zM594.5 330.5q-25.5 25.5 -67.5 25.5q-33 0 -58.5 -24.5t-57.5 -69.5q30 -44 56.5 -67.5t60.5 -23.5q41 0 66.5 26t25.5 66q0 42 -25.5 67.5z" />
    <glyph glyph-name="integral" unicode="&#x222b;" horiz-adv-x="366" 
d="M187.5 -183q-34.5 -43 -109.5 -43q-27 0 -56 9v70q28 -5 56 -5q36 0 51 21.5t15 64.5v618q0 68 34.5 111t109.5 43q27 0 56 -9v-70q-28 5 -57 5q-36 0 -50.5 -21.5t-14.5 -64.5v-618q0 -68 -34.5 -111z" />
    <glyph glyph-name="approxequal" unicode="&#x2248;" 
d="M383 307q-26 0 -51 9t-65 27q-30 15 -50.5 22.5t-39.5 7.5q-21 0 -37.5 -9.5t-28.5 -19.5t-17 -14l-17 64q21 23 48.5 37t57.5 14q23 0 46 -8.5t59 -26.5q33 -16 55 -24.5t42 -8.5t37.5 10t29.5 20.5t16 13.5l16 -63q-42 -51 -101 -51zM382 97q-27 0 -53 9.5t-62 27.5
q-31 16 -51 23.5t-38 7.5q-21 0 -38 -9t-29.5 -19.5t-18.5 -14.5l-16 63q20 23 47.5 36.5t58.5 13.5q23 0 46.5 -8.5t59.5 -26.5q33 -16 55 -24.5t42 -8.5t37 10t28.5 20.5t16.5 13.5l16 -63q-42 -51 -101 -51z" />
    <glyph glyph-name="notequal" unicode="&#x2260;" 
d="M83 189h153l40 163h-193v69h210l30 118l47 -10l-27 -108h134v-69h-151l-40 -163h191v-70h-209l-31 -124l-46 10l28 114h-136v70z" />
    <glyph glyph-name="lessequal" unicode="&#x2264;" 
d="M472 599v-76l-323 -130l323 -129v-77l-394 166v80zM471 99v-68h-393v68h393z" />
    <glyph glyph-name="greaterequal" unicode="&#x2265;" 
d="M92 187v77l323 129l-323 130v76l394 -166v-80zM473 99v-68h-394v68h394z" />
    <glyph glyph-name="lozenge" unicode="&#x25ca;" horiz-adv-x="602" 
d="M263 0l-235 351l235 345h75l236 -345l-236 -351h-75zM118 351l183 -274l181 274l-181 267z" />
    <glyph glyph-name="circle" unicode="&#x25cb;" horiz-adv-x="781" 
d="M94.5 520q43.5 79 121 122.5t174.5 43.5q98 0 175 -43.5t120.5 -122.5t43.5 -182q0 -102 -43.5 -181.5t-120.5 -123.5t-175 -44q-97 0 -174.5 44t-121 123.5t-43.5 181.5q0 103 43.5 182zM147.5 184q34.5 -65 97 -100t145.5 -35t145.5 35t97 100t34.5 154t-34.5 154
t-97 99.5t-145.5 34.5t-145.5 -34.5t-97 -99.5t-34.5 -154t34.5 -154z" />
    <glyph glyph-name="uni27E8" unicode="&#x27e8;" horiz-adv-x="270" 
d="M47 240l134 455l67 -18l-123 -437l121 -436l-65 -18z" />
    <glyph glyph-name="uni27E9" unicode="&#x27e9;" horiz-adv-x="270" 
d="M145 240l-123 437l67 18l134 -455l-134 -454l-65 18z" />
    <glyph glyph-name="uniF6C3" unicode="&#xf6c3;" horiz-adv-x="0" 
d="M-358 -216l25 148h91l-54 -148h-62z" />
    <glyph glyph-name="uniF8FF" unicode="&#xf8ff;" horiz-adv-x="599" 
d="M506 656v-656h-413v656h413zM468 617h-337v-578h337v578z" />
    <glyph glyph-name="exclam.sc" horiz-adv-x="223" 
d="M67 507h90l-15 -344h-62zM73 9q-15 14 -15 36q0 21 15 35.5t39 14.5q23 0 38.5 -14.5t15.5 -35.5q0 -22 -15.5 -36t-38.5 -14q-24 0 -39 14z" />
    <glyph glyph-name="numbersign.sc" horiz-adv-x="530" 
d="M50 206h82l18 106h-80l8 66h82l22 129h72l-22 -129h101l22 129h72l-21 -129h84l-9 -66h-86l-18 -106h84l-8 -66h-87l-23 -140h-73l24 140h-100l-24 -140h-73l24 140h-80zM305 206l17 106h-101l-17 -106h101z" />
    <glyph glyph-name="dollar.sc" horiz-adv-x="466" 
d="M376 39q-44 -40 -120 -46v-70h-43v69q-125 6 -174 94l59 43q15 -29 41 -47t74 -21v161l-25 7q-127 37 -127 135q0 58 38.5 100.5t113.5 49.5v55h43v-54q57 -3 96.5 -23.5t60.5 -51.5l-58 -43q-33 45 -99 49v-159l31 -8q66 -19 99.5 -52.5t33.5 -83.5q0 -64 -44 -104z
M159 325q17 -16 54 -26v146q-35 -6 -53 -26t-18 -50q0 -28 17 -44zM318 85.5q21 20.5 21 52.5q0 27 -19.5 44t-57.5 27l-6 2v-150q41 4 62 24.5z" />
    <glyph glyph-name="percent.sc" horiz-adv-x="679" 
d="M249 474.5q29 -36.5 29 -101.5q0 -138 -120 -138q-119 0 -119 138q0 65 29 101.5t90 36.5q62 0 91 -36.5zM143 0l327 507h65l-329 -507h-63zM204.5 302.5q13.5 22.5 13.5 70.5t-13.5 70.5t-46.5 22.5q-31 0 -45 -23t-14 -70q0 -48 13.5 -70.5t45.5 -22.5q33 0 46.5 22.5z
M640 134q0 -65 -29.5 -101.5t-90.5 -36.5t-90.5 36.5t-29.5 101.5t29.5 101.5t90.5 36.5q120 0 120 -138zM565.5 64q13.5 23 13.5 70q0 48 -13.5 70.5t-45.5 22.5t-45.5 -22.5t-13.5 -70.5q0 -47 14 -70t45 -23q32 0 45.5 23z" />
    <glyph glyph-name="ampersand.sc" horiz-adv-x="549" 
d="M520 6v-6h-87l-67 66q-36 -35 -76.5 -54.5t-94.5 -19.5q-69 0 -109 33t-40 85q0 46 30 78.5t82 66.5l9 6l-16 15q-33 32 -51.5 57t-18.5 59q0 52 43 87.5t114 35.5q44 0 78 -16.5t53 -44.5t19 -62q0 -36 -24.5 -64t-74.5 -64l-20 -14l90 -88l12 15l73 93l54 -40l-74 -95
q-10 -14 -16 -20zM221 297l25 16q37 25 53 41.5t16 37.5q0 26 -20.5 43.5t-58.5 17.5q-37 0 -59.5 -18t-22.5 -43q0 -21 13 -39t37 -40zM260.5 69.5q28.5 15.5 56.5 44.5l-103 100l-15 -10q-43 -29 -61.5 -47t-18.5 -44q0 -25 22 -42t57 -17q34 0 62.5 15.5z" />
    <glyph glyph-name="section.sc" horiz-adv-x="473" 
d="M404 156q-15 -24 -42 -42q28 -17 41.5 -36t13.5 -46q0 -50 -47.5 -84t-137.5 -34q-65 0 -112 19.5t-73 52.5l43 48q23 -27 60 -43.5t86 -16.5q45 0 72 12t27 36q0 19 -19.5 31t-58.5 24l-83 28q-56 19 -85 46t-29 68q0 26 14 50.5t40 42.5q-53 32 -53 82q0 29 19.5 57
t60 46t98.5 18q57 0 100 -16t73 -52l-46 -46q-26 27 -60.5 40t-72.5 13q-39 0 -65 -13.5t-26 -36.5q0 -19 21 -31.5t65 -26.5l65 -21q63 -21 94.5 -49.5t31.5 -71.5q0 -24 -15 -48zM148 262.5q-10 -14.5 -10 -29.5q0 -23 20 -38t62 -28l81 -27q16 9 28 22.5t12 30.5
q0 25 -21.5 40t-62.5 27l-82 26q-17 -9 -27 -23.5z" />
    <glyph glyph-name="paragraph.sc" horiz-adv-x="449" 
d="M271 -20h-68v137q-83 0 -121 27t-38 85q0 53 34 83t104 30h89v-362zM301.5 -83q14.5 22 14.5 60v365h69v-352q0 -57 -19.5 -97t-74.5 -63l-39 47q35 18 49.5 40z" />
    <glyph glyph-name="parenleft.sc" horiz-adv-x="257" 
d="M78 -4.5q-29 82.5 -29 184.5q0 105 29.5 184t85.5 163l58 -20q-45 -83 -69 -161.5t-24 -165.5q0 -89 22 -164.5t70 -160.5l-57 -22q-57 80 -86 162.5z" />
    <glyph glyph-name="slash.sc" horiz-adv-x="305" 
d="M106 0h-74v10l165 497h76v-9z" />
    <glyph glyph-name="parenright.sc" horiz-adv-x="256" 
d="M106 15.5q22 75.5 22 164.5q0 87 -24.5 165.5t-69.5 161.5l58 20q56 -84 85.5 -163t29.5 -184q0 -102 -29 -184.5t-86 -162.5l-56 22q48 85 70 160.5z" />
    <glyph glyph-name="bracketleft.sc" horiz-adv-x="284" 
d="M242 459h-98v-558h98v-63h-176v684h176v-63z" />
    <glyph glyph-name="backslash.sc" horiz-adv-x="308" 
d="M107 507l169 -497v-10h-74l-171 498v9h76z" />
    <glyph glyph-name="bracketright.sc" horiz-adv-x="283" 
d="M217 -162h-176v63h98v558h-98v63h176v-684z" />
    <glyph glyph-name="braceleft.sc" horiz-adv-x="280" 
d="M120 178q26 -4 44 -23t18 -61v-147q0 -30 12 -41t41 -11v-57q-69 0 -99.5 23t-30.5 82v145q0 33 -18 47t-56 14v57q39 0 56.5 14t17.5 49v144q0 57 30.5 81t99.5 24v-58q-29 0 -41 -10.5t-12 -40.5v-147q0 -75 -62 -84z" />
    <glyph glyph-name="bar.sc" horiz-adv-x="183" 
d="M66 522h51v-684h-51v684z" />
    <glyph glyph-name="braceright.sc" horiz-adv-x="280" 
d="M46 -105q29 0 41 11t12 41v147q0 42 17.5 61t43.5 23q-61 8 -61 84v147q0 30 -12.5 40.5t-40.5 10.5v58q68 0 99 -24t31 -81v-144q0 -35 17.5 -49t56.5 -14v-57q-39 0 -56.5 -13.5t-17.5 -47.5v-145q0 -59 -30.5 -82t-99.5 -23v57z" />
    <glyph glyph-name="zero.sc" horiz-adv-x="507" 
d="M405 446.5q49 -68.5 49 -192.5t-49 -193t-151 -69q-103 0 -152 69t-49 193q0 123 49.5 192t151.5 69t151 -68.5zM345 108q28 49 28 146t-28 145.5t-91 48.5t-91.5 -49t-28.5 -145q0 -97 28.5 -146t91.5 -49t91 49z" />
    <glyph glyph-name="one.sc" horiz-adv-x="341" 
d="M186 433l-147 -55l-21 61l177 68h70v-507h-79v433z" />
    <glyph glyph-name="two.sc" horiz-adv-x="447" 
d="M341.5 473q46.5 -42 46.5 -109q0 -48 -27.5 -90t-81.5 -95l-120 -115h238v-64h-343v56l172 170q40 39 60 71.5t20 66.5q0 38 -23 61t-65 23q-43 0 -65.5 -24.5t-22.5 -66.5h-80q0 72 43 115t125 43q77 0 123.5 -42z" />
    <glyph glyph-name="three.sc" horiz-adv-x="468" 
d="M384.5 218q31.5 -34 31.5 -83q0 -63 -51 -103t-134 -40q-90 0 -135.5 38t-45.5 98h79q0 -31 27 -50t75 -19q47 0 75 21.5t28 58.5q0 41 -32 64.5t-87 23.5h-51v65h51q51 0 80.5 20.5t29.5 59.5q0 34 -25 55t-69 21q-45 0 -69.5 -19.5t-24.5 -49.5h-80q0 59 44 97.5
t130 38.5q80 0 128 -39.5t48 -100.5q0 -44 -28 -74.5t-70 -40.5q44 -8 75.5 -42z" />
    <glyph glyph-name="four.sc" horiz-adv-x="487" 
d="M373 106v-106h-80v106h-259v57l256 344h83v-337h73v-64h-73zM293 402l-175 -232h175v232z" />
    <glyph glyph-name="five.sc" horiz-adv-x="452" 
d="M357 40.5q-49 -48.5 -137 -48.5q-89 0 -134 40t-45 104h79q0 -35 25.5 -56t73.5 -21q52 0 78 28t26 76q0 44 -26 69.5t-75 25.5q-48 0 -92 -29l-64 9l35 269h284v-64h-220l-19 -141q44 22 91 22q74 0 121.5 -41t47.5 -120q0 -74 -49 -122.5z" />
    <glyph glyph-name="six.sc" horiz-adv-x="481" 
d="M317 429.5q-24 18.5 -66 18.5q-59 0 -88.5 -47.5t-29.5 -129.5q18 20 53.5 36t77.5 16q79 0 123.5 -43.5t44.5 -117.5q0 -73 -48 -121.5t-139 -48.5q-97 0 -145 66.5t-48 178.5q0 129 49.5 203.5t149.5 74.5q83 0 126 -38t43 -98h-79q0 32 -24 50.5zM163 98
q27 -39 82 -39q51 0 78.5 27.5t27.5 74.5q0 46 -27 72t-79 26q-36 0 -65 -18t-44 -44q0 -60 27 -99z" />
    <glyph glyph-name="seven.sc" horiz-adv-x="405" 
d="M35 443v64h342v-56l-201 -451h-87l199 443h-253z" />
    <glyph glyph-name="eight.sc" horiz-adv-x="488" 
d="M104.5 30q-52.5 38 -52.5 107q0 50 30 81.5t75 42.5q-42 12 -68 40.5t-26 72.5q0 65 48.5 103t132.5 38t132.5 -38t48.5 -103q0 -44 -26 -72.5t-68 -40.5q45 -11 75 -42.5t30 -81.5q0 -69 -52 -107t-139 -38q-88 0 -140.5 38zM171 428q-27 -20 -27 -58q0 -36 28 -56.5
t72 -20.5t72 20t28 57q0 38 -26.5 58t-73.5 20q-46 0 -73 -20zM324.5 81q29.5 22 29.5 63q0 40 -30.5 62t-80.5 22q-48 0 -78.5 -22t-30.5 -62q0 -41 29.5 -63t79.5 -22q52 0 81.5 22z" />
    <glyph glyph-name="nine.sc" horiz-adv-x="482" 
d="M164 77.5q24 -18.5 66 -18.5q59 0 88.5 47.5t29.5 130.5q-18 -20 -53.5 -36.5t-76.5 -16.5q-79 0 -124 44t-45 117t48.5 121.5t138.5 48.5q98 0 145.5 -66.5t47.5 -178.5q0 -129 -49.5 -203.5t-149.5 -74.5q-83 0 -126 38.5t-43 98.5h79q0 -33 24 -51.5zM318.5 409
q-27.5 39 -82.5 39q-51 0 -78.5 -27.5t-27.5 -74.5q0 -46 27.5 -72t78.5 -26q37 0 66 18t44 43q0 61 -27.5 100z" />
    <glyph glyph-name="question.sc" horiz-adv-x="383" 
d="M302 477.5q43 -37.5 43 -94.5q0 -35 -16 -59t-49 -56q-31 -31 -45.5 -52.5t-14.5 -52.5h-77q0 42 18.5 70.5t54.5 64.5q27 26 39.5 43.5t12.5 38.5q0 28 -21 47.5t-58 19.5q-36 0 -57 -17t-21 -43l-74 8q0 52 37.5 86t109.5 34q75 0 118 -37.5zM142.5 9
q-15.5 14 -15.5 36q0 21 15.5 35.5t38.5 14.5t39 -14.5t16 -35.5q0 -22 -16 -36t-39 -14t-38.5 14z" />
    <glyph glyph-name="a.sc" horiz-adv-x="517" 
d="M150 125l-47 -125h-86l194 507h95l196 -507h-88l-46 125h-218zM347 191l-88 234l-88 -234h176z" />
    <glyph glyph-name="b.sc" horiz-adv-x="498" 
d="M252 507q88 0 130.5 -34.5t42.5 -96.5q0 -43 -22 -71t-61 -38q47 -9 79 -40.5t32 -84.5q0 -75 -50.5 -108.5t-145.5 -33.5h-181v507h176zM318 314q23 20 23 57q0 70 -100 70h-85v-147h85q54 0 77 20zM341 85.5q28 19.5 28 61.5q0 82 -117 82h-96v-163h96q61 0 89 19.5z
" />
    <glyph glyph-name="c.sc" horiz-adv-x="498" 
d="M169 111q36 -51 112 -51q38 0 69 17.5t46 45.5l63 -40q-25 -42 -71.5 -66.5t-109.5 -24.5q-114 0 -171 68.5t-57 192.5q0 125 57 193.5t171 68.5q63 0 109.5 -25t71.5 -67l-63 -39q-15 28 -46 45.5t-69 17.5q-76 0 -112 -51.5t-36 -142.5t36 -142z" />
    <glyph glyph-name="d.sc" horiz-adv-x="550" 
d="M235 507q139 0 202 -60t63 -193t-63 -193.5t-202 -60.5h-159v507h159zM341.5 84q40.5 18 58 58.5t17.5 111.5q0 69 -17.5 109.5t-58 59t-110.5 18.5h-75v-375h75q70 0 110.5 18z" />
    <glyph glyph-name="e.sc" horiz-adv-x="466" 
d="M415 0h-339v507h336v-66h-255v-151h225v-66h-225v-158h258v-66z" />
    <glyph glyph-name="f.sc" horiz-adv-x="447" 
d="M404 507v-66h-247v-164h211v-66h-211v-211h-81v507h328z" />
    <glyph glyph-name="g.sc" horiz-adv-x="540" 
d="M495 273q3 -21 3 -42q0 -106 -52 -172.5t-163 -66.5q-115 0 -174.5 67t-59.5 195q0 127 60.5 194t183.5 67q62 0 107 -23.5t69 -65.5l-61 -39q-21 30 -48.5 45t-69.5 15q-84 0 -120.5 -49.5t-36.5 -143.5q0 -99 36 -146.5t114 -47.5q70 0 101.5 40.5t31.5 106.5h-129v66
h208z" />
    <glyph glyph-name="h.sc" horiz-adv-x="575" 
d="M499 507v-507h-81v231h-262v-231h-80v507h80v-210h262v210h81z" />
    <glyph glyph-name="i.sc" horiz-adv-x="232" 
d="M157 507v-507h-81v507h81z" />
    <glyph glyph-name="j.sc" horiz-adv-x="414" 
d="M118.5 72q20.5 -12 51.5 -12q48 0 72.5 27t24.5 88v332h77v-336q0 -89 -46 -134t-128 -45q-52 0 -88.5 21.5t-56.5 58.5l59 37q14 -25 34.5 -37z" />
    <glyph glyph-name="k.sc" horiz-adv-x="517" 
d="M157 0h-81v507h81v-239l240 239h98l-204 -210l204 -297h-96l-163 241l-79 -74v-167z" />
    <glyph glyph-name="l.sc" horiz-adv-x="409" 
d="M386 0h-310v507h81v-441h229v-66z" />
    <glyph glyph-name="m.sc" horiz-adv-x="716" 
d="M603 507l66 -507h-77l-52 414l-139 -414h-88l-135 412l-55 -412h-78l71 507h109l134 -409l137 409h107z" />
    <glyph glyph-name="n.sc" horiz-adv-x="576" 
d="M501 507v-507h-84l-260 382v-382h-82l1 507h86l258 -378v378h81z" />
    <glyph glyph-name="o.sc" horiz-adv-x="552" 
d="M447 62.5q-55 -70.5 -172 -70.5q-116 0 -170.5 70.5t-54.5 190.5t54.5 191t171.5 71t171.5 -71t54.5 -191t-55 -190.5zM165 110q32 -50 110 -50q79 0 111.5 50t32.5 143t-32.5 143.5t-110.5 50.5q-77 0 -110 -51t-33 -143q0 -93 32 -143z" />
    <glyph glyph-name="p.sc" horiz-adv-x="482" 
d="M157 0h-81v507h179q94 0 141 -40.5t47 -116.5q0 -75 -47 -115.5t-141 -40.5h-98v-194zM250 259q110 0 110 91t-110 91h-93v-182h93z" />
    <glyph glyph-name="q.sc" horiz-adv-x="552" 
d="M104.5 444q54.5 71 171.5 71t171.5 -71t54.5 -191q0 -96 -33 -156l63 -56l-45 -49l-59 54q-54 -54 -153 -54q-116 0 -170.5 70.5t-54.5 190.5t54.5 191zM165 110q32 -50 110 -50q62 0 95 36l-126 113l43 47l116 -104q16 41 16 101q0 93 -32.5 143.5t-110.5 50.5
q-77 0 -110 -51t-33 -143q0 -93 32 -143z" />
    <glyph glyph-name="r.sc" horiz-adv-x="509" 
d="M270 507q96 0 144 -37.5t48 -107.5q0 -58 -35.5 -94.5t-101.5 -44.5l150 -223h-92l-141 216h-85v-216h-81v507h194zM351.5 421q-26.5 20 -88.5 20h-106v-159h106q62 0 88.5 20t26.5 60q0 39 -26.5 59z" />
    <glyph glyph-name="s.sc" horiz-adv-x="462" 
d="M238 447q-46 0 -71 -22t-25 -56q0 -28 17 -44t54 -26l72 -20q66 -19 99 -52.5t33 -83.5q0 -69 -51.5 -110t-138.5 -41q-141 0 -190 94l58 43q17 -33 46 -51t86 -18q52 0 79 21t27 57q0 27 -19.5 44t-56.5 27l-72 20q-127 37 -127 135q0 64 46 107.5t134 43.5
q64 0 107 -21t65 -54l-58 -43q-35 50 -114 50z" />
    <glyph glyph-name="t.sc" horiz-adv-x="455" 
d="M422 441h-154v-441h-81v441h-155v66h390v-66z" />
    <glyph glyph-name="u.sc" horiz-adv-x="550" 
d="M124.5 40.5q-54.5 48.5 -54.5 150.5v316h81v-316q0 -68 30.5 -99t93.5 -31q62 0 93 31t31 99v316h81v-316q0 -103 -55 -151t-150 -48q-96 0 -150.5 48.5z" />
    <glyph glyph-name="v.sc" horiz-adv-x="506" 
d="M305 0h-104l-180 507h85l148 -425l146 425h85z" />
    <glyph glyph-name="w.sc" horiz-adv-x="808" 
d="M576 90l121 417h84l-152 -507h-101l-124 399l-125 -399h-99l-153 507h84l121 -417l125 417h93z" />
    <glyph glyph-name="x.sc" horiz-adv-x="493" 
d="M246 314l125 193h92l-164 -245l171 -262h-93l-131 204l-131 -204h-93l170 262l-163 245h92z" />
    <glyph glyph-name="y.sc" horiz-adv-x="488" 
d="M203 200l-186 307h89l138 -235l137 235h91l-188 -307v-200h-81v200z" />
    <glyph glyph-name="z.sc" horiz-adv-x="442" 
d="M134 66h266v-66h-362v57l260 384h-246v66h341v-59z" />
    <glyph glyph-name="agrave.sc" horiz-adv-x="517" 
d="M150 125l-47 -125h-86l194 507h95l196 -507h-88l-46 125h-218zM347 191l-88 234l-88 -234h176zM295 571h-72l-87 155h83z" />
    <glyph glyph-name="aacute.sc" horiz-adv-x="517" 
d="M150 125l-47 -125h-86l194 507h95l196 -507h-88l-46 125h-218zM347 191l-88 234l-88 -234h176zM295 571h-72l77 155h82z" />
    <glyph glyph-name="acircumflex.sc" horiz-adv-x="517" 
d="M150 125l-47 -125h-86l194 507h95l196 -507h-88l-46 125h-218zM347 191l-88 234l-88 -234h176zM402 570h-74l-69 101l-67 -101h-74l101 156h81z" />
    <glyph glyph-name="atilde.sc" horiz-adv-x="517" 
d="M150 125l-47 -125h-86l194 507h95l196 -507h-88l-46 125h-218zM347 191l-88 234l-88 -234h176zM329 628q-15 0 -28 -4.5t-35 -13.5q-26 -11 -42.5 -16t-36.5 -5t-38.5 7.5t-28.5 17.5l6 61q24 -24 61 -24q14 0 26.5 3.5t23 8t13.5 5.5q25 11 41 16t38 5q36 0 70 -24
l-6 -63q-33 26 -64 26z" />
    <glyph glyph-name="adieresis.sc" horiz-adv-x="517" 
d="M150 125l-47 -125h-86l194 507h95l196 -507h-88l-46 125h-218zM347 191l-88 234l-88 -234h176zM129 602q-15 13 -15 40t15 40.5t40 13.5q23 0 38.5 -13.5t15.5 -40.5t-15.5 -40t-38.5 -13q-25 0 -40 13zM311 602q-15 13 -15 40t15 40.5t40 13.5q23 0 38.5 -13.5
t15.5 -40.5t-15.5 -40t-38.5 -13q-25 0 -40 13z" />
    <glyph glyph-name="amacron.sc" horiz-adv-x="517" 
d="M150 125l-47 -125h-86l194 507h95l196 -507h-88l-46 125h-218zM347 191l-88 234l-88 -234h176zM399 600h-279v66h279v-66z" />
    <glyph glyph-name="abreve.sc" horiz-adv-x="517" 
d="M150 125l-47 -125h-86l194 507h95l196 -507h-88l-46 125h-218zM347 191l-88 234l-88 -234h176zM359.5 603.5q-37.5 -38.5 -101.5 -38.5q-62 0 -99 38.5t-37 99.5h56q2 -34 23.5 -55.5t56.5 -21.5q36 0 57.5 21.5t23.5 55.5h58q0 -61 -37.5 -99.5z" />
    <glyph glyph-name="aring.sc" horiz-adv-x="517" 
d="M150 125l-47 -125h-86l194 507h95l196 -507h-88l-46 125h-218zM347 191l-88 234l-88 -234h176zM183 718q28 27 75 27q49 0 77.5 -27t28.5 -68q0 -40 -28.5 -67.5t-77.5 -27.5q-47 0 -75 27.5t-28 67.5q0 41 28 68zM221.5 615.5q13.5 -13.5 36.5 -13.5q25 0 39 13t14 35
t-14 35.5t-39 13.5q-23 0 -36.5 -13.5t-13.5 -35.5q0 -21 13.5 -34.5z" />
    <glyph glyph-name="aringacute.sc" horiz-adv-x="517" 
d="M175.5 709q20.5 24 55.5 31l58 80h82l-68 -84q28 -10 43.5 -33.5t15.5 -52.5q0 -40 -28.5 -67t-76.5 -27q-47 0 -74.5 27t-27.5 67q0 35 20.5 59zM220 615q14 -14 37 -14q25 0 39 13.5t14 35.5t-14 36t-39 14q-24 0 -37.5 -14t-13.5 -36q0 -21 14 -35zM150 125l-47 -125
h-86l194 507h95l196 -507h-88l-46 125h-218zM347 191l-88 234l-88 -234h176z" />
    <glyph glyph-name="aogonek.sc" horiz-adv-x="516" 
d="M393 -112q0 -16 12 -27.5t32 -11.5q14 0 31.5 7t32.5 19v-69q-40 -22 -83 -22q-49 0 -77.5 24.5t-28.5 65.5q0 53 54 96l46 36l-44 119h-218l-47 -125h-86l194 507h95l196 -507h-1l-75 -58q-33 -27 -33 -54zM347 191l-88 234l-88 -234h176z" />
    <glyph glyph-name="ae.sc" horiz-adv-x="798" 
d="M747 0h-340v125h-209l-95 -125h-99l387 507h353v-66h-255v-151h224v-66h-224v-158h258v-66zM407 402l-162 -211h162v211z" />
    <glyph glyph-name="aeacute.sc" horiz-adv-x="798" 
d="M578 571h-72l77 155h82zM747 0h-340v125h-209l-95 -125h-99l387 507h353v-66h-255v-151h224v-66h-224v-158h258v-66zM407 402l-162 -211h162v211z" />
    <glyph glyph-name="cacute.sc" horiz-adv-x="498" 
d="M169 111q36 -51 112 -51q38 0 69 17.5t46 45.5l63 -40q-25 -42 -71.5 -66.5t-109.5 -24.5q-114 0 -171 68.5t-57 192.5q0 125 57 193.5t171 68.5q63 0 109.5 -25t71.5 -67l-63 -39q-15 28 -46 45.5t-69 17.5q-76 0 -112 -51.5t-36 -142.5t36 -142zM319 571h-72l77 155h82
z" />
    <glyph glyph-name="ccircumflex.sc" horiz-adv-x="498" 
d="M169 111q36 -51 112 -51q38 0 69 17.5t46 45.5l63 -40q-25 -42 -71.5 -66.5t-109.5 -24.5q-114 0 -171 68.5t-57 192.5q0 125 57 193.5t171 68.5q63 0 109.5 -25t71.5 -67l-63 -39q-15 28 -46 45.5t-69 17.5q-76 0 -112 -51.5t-36 -142.5t36 -142zM414 570h-74l-69 101
l-67 -101h-74l101 156h81z" />
    <glyph glyph-name="ccaron.sc" horiz-adv-x="498" 
d="M169 111q36 -51 112 -51q38 0 69 17.5t46 45.5l63 -40q-25 -42 -71.5 -66.5t-109.5 -24.5q-114 0 -171 68.5t-57 192.5q0 125 57 193.5t171 68.5q63 0 109.5 -25t71.5 -67l-63 -39q-15 28 -46 45.5t-69 17.5q-76 0 -112 -51.5t-36 -142.5t36 -142zM130 726h74l68 -101
l68 101h74l-102 -156h-81z" />
    <glyph glyph-name="cdotaccent.sc" horiz-adv-x="498" 
d="M169 111q36 -51 112 -51q38 0 69 17.5t46 45.5l63 -40q-25 -42 -71.5 -66.5t-109.5 -24.5q-114 0 -171 68.5t-57 192.5q0 125 57 193.5t171 68.5q63 0 109.5 -25t71.5 -67l-63 -39q-15 28 -46 45.5t-69 17.5q-76 0 -112 -51.5t-36 -142.5t36 -142zM232 602q-15 13 -15 40
t15 40.5t40 13.5q23 0 38.5 -13.5t15.5 -40.5t-15.5 -40t-38.5 -13q-25 0 -40 13z" />
    <glyph glyph-name="ccedilla.sc" horiz-adv-x="498" 
d="M350 77.5q31 17.5 46 45.5l63 -40q-22 -37 -60.5 -60.5t-91.5 -29.5l-18 -47q41 0 66.5 -19.5t25.5 -61.5q0 -34 -27.5 -57.5t-75.5 -23.5q-44 0 -86 22v58q17 -13 38.5 -20.5t42.5 -7.5q20 0 30.5 8t10.5 21q0 19 -13.5 26.5t-40.5 7.5h-35l-4 6l30 88q-101 8 -151 75.5
t-50 184.5q0 125 57 193.5t171 68.5q63 0 109.5 -25t71.5 -67l-63 -39q-15 28 -46 45.5t-69 17.5q-76 0 -112 -51.5t-36 -142.5t36 -142t112 -51q38 0 69 17.5z" />
    <glyph glyph-name="dcaron.sc" horiz-adv-x="550" 
d="M235 507q139 0 202 -60t63 -193t-63 -193.5t-202 -60.5h-159v507h159zM341.5 84q40.5 18 58 58.5t17.5 111.5q0 69 -17.5 109.5t-58 59t-110.5 18.5h-75v-375h75q70 0 110.5 18zM115 726h74l68 -101l68 101h74l-102 -156h-81z" />
    <glyph glyph-name="dcroat.sc" horiz-adv-x="559" 
d="M437 447q63 -60 63 -193t-63 -193.5t-202 -60.5h-159v227h-53v63h53v217h159q139 0 202 -60zM341.5 84q40.5 18 58 58.5t17.5 111.5q0 69 -17.5 109.5t-58 59t-110.5 18.5h-75v-151h118v-63h-118v-161h75q70 0 110.5 18z" />
    <glyph glyph-name="eth.sc" horiz-adv-x="559" 
d="M437 447q63 -60 63 -193t-63 -193.5t-202 -60.5h-159v227h-53v63h53v217h159q139 0 202 -60zM341.5 84q40.5 18 58 58.5t17.5 111.5q0 69 -17.5 109.5t-58 59t-110.5 18.5h-75v-151h118v-63h-118v-161h75q70 0 110.5 18z" />
    <glyph glyph-name="egrave.sc" horiz-adv-x="466" 
d="M415 0h-339v507h336v-66h-255v-151h225v-66h-225v-158h258v-66zM289 571h-72l-87 155h83z" />
    <glyph glyph-name="eacute.sc" horiz-adv-x="466" 
d="M415 0h-339v507h336v-66h-255v-151h225v-66h-225v-158h258v-66zM289 571h-72l77 155h82z" />
    <glyph glyph-name="ecircumflex.sc" horiz-adv-x="465" 
d="M415 0h-339v507h336v-66h-255v-151h225v-66h-225v-158h258v-66zM384 570h-74l-69 101l-67 -101h-74l101 156h81z" />
    <glyph glyph-name="ecaron.sc" horiz-adv-x="465" 
d="M415 0h-339v507h336v-66h-255v-151h225v-66h-225v-158h258v-66zM100 726h74l68 -101l68 101h74l-102 -156h-81z" />
    <glyph glyph-name="edieresis.sc" horiz-adv-x="465" 
d="M415 0h-339v507h336v-66h-255v-151h225v-66h-225v-158h258v-66zM111 602q-15 13 -15 40t15 40.5t40 13.5q23 0 38.5 -13.5t15.5 -40.5t-15.5 -40t-38.5 -13q-25 0 -40 13zM293 602q-15 13 -15 40t15 40.5t40 13.5q23 0 38.5 -13.5t15.5 -40.5t-15.5 -40t-38.5 -13
q-25 0 -40 13z" />
    <glyph glyph-name="emacron.sc" horiz-adv-x="465" 
d="M415 0h-339v507h336v-66h-255v-151h225v-66h-225v-158h258v-66zM381 600h-279v66h279v-66z" />
    <glyph glyph-name="ebreve.sc" horiz-adv-x="465" 
d="M415 0h-339v507h336v-66h-255v-151h225v-66h-225v-158h258v-66zM342.5 603.5q-37.5 -38.5 -101.5 -38.5q-62 0 -99 38.5t-37 99.5h56q2 -34 23.5 -55.5t56.5 -21.5q36 0 57.5 21.5t23.5 55.5h58q0 -61 -37.5 -99.5z" />
    <glyph glyph-name="edotaccent.sc" horiz-adv-x="465" 
d="M415 0h-339v507h336v-66h-255v-151h225v-66h-225v-158h258v-66zM202 602q-15 13 -15 40t15 40.5t40 13.5q23 0 38.5 -13.5t15.5 -40.5t-15.5 -40t-38.5 -13q-25 0 -40 13z" />
    <glyph glyph-name="eogonek.sc" horiz-adv-x="465" 
d="M415 66v-66h-1l-74 -58q-33 -27 -33 -54q0 -16 12 -27.5t32 -11.5q28 0 63 26v-69q-40 -22 -83 -22q-48 0 -77 24.5t-29 65.5q0 52 55 96l38 30h-242v507h336v-66h-255v-151h225v-66h-225v-158h258z" />
    <glyph glyph-name="gcircumflex.sc" horiz-adv-x="540" 
d="M495 273q3 -21 3 -42q0 -106 -52 -172.5t-163 -66.5q-115 0 -174.5 67t-59.5 195q0 127 60.5 194t183.5 67q62 0 107 -23.5t69 -65.5l-61 -39q-21 30 -48.5 45t-69.5 15q-84 0 -120.5 -49.5t-36.5 -143.5q0 -99 36 -146.5t114 -47.5q70 0 101.5 40.5t31.5 106.5h-129v66
h208zM421 570h-74l-69 101l-67 -101h-74l101 156h81z" />
    <glyph glyph-name="gbreve.sc" horiz-adv-x="540" 
d="M495 273q3 -21 3 -42q0 -106 -52 -172.5t-163 -66.5q-115 0 -174.5 67t-59.5 195q0 127 60.5 194t183.5 67q62 0 107 -23.5t69 -65.5l-61 -39q-21 30 -48.5 45t-69.5 15q-84 0 -120.5 -49.5t-36.5 -143.5q0 -99 36 -146.5t114 -47.5q70 0 101.5 40.5t31.5 106.5h-129v66
h208zM378.5 603.5q-37.5 -38.5 -101.5 -38.5q-62 0 -99 38.5t-37 99.5h56q2 -34 23.5 -55.5t56.5 -21.5q36 0 57.5 21.5t23.5 55.5h58q0 -61 -37.5 -99.5z" />
    <glyph glyph-name="gdotaccent.sc" horiz-adv-x="540" 
d="M495 273q3 -21 3 -42q0 -106 -52 -172.5t-163 -66.5q-115 0 -174.5 67t-59.5 195q0 127 60.5 194t183.5 67q62 0 107 -23.5t69 -65.5l-61 -39q-21 30 -48.5 45t-69.5 15q-84 0 -120.5 -49.5t-36.5 -143.5q0 -99 36 -146.5t114 -47.5q70 0 101.5 40.5t31.5 106.5h-129v66
h208zM239 602q-15 13 -15 40t15 40.5t40 13.5q23 0 38.5 -13.5t15.5 -40.5t-15.5 -40t-38.5 -13q-25 0 -40 13z" />
    <glyph glyph-name="uni0123.sc" horiz-adv-x="540" 
d="M495 273q3 -21 3 -42q0 -106 -52 -172.5t-163 -66.5q-115 0 -174.5 67t-59.5 195q0 127 60.5 194t183.5 67q62 0 107 -23.5t69 -65.5l-61 -39q-21 30 -48.5 45t-69.5 15q-84 0 -120.5 -49.5t-36.5 -143.5q0 -99 36 -146.5t114 -47.5q70 0 101.5 40.5t31.5 106.5h-129v66
h208zM213 -216l25 148h91l-54 -148h-62z" />
    <glyph glyph-name="hcircumflex.sc" horiz-adv-x="575" 
d="M499 507v-507h-81v231h-262v-231h-80v507h80v-210h262v210h81zM429 570h-74l-69 101l-67 -101h-74l101 156h81z" />
    <glyph glyph-name="hbar.sc" horiz-adv-x="576" 
d="M76 507h81v-79h262v79h81v-79h39v-57h-39v-371h-81v231h-262v-231h-81v371h-40v57h40v79zM157 371v-74h262v74h-262z" />
    <glyph glyph-name="igrave.sc" horiz-adv-x="232" 
d="M157 507v-507h-81v507h81zM152 571h-72l-87 155h83z" />
    <glyph glyph-name="iacute.sc" horiz-adv-x="232" 
d="M157 507v-507h-81v507h81zM152 571h-72l77 155h82z" />
    <glyph glyph-name="ibreve.sc" horiz-adv-x="232" 
d="M157 507v-507h-81v507h81zM216.5 603.5q-37.5 -38.5 -101.5 -38.5q-62 0 -99 38.5t-37 99.5h56q2 -34 23.5 -55.5t56.5 -21.5q36 0 57.5 21.5t23.5 55.5h58q0 -61 -37.5 -99.5z" />
    <glyph glyph-name="icircumflex.sc" horiz-adv-x="232" 
d="M157 507v-507h-81v507h81zM259 570h-74l-69 101l-67 -101h-74l101 156h81z" />
    <glyph glyph-name="itilde.sc" horiz-adv-x="232" 
d="M157 507v-507h-81v507h81zM186 628q-15 0 -28 -4.5t-35 -13.5q-26 -11 -42.5 -16t-36.5 -5t-38.5 7.5t-28.5 17.5l6 61q24 -24 61 -24q14 0 26.5 3.5t23 8t13.5 5.5q25 11 41 16t38 5q36 0 70 -24l-6 -63q-33 26 -64 26z" />
    <glyph glyph-name="idieresis.sc" horiz-adv-x="232" 
d="M157 507v-507h-81v507h81zM-15 602q-15 13 -15 40t15 40.5t40 13.5q23 0 38.5 -13.5t15.5 -40.5t-15.5 -40t-38.5 -13q-25 0 -40 13zM167 602q-15 13 -15 40t15 40.5t40 13.5q23 0 38.5 -13.5t15.5 -40.5t-15.5 -40t-38.5 -13q-25 0 -40 13z" />
    <glyph glyph-name="imacron.sc" horiz-adv-x="232" 
d="M157 507v-507h-81v507h81zM255 600h-279v66h279v-66z" />
    <glyph glyph-name="i.sc.loclTRK" horiz-adv-x="232" 
d="M157 507v-507h-81v507h81zM76 602q-15 13 -15 40t15 40.5t40 13.5q23 0 38.5 -13.5t15.5 -40.5t-15.5 -40t-38.5 -13q-25 0 -40 13z" />
    <glyph glyph-name="iogonek.sc" horiz-adv-x="232" 
d="M49 -112q0 -16 12 -27.5t32 -11.5q14 0 31.5 7t32.5 19v-69q-40 -22 -83 -22q-49 0 -77.5 24.5t-28.5 65.5q0 53 54 96l54 43v494h81v-507l-75 -58q-33 -27 -33 -54z" />
    <glyph glyph-name="jcircumflex.sc" horiz-adv-x="415" 
d="M118.5 72q20.5 -12 51.5 -12q48 0 72.5 27t24.5 88v332h77v-336q0 -89 -46 -134t-128 -45q-52 0 -88.5 21.5t-56.5 58.5l59 37q14 -25 34.5 -37zM447 570h-74l-69 101l-67 -101h-74l101 156h81z" />
    <glyph glyph-name="uni0137.sc" horiz-adv-x="517" 
d="M157 0h-81v507h81v-239l240 239h98l-204 -210l204 -297h-96l-163 241l-79 -74v-167zM183 -216l25 148h91l-54 -148h-62z" />
    <glyph glyph-name="lacute.sc" horiz-adv-x="409" 
d="M386 0h-310v507h81v-441h229v-66zM152 571h-72l77 155h82z" />
    <glyph glyph-name="lcaron.sc" horiz-adv-x="414" 
d="M386 0h-310v507h81v-441h229v-66zM271 351l25 156h87l-52 -156h-60z" />
    <glyph glyph-name="uni013C.sc" horiz-adv-x="409" 
d="M386 0h-310v507h81v-441h229v-66zM152 -216l25 148h91l-54 -148h-62z" />
    <glyph glyph-name="lslash.sc" horiz-adv-x="418" 
d="M25 237l59 26v244h81v-209l74 31v-67l-74 -31v-165h229v-66h-310v196l-59 -25v66z" />
    <glyph glyph-name="ldot.sc" horiz-adv-x="443" 
d="M386 0h-310v507h81v-441h229v-66zM292 244q-15 13 -15 40t15 40.5t40 13.5q23 0 38.5 -13.5t15.5 -40.5t-15.5 -40t-38.5 -13q-25 0 -40 13z" />
    <glyph glyph-name="nacute.sc" horiz-adv-x="576" 
d="M501 507v-507h-84l-260 382v-382h-82l1 507h86l258 -378v378h81zM326 571h-72l77 155h82z" />
    <glyph glyph-name="ncaron.sc" horiz-adv-x="576" 
d="M501 507v-507h-84l-260 382v-382h-82l1 507h86l258 -378v378h81zM147 726h74l68 -101l68 101h74l-102 -156h-81z" />
    <glyph glyph-name="ntilde.sc" horiz-adv-x="576" 
d="M501 507v-507h-84l-260 382v-382h-82l1 507h86l258 -378v378h81zM358 628q-15 0 -28 -4.5t-35 -13.5q-26 -11 -42.5 -16t-36.5 -5t-38.5 7.5t-28.5 17.5l6 61q24 -24 61 -24q14 0 26.5 3.5t23 8t13.5 5.5q25 11 41 16t38 5q36 0 70 -24l-6 -63q-33 26 -64 26z" />
    <glyph glyph-name="uni0146.sc" horiz-adv-x="576" 
d="M501 507v-507h-84l-260 382v-382h-82l1 507h86l258 -378v378h81zM221 -216l25 148h91l-54 -148h-62z" />
    <glyph glyph-name="ograve.sc" horiz-adv-x="552" 
d="M447 62.5q-55 -70.5 -172 -70.5q-116 0 -170.5 70.5t-54.5 190.5t54.5 191t171.5 71t171.5 -71t54.5 -191t-55 -190.5zM165 110q32 -50 110 -50q79 0 111.5 50t32.5 143t-32.5 143.5t-110.5 50.5q-77 0 -110 -51t-33 -143q0 -93 32 -143zM312 571h-72l-87 155h83z" />
    <glyph glyph-name="oacute.sc" horiz-adv-x="552" 
d="M447 62.5q-55 -70.5 -172 -70.5q-116 0 -170.5 70.5t-54.5 190.5t54.5 191t171.5 71t171.5 -71t54.5 -191t-55 -190.5zM165 110q32 -50 110 -50q79 0 111.5 50t32.5 143t-32.5 143.5t-110.5 50.5q-77 0 -110 -51t-33 -143q0 -93 32 -143zM312 571h-72l77 155h82z" />
    <glyph glyph-name="ocircumflex.sc" horiz-adv-x="552" 
d="M447 62.5q-55 -70.5 -172 -70.5q-116 0 -170.5 70.5t-54.5 190.5t54.5 191t171.5 71t171.5 -71t54.5 -191t-55 -190.5zM165 110q32 -50 110 -50q79 0 111.5 50t32.5 143t-32.5 143.5t-110.5 50.5q-77 0 -110 -51t-33 -143q0 -93 32 -143zM418 570h-74l-69 101l-67 -101
h-74l101 156h81z" />
    <glyph glyph-name="otilde.sc" horiz-adv-x="552" 
d="M447 62.5q-55 -70.5 -172 -70.5q-116 0 -170.5 70.5t-54.5 190.5t54.5 191t171.5 71t171.5 -71t54.5 -191t-55 -190.5zM165 110q32 -50 110 -50q79 0 111.5 50t32.5 143t-32.5 143.5t-110.5 50.5q-77 0 -110 -51t-33 -143q0 -93 32 -143zM345 628q-15 0 -28 -4.5
t-35 -13.5q-26 -11 -42.5 -16t-36.5 -5t-38.5 7.5t-28.5 17.5l6 61q24 -24 61 -24q14 0 26.5 3.5t23 8t13.5 5.5q25 11 41 16t38 5q36 0 70 -24l-6 -63q-33 26 -64 26z" />
    <glyph glyph-name="odieresis.sc" horiz-adv-x="552" 
d="M447 62.5q-55 -70.5 -172 -70.5q-116 0 -170.5 70.5t-54.5 190.5t54.5 191t171.5 71t171.5 -71t54.5 -191t-55 -190.5zM165 110q32 -50 110 -50q79 0 111.5 50t32.5 143t-32.5 143.5t-110.5 50.5q-77 0 -110 -51t-33 -143q0 -93 32 -143zM145 602q-15 13 -15 40t15 40.5
t40 13.5q23 0 38.5 -13.5t15.5 -40.5t-15.5 -40t-38.5 -13q-25 0 -40 13zM327 602q-15 13 -15 40t15 40.5t40 13.5q23 0 38.5 -13.5t15.5 -40.5t-15.5 -40t-38.5 -13q-25 0 -40 13z" />
    <glyph glyph-name="omacron.sc" horiz-adv-x="552" 
d="M447 62.5q-55 -70.5 -172 -70.5q-116 0 -170.5 70.5t-54.5 190.5t54.5 191t171.5 71t171.5 -71t54.5 -191t-55 -190.5zM165 110q32 -50 110 -50q79 0 111.5 50t32.5 143t-32.5 143.5t-110.5 50.5q-77 0 -110 -51t-33 -143q0 -93 32 -143zM415 600h-279v66h279v-66z" />
    <glyph glyph-name="obreve.sc" horiz-adv-x="552" 
d="M447 62.5q-55 -70.5 -172 -70.5q-116 0 -170.5 70.5t-54.5 190.5t54.5 191t171.5 71t171.5 -71t54.5 -191t-55 -190.5zM165 110q32 -50 110 -50q79 0 111.5 50t32.5 143t-32.5 143.5t-110.5 50.5q-77 0 -110 -51t-33 -143q0 -93 32 -143zM376.5 603.5
q-37.5 -38.5 -101.5 -38.5q-62 0 -99 38.5t-37 99.5h56q2 -34 23.5 -55.5t56.5 -21.5q36 0 57.5 21.5t23.5 55.5h58q0 -61 -37.5 -99.5z" />
    <glyph glyph-name="ohungarumlaut.sc" horiz-adv-x="552" 
d="M447 62.5q-55 -70.5 -172 -70.5q-116 0 -170.5 70.5t-54.5 190.5t54.5 191t171.5 71t171.5 -71t54.5 -191t-55 -190.5zM165 110q32 -50 110 -50q79 0 111.5 50t32.5 143t-32.5 143.5t-110.5 50.5q-77 0 -110 -51t-33 -143q0 -93 32 -143zM231 571h-71l76 155h82zM385 571
h-71l76 155h82z" />
    <glyph glyph-name="oslash.sc" horiz-adv-x="552" 
d="M451 440q51 -67 51 -187t-55 -190.5t-172 -70.5q-84 0 -137 39l-24 -31h-69l53 70q-48 67 -48 183q0 120 54.5 191t171.5 71q81 0 134 -36l21 28h71zM150 138l215 282q-35 27 -89 27q-77 0 -110 -51t-33 -143q0 -71 17 -115zM399 373l-216 -283q35 -30 92 -30
q79 0 111.5 50t32.5 143q0 74 -20 120z" />
    </font>
</defs>
</svg>
